<svg width="408" height="783" viewBox="0 0 408 783" fill="none" xmlns="http://www.w3.org/2000/svg">
<path d="M301.37 77.5302L296.2 85.6233C293.393 85.7878 290.58 85.4044 287.93 84.4961C286.658 84.0503 285.443 83.4652 284.31 82.7522C282.586 81.6613 281.01 80.3666 279.62 78.8983C277.796 77.0196 276.242 74.9132 275 72.6358C275 72.6358 284.34 68.7048 292.84 71.7301C296.124 72.9784 299.049 74.9674 301.37 77.5302Z" fill="#2E5848"/>
<path opacity="0.2" d="M301.37 77.5302L296.2 85.6233C293.393 85.7878 290.58 85.4044 287.93 84.4961C286.658 84.0503 285.443 83.4652 284.31 82.7522C282.586 81.6613 281.01 80.3666 279.62 78.8983C277.796 77.0196 276.242 74.9132 275 72.6358C275 72.6358 284.34 68.7048 292.84 71.7301C296.124 72.9784 299.049 74.9674 301.37 77.5302Z" fill="#2E5848"/>
<path d="M338.028 87.5664H301.398C301.398 87.5664 308.688 76.8141 311.798 78.1726C315.848 79.955 318.848 70.2047 323.328 72.517C324.908 73.3263 324.128 75.9373 325.128 76.9875C326.768 78.7217 328.858 78.3845 330.838 79.3383C334.728 81.1978 336.108 83.674 338.028 87.5664Z" fill="#2E5848"/>
<path opacity="0.2" d="M338.028 87.5664H301.398C301.398 87.5664 308.688 76.8141 311.798 78.1726C315.848 79.955 318.848 70.2047 323.328 72.517C324.908 73.3263 324.128 75.9373 325.128 76.9875C326.768 78.7217 328.858 78.3845 330.838 79.3383C334.728 81.1978 336.108 83.674 338.028 87.5664Z" fill="#2E5848"/>
<path d="M311.309 82.3186C311.309 82.3186 322.779 80.3146 323.889 78.5225C324.999 76.7305 317.459 79.1391 317.459 79.1391C317.459 79.1391 331.459 69.5045 330.549 66.8068C329.639 64.1091 318.219 74.7265 318.219 74.7265C318.219 74.7265 333.219 56.5651 330.149 53.8963C327.079 51.2275 315.769 72.443 315.769 72.443C315.769 72.443 320.049 61.5077 317.259 60.419C314.469 59.3303 312.259 72.6454 312.259 72.6454C312.259 72.6454 311.549 67.3656 309.869 67.9629C308.189 68.5603 308.509 77.771 311.309 82.3186Z" fill="#2E5848"/>
<path opacity="0.2" d="M311.309 82.3186C311.309 82.3186 322.779 80.3146 323.889 78.5225C324.999 76.7305 317.459 79.1391 317.459 79.1391C317.459 79.1391 331.459 69.5045 330.549 66.8068C329.639 64.1091 318.219 74.7265 318.219 74.7265C318.219 74.7265 333.219 56.5651 330.149 53.8963C327.079 51.2275 315.769 72.443 315.769 72.443C315.769 72.443 320.049 61.5077 317.259 60.419C314.469 59.3303 312.259 72.6454 312.259 72.6454C312.259 72.6454 311.549 67.3656 309.869 67.9629C308.189 68.5603 308.509 77.771 311.309 82.3186Z" fill="#2E5848"/>
<path d="M308.554 81.305C308.554 81.305 319.634 70.6105 319.434 67.8164C319.234 65.0224 312.814 73.26 312.814 73.26C312.814 73.26 320.624 52.2468 317.464 49.9537C314.304 47.6607 310.144 67.8164 310.144 67.8164C310.144 67.8164 312.234 36.6868 306.734 36.022C301.234 35.3572 305.614 67.1516 305.614 67.1516C305.614 67.1516 301.614 51.9096 297.674 52.7671C293.734 53.6246 301.874 69.9746 301.874 69.9746C301.874 69.9746 296.874 64.6659 295.504 66.5735C294.134 68.4812 301.834 78.3086 308.554 81.305Z" fill="#2E5848"/>
<path opacity="0.4" d="M308.554 81.305C308.554 81.305 319.634 70.6105 319.434 67.8164C319.234 65.0224 312.814 73.26 312.814 73.26C312.814 73.26 320.624 52.2468 317.464 49.9537C314.304 47.6607 310.144 67.8164 310.144 67.8164C310.144 67.8164 312.234 36.6868 306.734 36.022C301.234 35.3572 305.614 67.1516 305.614 67.1516C305.614 67.1516 301.614 51.9096 297.674 52.7671C293.734 53.6246 301.874 69.9746 301.874 69.9746C301.874 69.9746 296.874 64.6659 295.504 66.5735C294.134 68.4812 301.834 78.3086 308.554 81.305Z" fill="#2E5848"/>
<path d="M304.56 82.739C304.56 82.8161 304.93 83.24 303.46 83.24C299.85 83.24 293.46 82.7486 291.2 79.4921C287.97 74.8385 295.85 75.5708 295.2 73.0465C294.55 70.5222 285.96 72.2179 284.46 68.6049C282.96 64.9919 289.1 65.9168 288.89 64.0766C288.68 62.2364 282.1 64.3464 280.13 60.4925C278.16 56.6386 283.73 58.8739 282.88 57.2745C282.03 55.6752 275.11 48.8827 278.08 47.5821C281.05 46.2814 287.51 53.3051 289.71 54.1144C291.91 54.9237 292.71 48.2854 295.53 50.6363C298.35 52.9871 296.01 62.959 299.37 64.3464C301.87 65.3773 300.64 61.7161 303.77 61.9763C308.02 62.3038 308.82 76.4861 304.56 82.739Z" fill="#2E5848"/>
<g opacity="0.6">
<path d="M304.56 82.739C304.56 82.8161 304.93 83.24 303.46 83.24C299.85 83.24 293.46 82.7486 291.2 79.4921C287.97 74.8385 295.85 75.5708 295.2 73.0465C294.55 70.5222 285.96 72.2179 284.46 68.6049C282.96 64.9919 289.1 65.9168 288.89 64.0766C288.68 62.2364 282.1 64.3464 280.13 60.4925C278.16 56.6386 283.73 58.8739 282.88 57.2745C282.03 55.6752 275.11 48.8827 278.08 47.5821C281.05 46.2814 287.51 53.3051 289.71 54.1144C291.91 54.9237 292.71 48.2854 295.53 50.6363C298.35 52.9871 296.01 62.959 299.37 64.3464C301.87 65.3773 300.64 61.7161 303.77 61.9763C308.02 62.3038 308.82 76.4861 304.56 82.739Z" fill="#2E5848"/>
</g>
<path d="M321.893 87.568H292.703C292.703 87.568 298.513 78.9932 300.993 80.0819C304.213 81.4982 306.603 73.7326 310.173 75.5729C311.433 76.2184 310.823 78.2995 311.613 79.1377C312.923 80.5155 314.613 80.2457 316.163 81.0068C319.313 82.4906 320.363 84.4657 321.893 87.568Z" fill="#2E5848"/>
<path d="M154 87.5159H223.07C215.58 80.8873 197.95 81.2919 197.95 81.2919C197.95 81.2919 210.18 68.6416 205.67 60.5195C201.16 52.3975 189.08 70.2024 189.08 70.2024C189.08 70.2024 204.27 43.7167 198.62 37.1169C192.97 30.5171 177.78 66.1173 177.78 66.1173C177.78 66.1173 187.01 28.4361 181.46 27.3666C175.91 26.2972 170.11 63.1016 170.11 63.1016C170.11 63.1016 172.11 29.4574 167.44 30.4208C162.77 31.3843 165.03 75.2799 165.03 75.2799C165.03 75.2799 160.33 52.8792 158.33 60.0282C156.33 67.1771 160.33 82.4866 160.33 82.4866C158.809 82.3938 157.309 82.8619 156.133 83.7959C154.958 84.7299 154.195 86.0599 154 87.5159Z" fill="#2E5848"/>
<path d="M212 88.1765H301.69C291.97 79.5727 269.07 80.1026 269.07 80.1026C269.07 80.1026 284.95 63.6562 279.07 53.1255C273.19 42.5948 257.54 65.6506 257.54 65.6506C257.54 65.6506 277.26 31.2548 269.92 22.68C262.58 14.1051 242.87 60.3516 242.87 60.3516C242.87 60.3516 254.87 11.417 247.64 10.0296C240.41 8.64224 232.91 56.4302 232.91 56.4302C232.91 56.4302 235.5 12.7466 229.43 13.9895C223.36 15.2324 226.31 72.2504 226.31 72.2504C226.31 72.2504 220.21 43.1633 217.6 52.4415C214.99 61.7197 220.21 81.6056 220.21 81.6056C214.23 81.7213 212.5 85.6811 212 88.1765Z" fill="#2E5848"/>
<path d="M89.6875 78.1765H-0.00248718C9.71751 69.5727 32.6175 70.1026 32.6175 70.1026C32.6175 70.1026 16.7375 53.6562 22.6175 43.1255C28.4975 32.5948 44.1475 55.6506 44.1475 55.6506C44.1475 55.6506 24.4275 21.2548 31.7675 12.68C39.1075 4.10511 58.8175 50.3516 58.8175 50.3516C58.8175 50.3516 46.8175 1.41703 54.0475 0.0296351C61.2775 -1.35776 68.7775 46.4302 68.7775 46.4302C68.7775 46.4302 66.1875 2.74663 72.2575 3.9895C78.3275 5.23238 75.3775 62.2504 75.3775 62.2504C75.3775 62.2504 81.4775 33.1633 84.0875 42.4415C86.6975 51.7197 81.4775 71.6057 81.4775 71.6057C87.4575 71.7213 89.1875 75.6811 89.6875 78.1765Z" fill="#2E5848"/>
<path d="M155.476 48L161.904 51.0506L163.74 67.8291L157.313 72.4051L156.394 78.5063L159.149 76.981H169.25L170.168 72.4051L179.351 70.8797L183.942 73.9304V78.5063H201.389L203.226 67.8291L205.981 63.2532L207.817 57.1519L215.163 52.5759H220.673V55.6266L224.346 57.1519L228.937 63.2532L232.611 75.4557V78.5063H249.139L250.976 70.8797L255.567 69.3544L258.322 70.8797L259.24 76.981L271.178 78.5063L269.341 72.4051L275.361 76.981L274.208 75.4557L276.514 78.5063H271.178H277.606L285.434 72.4051L282.358 85.6845L288.356 78.5063L296.506 83.8792H309.578L311.582 57.1519L310.781 67.8291L319.846 54.1013L327.192 55.6266L331.784 51.0506L338.212 52.5759L341.885 58.6772L344.639 57.1519L351.986 61.7278L354.74 63.2532L363.923 64.7785V60.2025L373.106 63.2532L381.37 61.7278V66.3038L389.635 64.7785L392.389 67.8291V72.4051L396.981 70.8797L397.899 73.9304H405.245L408 75.4557V287.475L407.082 289H26.9183L26 287.475V80.0316L30.5913 73.9304L38.8558 70.8797V75.4557L46.2019 73.9304L48.9567 76.981L56.3029 78.5063V72.4051L59.0577 70.8797H67.3221V67.8291H72.8317L82.0144 61.7278L90.2788 58.6772L96.7067 51.0506L102.216 52.5759L104.971 57.1519L113.236 55.6266L117.827 58.6772H123.337L132.519 54.1013L133.437 58.6772L140.784 57.1519L143.538 60.2025V66.3038H147.212V57.1519H149.048L150.885 49.5253L155.476 48Z" fill="#2E5848"/>
<rect width="382" height="498" transform="translate(26 285)" fill="#2E5848"/>
<path d="M71.4795 323.129H49.9779C49.49 323.124 49.0201 323.313 48.6713 323.654C48.3225 323.995 48.1232 324.461 48.1172 324.948V346.537C48.1243 347.024 48.324 347.488 48.6727 347.829C49.0215 348.169 49.4908 348.357 49.9779 348.352H71.4795C71.9674 348.356 72.437 348.166 72.7856 347.825C73.1343 347.484 73.3337 347.018 73.3402 346.531V324.942C73.3315 324.456 73.1312 323.992 72.7827 323.653C72.4343 323.313 71.966 323.125 71.4795 323.129ZM55.5952 344.631H51.851V332.583H55.5952V344.631ZM53.7345 330.942C53.305 330.942 52.8851 330.815 52.5279 330.577C52.1706 330.339 51.892 330 51.7274 329.603C51.5628 329.207 51.5195 328.77 51.603 328.349C51.6866 327.928 51.8932 327.541 52.1967 327.237C52.5002 326.933 52.887 326.726 53.3081 326.642C53.7293 326.558 54.1659 326.601 54.5627 326.765C54.9595 326.93 55.2986 327.208 55.5372 327.565C55.7759 327.922 55.9032 328.342 55.9032 328.771C55.9027 329.057 55.8459 329.339 55.736 329.602C55.6262 329.866 55.4654 330.105 55.263 330.306C55.0606 330.508 54.8205 330.667 54.5565 330.775C54.2924 330.884 54.0096 330.939 53.7241 330.938L53.7345 330.942ZM69.6188 344.631H65.8746V338.769C65.8746 337.374 65.8498 335.577 63.9291 335.577C62.0085 335.577 61.6818 337.099 61.6818 338.678V344.631H57.9438V332.583H61.5329V334.237H61.5826C62.0829 333.291 63.3027 332.292 65.1241 332.292C68.9158 332.284 69.6188 334.779 69.6188 338.015V344.631Z" fill="#2E5848"/>
<path fill-rule="evenodd" clip-rule="evenodd" d="M88.6789 323.129C87.2456 323.129 85.871 323.698 84.8574 324.711C83.8437 325.725 83.274 327.099 83.2734 328.532V342.947C83.2734 344.38 83.8429 345.755 84.8566 346.769C85.8704 347.783 87.2452 348.352 88.6789 348.352H103.093C104.527 348.352 105.901 347.782 106.914 346.768C107.927 345.755 108.497 344.38 108.497 342.947V328.532C108.496 327.099 107.927 325.725 106.913 324.712C105.9 323.699 104.526 323.129 103.093 323.129H88.6789ZM104.648 328.541C104.648 328.953 104.484 329.349 104.192 329.641C103.9 329.933 103.504 330.097 103.091 330.097C102.678 330.097 102.282 329.933 101.99 329.641C101.698 329.349 101.534 328.953 101.534 328.541C101.534 328.128 101.698 327.732 101.99 327.44C102.282 327.148 102.678 326.984 103.091 326.984C103.504 326.984 103.9 327.148 104.192 327.44C104.484 327.732 104.648 328.128 104.648 328.541ZM95.8882 331.422C94.743 331.422 93.6448 331.877 92.8351 332.686C92.0254 333.496 91.5705 334.594 91.5705 335.739C91.5705 336.885 92.0254 337.983 92.8351 338.793C93.6448 339.602 94.743 340.057 95.8882 340.057C97.0333 340.057 98.1315 339.602 98.9412 338.793C99.7509 337.983 100.206 336.885 100.206 335.739C100.206 334.594 99.7509 333.496 98.9412 332.686C98.1315 331.877 97.0333 331.422 95.8882 331.422ZM89.4926 335.739C89.4926 334.044 90.1662 332.418 91.3652 331.219C92.5642 330.02 94.1904 329.346 95.8861 329.346C97.5817 329.346 99.208 330.02 100.407 331.219C101.606 332.418 102.28 334.044 102.28 335.739C102.28 337.435 101.606 339.061 100.407 340.26C99.208 341.459 97.5817 342.133 95.8861 342.133C94.1904 342.133 92.5642 341.459 91.3652 340.26C90.1662 339.061 89.4926 337.435 89.4926 335.739Z" fill="#2E5848"/>
<path d="M142.265 323.129H119.829C119.46 323.129 119.106 323.275 118.845 323.536C118.584 323.797 118.438 324.151 118.438 324.52V346.959C118.438 347.328 118.584 347.682 118.845 347.943C119.106 348.203 119.46 348.35 119.829 348.35H131.903V338.585H128.62V334.777H131.903V331.97C131.903 328.712 133.893 326.938 136.8 326.938C137.78 326.935 138.76 326.985 139.736 327.088V330.493H137.726C136.145 330.493 135.839 331.244 135.839 332.346V334.777H139.607L139.117 338.585H135.839V348.352H142.259C142.628 348.352 142.981 348.205 143.242 347.944C143.503 347.683 143.649 347.33 143.65 346.961V324.522C143.651 324.154 143.505 323.801 143.246 323.539C142.986 323.278 142.634 323.131 142.265 323.129Z" fill="#2E5848"/>
<path d="M169.463 335.752L164.103 332.706V338.798L169.463 335.752ZM175.206 323.129H157.189C155.202 323.129 153.586 324.745 153.586 326.732V344.749C153.586 346.736 155.202 348.352 157.189 348.352H175.206C177.193 348.352 178.809 346.736 178.809 344.749V326.732C178.809 324.745 177.193 323.129 175.206 323.129ZM176.017 330.792C176.444 332.402 176.444 335.757 176.444 335.757C176.444 335.757 176.444 339.113 176.017 340.718C175.78 341.607 175.088 342.277 174.204 342.514C172.61 342.947 166.198 342.947 166.198 342.947C166.198 342.947 159.785 342.947 158.191 342.519C157.307 342.283 156.615 341.613 156.379 340.723C155.951 339.113 155.951 335.757 155.951 335.757C155.951 335.757 155.951 332.396 156.379 330.792C156.615 329.902 157.307 329.204 158.191 328.967C159.785 328.534 166.198 328.534 166.198 328.534C166.198 328.534 172.61 328.534 174.204 328.967C175.088 329.204 175.78 329.902 176.017 330.792Z" fill="#2E5848"/>
</svg>
