<svg width="263" height="339" viewBox="0 0 263 339" fill="none" xmlns="http://www.w3.org/2000/svg">
<path d="M-67.9121 218.994C-55.4047 260.224 -27.6304 295.126 9.73947 316.571C47.1093 338.016 91.2559 344.388 133.165 334.385C175.073 324.382 211.583 298.759 235.239 262.748C258.895 226.736 267.912 183.053 260.45 140.618C252.988 98.1835 229.608 60.1975 195.086 34.4171C160.564 8.63666 117.503 -2.99368 74.6959 1.90094C31.8888 6.79558 -7.43551 27.846 -35.2471 60.7537C-63.0587 93.6615 -77.2599 135.944 -74.9507 178.969L-24.743 176.274C-26.3655 146.043 -16.3869 116.332 3.15518 93.209C22.6973 70.086 50.3289 55.2947 80.4078 51.8555C110.487 48.4162 140.744 56.5884 165.001 74.7033C189.259 92.8182 205.686 119.509 210.93 149.327C216.173 179.144 209.837 209.838 193.215 235.142C176.593 260.446 150.939 278.45 121.491 285.479C92.0438 292.508 61.0238 288.03 34.7655 272.962C8.50714 257.893 -11.0088 233.369 -19.7972 204.398L-67.9121 218.994Z" fill="#F7B18C" fill-opacity="0.4"/>
</svg>
