<svg width="427" height="542" viewBox="0 0 427 542" fill="none" xmlns="http://www.w3.org/2000/svg">
<path d="M-702 2.16052C-642.469 27.4051 -519.783 90.151 -472.472 151.519M-472.472 151.519C-468.726 156.379 -465.452 161.231 -462.719 166.054C-416.175 248.216 -548.938 228.257 -472.472 151.519ZM-472.472 151.519C-419.244 89.4257 -290.492 1.2648 -201.305 145.371C-100.024 309.02 25.6443 322.592 89.0103 297.593M89.0103 297.593C95.3929 295.075 101.143 292.165 106.173 288.978C161.139 254.153 66.264 219.779 89.0103 297.593ZM89.0103 297.593C112.968 356.216 193.538 471.106 324.155 461.682C487.426 449.902 423.71 458.706 332.5 540.274" stroke="#044690" stroke-width="3" stroke-dasharray="6 6"/>
</svg>
