<svg width="164" height="152" viewBox="0 0 164 152" fill="none" xmlns="http://www.w3.org/2000/svg">
<path d="M78.5 102.5H56C55.4477 102.5 55 102.052 55 101.5C55 100.948 55.4477 100.5 56 100.5H78.5C79.0523 100.5 79.5 100.948 79.5 101.5C79.5 102.052 79.0523 102.5 78.5 102.5Z" stroke="#81B03F" stroke-width="1.6" stroke-linecap="round"/>
<path d="M81.5 100.5V102.5M83.5 100.5V102" stroke="#81B03F" stroke-width="1.6" stroke-linecap="round"/>
<path d="M109.5 102.5H86.5C85.9477 102.5 85.5 102.052 85.5 101.5C85.5 100.948 85.9477 100.5 86.5 100.5H109.5C110.052 100.5 110.5 100.948 110.5 101.5C110.5 102.052 110.052 102.5 109.5 102.5Z" stroke="#81B03F" stroke-width="1.6" stroke-linecap="round"/>
<path d="M69 67L69.5 100" stroke="#81B03F" stroke-width="1.6" stroke-linecap="round"/>
<path d="M69.5 100C65.1666 100 56.7 97.3 57.5 86.5C61.6666 86.6667 69.9 89.6 69.5 100Z" stroke="#81B03F" stroke-width="1.6" stroke-linecap="round"/>
<path d="M69.5 100C73.5 100.167 81.4 97.7 81 86.5C76.8334 86.6667 68.7 89.6 69.5 100Z" stroke="#81B03F" stroke-width="1.6" stroke-linecap="round"/>
<path d="M96.5 100C92.1666 100 83.7 97.3 84.5 86.5C88.6666 86.6667 96.9 89.6 96.5 100Z" stroke="#81B03F" stroke-width="1.6" stroke-linecap="round"/>
<path d="M96.5 100C100.5 100.167 108.4 97.7 108 86.5C103.833 86.6667 95.7 89.6 96.5 100Z" stroke="#81B03F" stroke-width="1.6" stroke-linecap="round"/>
<path d="M69.0529 89.5C64.7196 89.5 56.2529 86.8 57.0529 76C61.2196 76.1667 69.4529 79.1 69.0529 89.5Z" stroke="#81B03F" stroke-width="1.6" stroke-linecap="round"/>
<path d="M69.053 89.5C73.053 89.6667 80.953 87.2 80.553 76C76.3863 76.1667 68.253 79.1 69.053 89.5Z" stroke="#81B03F" stroke-width="1.6" stroke-linecap="round"/>
<path d="M96.0529 89.5C91.7196 89.5 83.2529 86.8 84.0529 76C88.2196 76.1667 96.4529 79.1 96.0529 89.5Z" stroke="#81B03F" stroke-width="1.6" stroke-linecap="round"/>
<path d="M96.053 89.5C100.053 89.6667 107.953 87.2 107.553 76C103.386 76.1667 95.253 79.1 96.053 89.5Z" stroke="#81B03F" stroke-width="1.6" stroke-linecap="round"/>
<path d="M69.0529 78.5C64.7196 78.5 56.2529 75.8 57.0529 65C61.2196 65.1667 69.4529 68.1 69.0529 78.5Z" stroke="#81B03F" stroke-width="1.6" stroke-linecap="round"/>
<path d="M69.053 78.5C73.053 78.6667 80.953 76.2 80.553 65C76.3863 65.1667 68.253 68.1 69.053 78.5Z" stroke="#81B03F" stroke-width="1.6" stroke-linecap="round"/>
<path d="M96.0529 78.5C91.7196 78.5 83.2529 75.8 84.0529 65C88.2196 65.1667 96.4529 68.1 96.0529 78.5Z" stroke="#81B03F" stroke-width="1.6" stroke-linecap="round"/>
<path d="M96.053 78.5C100.053 78.6667 107.953 76.2 107.553 65C103.386 65.1667 95.253 68.1 96.053 78.5Z" stroke="#81B03F" stroke-width="1.6" stroke-linecap="round"/>
<path d="M69.0529 67.5C64.7196 67.5 56.2529 64.8 57.0529 54C61.2196 54.1667 69.4529 57.1 69.0529 67.5Z" stroke="#81B03F" stroke-width="1.6" stroke-linecap="round"/>
<path d="M69.053 67.5C73.053 67.6667 80.953 65.2 80.553 54C76.3863 54.1667 68.253 57.1 69.053 67.5Z" stroke="#81B03F" stroke-width="1.6" stroke-linecap="round"/>
<path d="M96 78L96.5 100" stroke="#81B03F" stroke-width="1.6" stroke-linecap="round"/>
<path d="M69.5 50.5V56.5M73 52V55M65.5 51.5V55" stroke="#81B03F" stroke-width="1.6" stroke-linecap="round"/>
<path d="M95.5 61.5V67.5M92 63V66M99.5 62.5V66" stroke="#81B03F" stroke-width="1.6" stroke-linecap="round"/>
<path d="M65.5 47V48.5M69.5 46V48M73 47.5V49" stroke="#81B03F" stroke-width="1.6" stroke-linecap="round"/>
<path d="M99.5 58V59.5M95.5 57V59M92 58.5V60" stroke="#81B03F" stroke-width="1.6" stroke-linecap="round"/>
<path d="M54.7419 17.7142C23.2419 15.7144 -34.6581 119.014 61.7419 148.214" stroke="#E6EFD9" stroke-width="4" stroke-linecap="round"/>
<path d="M61.7419 148.214C177.242 168.714 213.742 -18.2857 49.7419 23.7141" stroke="#E6EFD9" stroke-width="4" stroke-linecap="round"/>
<path d="M82.742 2.21436C24.742 2.21436 -50.2581 118.714 54.242 146.214" stroke="#E6EFD9" stroke-width="4" stroke-linecap="round"/>
<path d="M82.7419 2.20026C153.242 -4.7997 229.242 174.214 55.2419 147.216" stroke="#E6EFD9" stroke-width="4" stroke-linecap="round"/>
</svg>
