<svg width="164" height="152" viewBox="0 0 164 152" fill="none" xmlns="http://www.w3.org/2000/svg">
<path d="M51.0398 102.189L79.5398 74.1895M104.54 48.6895L102.04 50.6895" stroke="#81B03F" stroke-width="2" stroke-linecap="round"/>
<path d="M62.0398 92.1895H74.0398M77.0398 92.1895H79.5398M57.5398 95.6895V83.6895M69.0398 83.6895V66.6895M69.0398 63.1895V60.6895" stroke="#81B03F" stroke-width="2" stroke-linecap="round"/>
<path d="M86.0398 87.1895C85.7065 86.3561 85.1398 84.5895 85.5398 84.1895" stroke="#81B03F" stroke-width="2" stroke-linecap="round"/>
<path d="M110.54 86.1895L124.814 100.464C125.293 100.943 125.858 101.365 126.53 101.45C128.21 101.663 129.599 100.652 129.696 98.9704C129.745 98.1221 129.224 97.3741 128.624 96.7733L114.54 82.6895" stroke="#81B03F" stroke-width="2" stroke-linecap="round"/>
<path d="M105.04 48.6894C54.8259 42.3131 47.7583 81.73 50.5089 102.46C50.5271 102.597 50.6315 102.699 50.7697 102.711C59.2746 103.509 77.5698 103.229 85.2689 95.9528C85.4097 95.8197 85.3819 95.5924 85.2237 95.4805C83.1461 94.011 81.0913 90.6153 86.0398 87.1895" stroke="#81B03F" stroke-width="2" stroke-linecap="round"/>
<circle cx="99.0398" cy="70.1895" r="19" stroke="#81B03F" stroke-width="2"/>
<circle cx="98.7898" cy="69.9395" r="13.75" stroke="#81B03F" stroke-width="2"/>
<path d="M88.5398 79.1895C88.9824 78.8944 89.9735 78.3381 90.7502 78.2143C90.8888 78.1922 90.9863 78.0494 90.9424 77.9161C90.2163 75.7112 90.2797 71.7195 95.7359 71.2136C95.8782 71.2004 95.9699 71.0491 95.9097 70.9195C94.3341 67.5289 93.4858 61.0809 101.82 60.2109C101.936 60.1988 102.023 60.0917 102.013 59.9758C101.927 59.0227 102.296 57.9332 103.04 57.1895M105.04 48.6895V51.1895" stroke="#81B03F" stroke-width="2" stroke-linecap="round"/>
<path d="M114.04 89.1895L117.04 86.1895" stroke="#81B03F" stroke-width="2" stroke-linecap="round"/>
<path d="M54.7419 17.7142C23.2419 15.7144 -34.6581 119.014 61.7419 148.214" stroke="#E6EFD9" stroke-width="4" stroke-linecap="round"/>
<path d="M61.7419 148.214C177.242 168.714 213.742 -18.2857 49.7419 23.7141" stroke="#E6EFD9" stroke-width="4" stroke-linecap="round"/>
<path d="M82.742 2.21436C24.742 2.21436 -50.2581 118.714 54.242 146.214" stroke="#E6EFD9" stroke-width="4" stroke-linecap="round"/>
<path d="M82.7419 2.20026C153.242 -4.7997 229.242 174.214 55.2419 147.216" stroke="#E6EFD9" stroke-width="4" stroke-linecap="round"/>
</svg>
