<svg width="164" height="152" viewBox="0 0 164 152" fill="none" xmlns="http://www.w3.org/2000/svg">
<path d="M71.0001 62.0002C71.4833 60.2286 73.3671 57.3987 77.1029 59.7367C77.2899 59.8538 77.5434 59.7493 77.5892 59.5334C77.8182 58.4556 78.3099 56.8451 79.0001 56.5M81.0001 55C81.5001 54.5 82.7001 53.8 83.5001 55" stroke="#81B03F" stroke-width="1.8" stroke-linecap="round"/>
<path d="M68.0001 59.4997C67.6695 57.1854 68.8801 52.8708 76.3153 53.9714C76.4178 53.9866 76.5192 53.9219 76.5476 53.8222C78.2174 47.9516 89.02 45.5992 91.0001 55.4995" stroke="#81B03F" stroke-width="1.8" stroke-linecap="round"/>
<path d="M91.0001 75.4997L90.5001 63.9997C90.8335 62.9997 91.8001 61.5997 93.0001 63.9997L93.5001 76.4998M93.5001 67.9998L94.5001 62.4998C95.1668 61.4998 96.7001 60.1998 97.5001 62.9998L94.5001 76.5" stroke="#81B03F" stroke-width="1.8" stroke-linecap="round"/>
<path d="M105.5 80V83.5M104 82H107M105.5 89.2611V93M107 91H104M105.5 98.5V102.5M107 100.5H103.5" stroke="#81B03F" stroke-width="1.8" stroke-linecap="round"/>
<path d="M54.5001 86.5H92.5001M100 86.5H111.5M54.5001 96H67.0001M74.0001 96H111.5M96.0001 85.5V87.5M70.5001 94.5V97M61.5001 80V83.5M59.5001 82H63.0001" stroke="#81B03F" stroke-width="1.8" stroke-linecap="round"/>
<path d="M61.5001 89.5V93M59.5001 91H63.0001" stroke="#81B03F" stroke-width="1.8" stroke-linecap="round"/>
<path d="M61.5001 99V102.5M59.5001 100.5H63.0001" stroke="#81B03F" stroke-width="1.8" stroke-linecap="round"/>
<path d="M54.5001 101V82C54.5001 79.2386 56.7387 77 59.5001 77H107C109.762 77 112 79.2386 112 82V101C112 103.761 109.762 106 107 106H59.5001C56.7387 106 54.5001 103.761 54.5001 101Z" stroke="#81B03F" stroke-width="1.8"/>
<path d="M56.5001 51C58.3335 51.6667 62.2001 54.1 63.0001 58.5M68.5001 52.5C67.0001 52.8333 64.0001 54.5 64.0001 58.5" stroke="#81B03F" stroke-width="1.8" stroke-linecap="round"/>
<path d="M61.5001 48C62.3335 49.5 63.9001 53.7 63.5001 58.5C63.9001 55.7 64.6668 50.6667 65.0001 48.5" stroke="#81B03F" stroke-width="1.8" stroke-linecap="round"/>
<path d="M55.5001 65.9998C55.9001 60.7998 61.0001 59.1665 63.5001 58.9998C66.7144 58.8391 72.7493 60.755 72.1002 69.5M72.0001 70.4998C72.043 70.157 72.0762 69.8238 72.1002 69.5M56.0001 64.5H63.0001M72.1002 69.5H65.0001M62.5 69.5H60.5001" stroke="#81B03F" stroke-width="1.8" stroke-linecap="round"/>
<mask id="path-12-inside-1_538_257" fill="white">
<path fill-rule="evenodd" clip-rule="evenodd" d="M54.7244 66.5509C55.2259 67.4559 55.3559 68.4054 55.1564 69.0469C55.1369 69.1096 55.13 69.1755 55.136 69.2409C55.1419 69.3063 55.1607 69.3699 55.1913 69.428C55.2218 69.4862 55.2635 69.5377 55.314 69.5797C55.3645 69.6217 55.4227 69.6534 55.4854 69.6729C55.5481 69.6924 55.6141 69.6993 55.6795 69.6934C55.7449 69.6874 55.8084 69.6686 55.8666 69.638C55.9247 69.6075 55.9762 69.5658 56.0183 69.5153C56.0603 69.4648 56.0919 69.4066 56.1114 69.3439C56.4159 68.3644 56.1879 67.1289 55.5989 66.0659C55.0024 64.9899 53.9959 64.0154 52.6364 63.5924C52.5737 63.5729 52.5078 63.5659 52.4424 63.5719C52.377 63.5779 52.3134 63.5967 52.2553 63.6272C52.1972 63.6578 52.1456 63.6995 52.1036 63.75C52.0616 63.8004 52.0299 63.8587 52.0104 63.9214C51.9909 63.9841 51.984 64.05 51.99 64.1154C51.9959 64.1808 52.0147 64.2444 52.0453 64.3025C52.0758 64.3607 52.1175 64.4122 52.168 64.4542C52.2185 64.4962 52.2767 64.5279 52.3394 64.5474C53.4109 64.8804 54.2294 65.6584 54.7244 66.5509Z"/>
</mask>
<path fill-rule="evenodd" clip-rule="evenodd" d="M54.7244 66.5509C55.2259 67.4559 55.3559 68.4054 55.1564 69.0469C55.1369 69.1096 55.13 69.1755 55.136 69.2409C55.1419 69.3063 55.1607 69.3699 55.1913 69.428C55.2218 69.4862 55.2635 69.5377 55.314 69.5797C55.3645 69.6217 55.4227 69.6534 55.4854 69.6729C55.5481 69.6924 55.6141 69.6993 55.6795 69.6934C55.7449 69.6874 55.8084 69.6686 55.8666 69.638C55.9247 69.6075 55.9762 69.5658 56.0183 69.5153C56.0603 69.4648 56.0919 69.4066 56.1114 69.3439C56.4159 68.3644 56.1879 67.1289 55.5989 66.0659C55.0024 64.9899 53.9959 64.0154 52.6364 63.5924C52.5737 63.5729 52.5078 63.5659 52.4424 63.5719C52.377 63.5779 52.3134 63.5967 52.2553 63.6272C52.1972 63.6578 52.1456 63.6995 52.1036 63.75C52.0616 63.8004 52.0299 63.8587 52.0104 63.9214C51.9909 63.9841 51.984 64.05 51.99 64.1154C51.9959 64.1808 52.0147 64.2444 52.0453 64.3025C52.0758 64.3607 52.1175 64.4122 52.168 64.4542C52.2185 64.4962 52.2767 64.5279 52.3394 64.5474C53.4109 64.8804 54.2294 65.6584 54.7244 66.5509Z" fill="black"/>
<path d="M54.7244 66.5509L56.2985 65.6778L56.2989 65.6784L54.7244 66.5509ZM55.1564 69.0469L56.8752 69.5814L56.8752 69.5814L55.1564 69.0469ZM56.1114 69.3439L57.8303 69.8782L57.8302 69.8784L56.1114 69.3439ZM55.5989 66.0659L57.1732 65.1932L57.1734 65.1935L55.5989 66.0659ZM52.6364 63.5924L53.171 61.8736L53.1712 61.8737L52.6364 63.5924ZM52.3394 64.5474L51.8052 66.2663L51.8049 66.2662L52.3394 64.5474ZM56.2989 65.6784C56.9581 66.868 57.2634 68.3331 56.8752 69.5814L53.4376 68.5124C53.4349 68.521 53.464 68.4159 53.4268 68.1875C53.3916 67.9715 53.3056 67.7041 53.15 67.4233L56.2989 65.6784ZM56.8752 69.5814C56.9259 69.4184 56.944 69.247 56.9285 69.077L53.3434 69.4048C53.3159 69.104 53.3479 68.8008 53.4376 68.5123L56.8752 69.5814ZM56.9285 69.077C56.9129 68.907 56.8641 68.7417 56.7846 68.5906L53.5979 70.2654C53.4574 69.998 53.3709 69.7056 53.3434 69.4048L56.9285 69.077ZM56.7846 68.5906C56.7052 68.4395 56.5968 68.3055 56.4656 68.1963L54.1624 70.9631C53.9303 70.7699 53.7384 70.5328 53.5979 70.2654L56.7846 68.5906ZM56.4656 68.1963C56.3344 68.0871 56.183 68.0048 56.02 67.9541L54.9509 71.3917C54.6625 71.302 54.3945 71.1564 54.1624 70.9631L56.4656 68.1963ZM56.02 67.9541C55.857 67.9034 55.6856 67.8853 55.5156 67.9008L55.8434 71.4859C55.5426 71.5134 55.2393 71.4814 54.9509 71.3917L56.02 67.9541ZM55.5156 67.9008C55.3456 67.9164 55.1803 67.9653 55.0292 68.0447L56.704 71.2314C56.4366 71.3719 56.1442 71.4584 55.8434 71.4859L55.5156 67.9008ZM55.0292 68.0447C54.8781 68.1241 54.7441 68.2325 54.6349 68.3637L57.4017 70.6669C57.2084 70.8991 56.9713 71.0909 56.704 71.2314L55.0292 68.0447ZM54.6349 68.3637C54.5256 68.4949 54.4433 68.6463 54.3926 68.8093L57.8302 69.8784C57.7405 70.1668 57.5949 70.4348 57.4017 70.6669L54.6349 68.3637ZM54.3926 68.8095C54.5079 68.4386 54.4571 67.719 54.0245 66.9383L57.1734 65.1935C57.9188 66.5387 58.324 68.2901 57.8303 69.8782L54.3926 68.8095ZM54.0247 66.9386C53.6109 66.1923 52.9425 65.5727 52.1017 65.3111L53.1712 61.8737C55.0494 62.458 56.3939 63.7875 57.1732 65.1932L54.0247 66.9386ZM52.1019 65.3112C52.2649 65.3619 52.4363 65.38 52.6063 65.3644L52.2785 61.7794C52.5793 61.7519 52.8826 61.7839 53.171 61.8736L52.1019 65.3112ZM52.6063 65.3644C52.7763 65.3489 52.9416 65.3 53.0927 65.2206L51.4179 62.0339C51.6853 61.8934 51.9777 61.8069 52.2785 61.7794L52.6063 65.3644ZM53.0927 65.2206C53.2438 65.1412 53.3778 65.0328 53.487 64.9016L50.7202 62.5984C50.9134 62.3662 51.1505 62.1744 51.4179 62.0339L53.0927 65.2206ZM53.487 64.9016C53.5962 64.7704 53.6785 64.6189 53.7292 64.4559L50.2916 63.3868C50.3813 63.0984 50.527 62.8305 50.7202 62.5984L53.487 64.9016ZM53.7292 64.4559C53.7799 64.2929 53.798 64.1215 53.7825 63.9515L50.1974 64.2793C50.1699 63.9785 50.2019 63.6753 50.2916 63.3868L53.7292 64.4559ZM53.7825 63.9515C53.7669 63.7815 53.7181 63.6162 53.6386 63.4651L50.4519 65.1399C50.3114 64.8726 50.2249 64.5801 50.1974 64.2793L53.7825 63.9515ZM53.6386 63.4651C53.5592 63.314 53.4508 63.18 53.3196 63.0708L51.0164 65.8376C50.7843 65.6444 50.5924 65.4073 50.4519 65.1399L53.6386 63.4651ZM53.3196 63.0708C53.1884 62.9616 53.037 62.8793 52.874 62.8286L51.8049 66.2662C51.5165 66.1765 51.2486 66.0309 51.0164 65.8376L53.3196 63.0708ZM52.8736 62.8285C54.4639 63.3227 55.6207 64.4556 56.2985 65.6778L53.1503 67.4239C52.8382 66.8612 52.3579 66.4381 51.8052 66.2663L52.8736 62.8285Z" fill="#81B03F" mask="url(#path-12-inside-1_538_257)"/>
<mask id="path-14-inside-2_538_257" fill="white">
<path fill-rule="evenodd" clip-rule="evenodd" d="M53.6899 67.1888C54.2739 68.0438 55.0639 68.5853 55.7264 68.6953C55.792 68.7051 55.855 68.7279 55.9118 68.7622C55.9685 68.7966 56.0178 68.8419 56.0569 68.8955C56.0959 68.9491 56.1239 69.01 56.1392 69.0745C56.1545 69.139 56.1568 69.206 56.146 69.2714C56.1352 69.3368 56.1115 69.3995 56.0762 69.4556C56.041 69.5118 55.9949 69.5604 55.9407 69.5986C55.8865 69.6368 55.8252 69.6639 55.7604 69.6781C55.6957 69.6924 55.6287 69.6937 55.5634 69.6818C54.5519 69.5143 53.5499 68.7563 52.8644 67.7528C52.1704 66.7368 51.7509 65.3998 51.9834 63.9953C51.9941 63.9305 52.0175 63.8685 52.0522 63.8127C52.0869 63.7569 52.1322 63.7085 52.1856 63.6703C52.239 63.632 52.2994 63.6046 52.3634 63.5897C52.4273 63.5748 52.4936 63.5726 52.5584 63.5833C52.6232 63.594 52.6853 63.6174 52.7411 63.6521C52.7969 63.6868 52.8453 63.7321 52.8835 63.7855C52.9218 63.8389 52.9491 63.8993 52.9641 63.9633C52.979 64.0273 52.9811 64.0935 52.9704 64.1583C52.7869 65.2653 53.1144 66.3458 53.6904 67.1883"/>
</mask>
<path fill-rule="evenodd" clip-rule="evenodd" d="M53.6899 67.1888C54.2739 68.0438 55.0639 68.5853 55.7264 68.6953C55.792 68.7051 55.855 68.7279 55.9118 68.7622C55.9685 68.7966 56.0178 68.8419 56.0569 68.8955C56.0959 68.9491 56.1239 69.01 56.1392 69.0745C56.1545 69.139 56.1568 69.206 56.146 69.2714C56.1352 69.3368 56.1115 69.3995 56.0762 69.4556C56.041 69.5118 55.9949 69.5604 55.9407 69.5986C55.8865 69.6368 55.8252 69.6639 55.7604 69.6781C55.6957 69.6924 55.6287 69.6937 55.5634 69.6818C54.5519 69.5143 53.5499 68.7563 52.8644 67.7528C52.1704 66.7368 51.7509 65.3998 51.9834 63.9953C51.9941 63.9305 52.0175 63.8685 52.0522 63.8127C52.0869 63.7569 52.1322 63.7085 52.1856 63.6703C52.239 63.632 52.2994 63.6046 52.3634 63.5897C52.4273 63.5748 52.4936 63.5726 52.5584 63.5833C52.6232 63.594 52.6853 63.6174 52.7411 63.6521C52.7969 63.6868 52.8453 63.7321 52.8835 63.7855C52.9218 63.8389 52.9491 63.8993 52.9641 63.9633C52.979 64.0273 52.9811 64.0935 52.9704 64.1583C52.7869 65.2653 53.1144 66.3458 53.6904 67.1883" fill="black"/>
<path d="M55.7264 68.6953L55.461 70.4757L55.4463 70.4735L55.4316 70.471L55.7264 68.6953ZM55.5634 69.6818L55.8575 67.906L55.8712 67.9083L55.8848 67.9108L55.5634 69.6818ZM52.8644 67.7528L51.3781 68.7682L51.3781 68.7681L52.8644 67.7528ZM51.9834 63.9953L53.7594 64.2886L53.7593 64.2893L51.9834 63.9953ZM52.9704 64.1583L54.7464 64.4516L54.7462 64.4527L52.9704 64.1583ZM55.1763 66.1736C55.3574 66.4388 55.5578 66.6356 55.7349 66.7639C55.9221 66.8995 56.0294 66.921 56.0213 66.9197L55.4316 70.471C54.1436 70.2572 52.9717 69.3286 52.2036 68.2041L55.1763 66.1736ZM55.9918 66.915C56.2936 66.96 56.5834 67.0646 56.8443 67.2226L54.9792 70.3018C55.1267 70.3911 55.2905 70.4502 55.461 70.4757L55.9918 66.915ZM56.8443 67.2226C57.1053 67.3807 57.3322 67.5891 57.5118 67.8357L54.6019 69.9553C54.7034 70.0947 54.8317 70.2125 54.9792 70.3018L56.8443 67.2226ZM57.5118 67.8357C57.6914 68.0823 57.8202 68.3622 57.8906 68.6591L54.3878 69.4899C54.4276 69.6577 54.5004 69.8159 54.6019 69.9553L57.5118 67.8357ZM57.8906 68.6591C57.961 68.9559 57.9717 69.2638 57.9219 69.5648L54.3701 68.978C54.342 69.1481 54.348 69.3221 54.3878 69.4899L57.8906 68.6591ZM57.9219 69.5648C57.8722 69.8659 57.7631 70.154 57.6009 70.4124L54.5515 68.4989C54.4599 68.645 54.3982 68.8078 54.3701 68.978L57.9219 69.5648ZM57.6009 70.4124C57.4388 70.6708 57.2268 70.8944 56.9774 71.0701L54.904 68.1271C54.763 68.2265 54.6432 68.3528 54.5515 68.4989L57.6009 70.4124ZM56.9774 71.0701C56.728 71.2458 56.4461 71.3702 56.1482 71.4359L55.3727 67.9204C55.2043 67.9575 55.0449 68.0278 54.904 68.1271L56.9774 71.0701ZM56.1482 71.4359C55.8502 71.5016 55.5422 71.5074 55.242 71.4529L55.8848 67.9108C55.7152 67.88 55.5411 67.8833 55.3727 67.9204L56.1482 71.4359ZM55.2694 71.4577C53.6294 71.1861 52.2459 70.0385 51.3781 68.7682L54.3507 66.7375C54.854 67.4742 55.4745 67.8426 55.8575 67.906L55.2694 71.4577ZM51.3781 68.7681C50.4716 67.4411 49.8863 65.6424 50.2076 63.7014L53.7593 64.2893C53.6156 65.1573 53.8692 66.0326 54.3508 66.7376L51.3781 68.7681ZM50.2075 63.7021C50.2567 63.404 50.3641 63.1186 50.5237 62.8621L53.5807 64.7633C53.6708 64.6183 53.7316 64.4571 53.7594 64.2886L50.2075 63.7021ZM50.5237 62.8621C50.6832 62.6056 50.8917 62.383 51.1372 62.2071L53.234 65.1334C53.3728 65.034 53.4906 64.9082 53.5807 64.7633L50.5237 62.8621ZM51.1372 62.2071C51.3828 62.0311 51.6605 61.9053 51.9547 61.8367L52.772 65.3427C52.9383 65.304 53.0952 65.2329 53.234 65.1334L51.1372 62.2071ZM51.9547 61.8367C52.2489 61.7681 52.5537 61.7582 52.8517 61.8074L52.2651 65.3593C52.4336 65.3871 52.6058 65.3815 52.772 65.3427L51.9547 61.8367ZM52.8517 61.8074C53.1498 61.8566 53.4352 61.9641 53.6917 62.1236L51.7905 65.1806C51.9354 65.2708 52.0967 65.3315 52.2651 65.3593L52.8517 61.8074ZM53.6917 62.1236C53.9482 62.2831 54.1708 62.4916 54.3467 62.7371L51.4203 64.8339C51.5198 64.9727 51.6455 65.0905 51.7905 65.1806L53.6917 62.1236ZM54.3467 62.7371C54.5226 62.9827 54.6485 63.2604 54.717 63.5546L51.2111 64.3719C51.2498 64.5382 51.3209 64.6952 51.4203 64.8339L54.3467 62.7371ZM54.717 63.5546C54.7856 63.8488 54.7956 64.1536 54.7464 64.4516L51.1945 63.8651C51.1667 64.0335 51.1723 64.2057 51.2111 64.3719L54.717 63.5546ZM54.7462 64.4527C54.6515 65.024 54.814 65.6424 55.1764 66.1725L52.2045 68.2042C51.4149 67.0493 50.9224 65.5067 51.1947 63.864L54.7462 64.4527Z" fill="#81B03F" mask="url(#path-14-inside-2_538_257)"/>
<mask id="path-16-inside-3_538_257" fill="white">
<path fill-rule="evenodd" clip-rule="evenodd" d="M55.1594 69.9993C55.4909 69.9993 55.8089 70.131 56.0433 70.3654C56.2777 70.5998 56.4094 70.9177 56.4094 71.2493C56.4094 71.5808 56.2777 71.8987 56.0433 72.1332C55.8089 72.3676 55.4909 72.4993 55.1594 72.4993C54.8279 72.4993 54.51 72.3676 54.2755 72.1332C54.0411 71.8987 53.9094 71.5808 53.9094 71.2493C53.9094 70.9177 54.0411 70.5998 54.2755 70.3654C54.51 70.131 54.8279 69.9993 55.1594 69.9993ZM57.4094 71.2493C57.4094 70.9538 57.3512 70.6612 57.2382 70.3882C57.1251 70.1152 56.9593 69.8672 56.7504 69.6583C56.5415 69.4493 56.2934 69.2836 56.0205 69.1705C55.7475 69.0575 55.4549 68.9993 55.1594 68.9993C54.8639 68.9993 54.5714 69.0575 54.2984 69.1705C54.0254 69.2836 53.7774 69.4493 53.5684 69.6583C53.3595 69.8672 53.1938 70.1152 53.0807 70.3882C52.9676 70.6612 52.9094 70.9538 52.9094 71.2493C52.9094 71.846 53.1465 72.4183 53.5684 72.8403C53.9904 73.2622 54.5627 73.4993 55.1594 73.4993C55.7562 73.4993 56.3285 73.2622 56.7504 72.8403C57.1724 72.4183 57.4094 71.846 57.4094 71.2493Z"/>
</mask>
<path fill-rule="evenodd" clip-rule="evenodd" d="M55.1594 69.9993C55.4909 69.9993 55.8089 70.131 56.0433 70.3654C56.2777 70.5998 56.4094 70.9177 56.4094 71.2493C56.4094 71.5808 56.2777 71.8987 56.0433 72.1332C55.8089 72.3676 55.4909 72.4993 55.1594 72.4993C54.8279 72.4993 54.51 72.3676 54.2755 72.1332C54.0411 71.8987 53.9094 71.5808 53.9094 71.2493C53.9094 70.9177 54.0411 70.5998 54.2755 70.3654C54.51 70.131 54.8279 69.9993 55.1594 69.9993ZM57.4094 71.2493C57.4094 70.9538 57.3512 70.6612 57.2382 70.3882C57.1251 70.1152 56.9593 69.8672 56.7504 69.6583C56.5415 69.4493 56.2934 69.2836 56.0205 69.1705C55.7475 69.0575 55.4549 68.9993 55.1594 68.9993C54.8639 68.9993 54.5714 69.0575 54.2984 69.1705C54.0254 69.2836 53.7774 69.4493 53.5684 69.6583C53.3595 69.8672 53.1938 70.1152 53.0807 70.3882C52.9676 70.6612 52.9094 70.9538 52.9094 71.2493C52.9094 71.846 53.1465 72.4183 53.5684 72.8403C53.9904 73.2622 54.5627 73.4993 55.1594 73.4993C55.7562 73.4993 56.3285 73.2622 56.7504 72.8403C57.1724 72.4183 57.4094 71.846 57.4094 71.2493Z" fill="black"/>
<path d="M55.1594 69.9993L55.1594 68.1993L55.1594 69.9993ZM55.1594 72.4993V74.2993V72.4993ZM57.4094 71.2493L55.6094 71.2493L57.4094 71.2493ZM52.9094 71.2493L51.1094 71.2493L52.9094 71.2493ZM55.1594 68.1993C55.9683 68.1993 56.7441 68.5206 57.3161 69.0926L54.7705 71.6382C54.8737 71.7413 55.0136 71.7993 55.1594 71.7993L55.1594 68.1993ZM57.3161 69.0926C57.8881 69.6646 58.2094 70.4404 58.2094 71.2493H54.6094C54.6094 71.3951 54.6674 71.535 54.7705 71.6382L57.3161 69.0926ZM58.2094 71.2493C58.2094 72.0582 57.8881 72.834 57.3161 73.4059L54.7705 70.8604C54.6674 70.9635 54.6094 71.1034 54.6094 71.2493H58.2094ZM57.3161 73.4059C56.7441 73.9779 55.9683 74.2993 55.1594 74.2993L55.1594 70.6993C55.0136 70.6993 54.8737 70.7572 54.7705 70.8604L57.3161 73.4059ZM55.1594 74.2993C54.3505 74.2993 53.5747 73.9779 53.0027 73.4059L55.5483 70.8604C55.4452 70.7572 55.3053 70.6993 55.1594 70.6993V74.2993ZM53.0027 73.4059C52.4308 72.834 52.1094 72.0582 52.1094 71.2493H55.7094C55.7094 71.1034 55.6515 70.9635 55.5483 70.8604L53.0027 73.4059ZM52.1094 71.2493C52.1094 70.4404 52.4308 69.6646 53.0027 69.0926L55.5483 71.6382C55.6515 71.535 55.7094 71.3951 55.7094 71.2493H52.1094ZM53.0027 69.0926C53.5747 68.5206 54.3505 68.1993 55.1594 68.1993V71.7993C55.3053 71.7993 55.4452 71.7413 55.5483 71.6382L53.0027 69.0926ZM55.6094 71.2493C55.6094 71.1902 55.5978 71.1317 55.5752 71.0771L58.9011 69.6994C59.1047 70.1908 59.2094 70.7174 59.2094 71.2493L55.6094 71.2493ZM55.5752 71.0771C55.5526 71.0225 55.5194 70.9729 55.4776 70.9311L58.0232 68.3855C58.3993 68.7616 58.6976 69.208 58.9011 69.6994L55.5752 71.0771ZM55.4776 70.9311C55.4358 70.8893 55.3862 70.8561 55.3316 70.8335L56.7093 67.5076C57.2007 67.7111 57.6471 68.0094 58.0232 68.3855L55.4776 70.9311ZM55.3316 70.8335C55.277 70.8109 55.2185 70.7993 55.1594 70.7993V67.1993C55.6913 67.1993 56.2179 67.304 56.7093 67.5076L55.3316 70.8335ZM55.1594 70.7993C55.1003 70.7993 55.0418 70.8109 54.9872 70.8335L53.6096 67.5076C54.1009 67.304 54.6276 67.1993 55.1594 67.1993V70.7993ZM54.9872 70.8335C54.9326 70.8561 54.883 70.8893 54.8412 70.9311L52.2956 68.3855C52.6717 68.0094 53.1182 67.7111 53.6096 67.5076L54.9872 70.8335ZM54.8412 70.9311C54.7994 70.9729 54.7663 71.0225 54.7437 71.0771L51.4177 69.6994C51.6212 69.208 51.9196 68.7616 52.2956 68.3855L54.8412 70.9311ZM54.7437 71.0771C54.7211 71.1317 54.7094 71.1902 54.7094 71.2493L51.1094 71.2493C51.1094 70.7174 51.2142 70.1908 51.4177 69.6994L54.7437 71.0771ZM54.7094 71.2493C54.7094 71.3686 54.7568 71.4831 54.8412 71.5675L52.2956 74.113C51.5361 73.3535 51.1094 72.3234 51.1094 71.2493L54.7094 71.2493ZM54.8412 71.5675C54.9256 71.6519 55.0401 71.6993 55.1594 71.6993V75.2993C54.0853 75.2993 53.0552 74.8726 52.2956 74.113L54.8412 71.5675ZM55.1594 71.6993C55.2788 71.6993 55.3932 71.6519 55.4776 71.5675L58.0232 74.113C57.2637 74.8726 56.2336 75.2993 55.1594 75.2993V71.6993ZM55.4776 71.5675C55.562 71.4831 55.6094 71.3686 55.6094 71.2493L59.2094 71.2493C59.2094 72.3234 58.7827 73.3535 58.0232 74.113L55.4776 71.5675Z" fill="#81B03F" mask="url(#path-16-inside-3_538_257)"/>
<mask id="path-18-inside-4_538_257" fill="white">
<path fill-rule="evenodd" clip-rule="evenodd" d="M52.1269 67.5443C51.5653 67.7458 51.1067 68.1622 50.852 68.7018C50.5973 69.2414 50.5674 69.8601 50.7689 70.4218C50.7911 70.4836 50.8252 70.5405 50.8693 70.5891C50.9135 70.6377 50.9667 70.6772 51.0261 70.7052C51.0855 70.7333 51.1498 70.7494 51.2154 70.7525C51.281 70.7557 51.3466 70.746 51.4084 70.7238C51.4702 70.7016 51.5271 70.6675 51.5757 70.6234C51.6243 70.5793 51.6638 70.526 51.6919 70.4666C51.7199 70.4072 51.736 70.3429 51.7392 70.2773C51.7423 70.2117 51.7326 70.1461 51.7104 70.0843C51.5984 69.7723 51.6148 69.4285 51.7562 69.1286C51.8976 68.8288 52.1524 68.5974 52.4644 68.4853C52.7764 68.3732 53.1202 68.3897 53.4201 68.5311C53.7199 68.6725 53.9514 68.9273 54.0634 69.2393C54.0844 69.3026 54.1178 69.3611 54.1617 69.4113C54.2056 69.4615 54.2591 69.5025 54.3191 69.5317C54.379 69.5609 54.4442 69.5778 54.5108 69.5815C54.5774 69.5851 54.6441 69.5754 54.7069 69.5528C54.7697 69.5303 54.8273 69.4955 54.8764 69.4503C54.9255 69.4052 54.9651 69.3507 54.9928 69.29C55.0206 69.2294 55.0359 69.1638 55.0379 69.0971C55.0398 69.0304 55.0285 68.964 55.0044 68.9018C54.8028 68.3402 54.3864 67.8818 53.8468 67.6272C53.3071 67.3726 52.6885 67.3428 52.1269 67.5443Z"/>
</mask>
<path fill-rule="evenodd" clip-rule="evenodd" d="M52.1269 67.5443C51.5653 67.7458 51.1067 68.1622 50.852 68.7018C50.5973 69.2414 50.5674 69.8601 50.7689 70.4218C50.7911 70.4836 50.8252 70.5405 50.8693 70.5891C50.9135 70.6377 50.9667 70.6772 51.0261 70.7052C51.0855 70.7333 51.1498 70.7494 51.2154 70.7525C51.281 70.7557 51.3466 70.746 51.4084 70.7238C51.4702 70.7016 51.5271 70.6675 51.5757 70.6234C51.6243 70.5793 51.6638 70.526 51.6919 70.4666C51.7199 70.4072 51.736 70.3429 51.7392 70.2773C51.7423 70.2117 51.7326 70.1461 51.7104 70.0843C51.5984 69.7723 51.6148 69.4285 51.7562 69.1286C51.8976 68.8288 52.1524 68.5974 52.4644 68.4853C52.7764 68.3732 53.1202 68.3897 53.4201 68.5311C53.7199 68.6725 53.9514 68.9273 54.0634 69.2393C54.0844 69.3026 54.1178 69.3611 54.1617 69.4113C54.2056 69.4615 54.2591 69.5025 54.3191 69.5317C54.379 69.5609 54.4442 69.5778 54.5108 69.5815C54.5774 69.5851 54.6441 69.5754 54.7069 69.5528C54.7697 69.5303 54.8273 69.4955 54.8764 69.4503C54.9255 69.4052 54.9651 69.3507 54.9928 69.29C55.0206 69.2294 55.0359 69.1638 55.0379 69.0971C55.0398 69.0304 55.0285 68.964 55.0044 68.9018C54.8028 68.3402 54.3864 67.8818 53.8468 67.6272C53.3071 67.3726 52.6885 67.3428 52.1269 67.5443Z" fill="black"/>
<path d="M52.1269 67.5443L51.519 65.8501L51.519 65.8501L52.1269 67.5443ZM50.7689 70.4218L52.4632 69.814L52.4633 69.8144L50.7689 70.4218ZM51.7104 70.0843L53.4045 69.4759L53.4048 69.4769L51.7104 70.0843ZM54.0634 69.2393L55.7575 68.6309L55.7651 68.6522L55.7723 68.6737L54.0634 69.2393ZM55.0044 68.9018L53.3257 69.5512L53.3177 69.5307L53.3103 69.51L55.0044 68.9018ZM52.7348 69.2385C52.6225 69.2788 52.5308 69.3621 52.4798 69.47L49.2242 67.9336C49.6826 66.9623 50.508 66.2128 51.519 65.8501L52.7348 69.2385ZM52.4798 69.47C52.4289 69.578 52.4229 69.7017 52.4632 69.814L49.0746 71.0296C48.712 70.0186 48.7658 68.9049 49.2242 67.9336L52.4798 69.47ZM52.4633 69.8144C52.4057 69.6537 52.317 69.5059 52.2023 69.3795L49.5363 71.7987C49.3334 71.575 49.1764 71.3135 49.0745 71.0292L52.4633 69.8144ZM52.2023 69.3795C52.0876 69.2531 51.9491 69.1505 51.7948 69.0776L50.2575 72.3329C49.9843 72.2039 49.7393 72.0224 49.5363 71.7987L52.2023 69.3795ZM51.7948 69.0776C51.6404 69.0047 51.4732 68.9629 51.3027 68.9547L51.1282 72.5504C50.8265 72.5358 50.5306 72.4619 50.2575 72.3329L51.7948 69.0776ZM51.3027 68.9547C51.1322 68.9464 50.9617 68.9718 50.801 69.0294L52.0158 72.4182C51.7315 72.5201 51.4299 72.5651 51.1282 72.5504L51.3027 68.9547ZM50.801 69.0294C50.6403 69.087 50.4925 69.1757 50.3661 69.2904L52.7853 71.9564C52.5616 72.1594 52.3001 72.3163 52.0158 72.4182L50.801 69.0294ZM50.3661 69.2904C50.2397 69.4051 50.1371 69.5436 50.0642 69.698L53.3195 71.2352C53.1905 71.5084 53.009 71.7534 52.7853 71.9564L50.3661 69.2904ZM50.0642 69.698C49.9913 69.8523 49.9495 70.0195 49.9413 70.19L53.537 70.3646C53.5224 70.6663 53.4485 70.9621 53.3195 71.2352L50.0642 69.698ZM49.9413 70.19C49.933 70.3606 49.9584 70.531 50.016 70.6917L53.4048 69.4769C53.5067 69.7612 53.5517 70.0628 53.537 70.3646L49.9413 70.19ZM50.0163 70.6927C49.7429 69.9313 49.7832 69.0926 50.1282 68.3609L53.3843 69.8963C53.4465 69.7644 53.4538 69.6132 53.4045 69.4759L50.0163 70.6927ZM50.1282 68.3609C50.4732 67.6293 51.0947 67.0646 51.856 66.7912L53.0728 70.1794C53.21 70.1301 53.3221 70.0283 53.3843 69.8963L50.1282 68.3609ZM51.856 66.7912C52.6174 66.5178 53.4561 66.5581 54.1878 66.9031L52.6524 70.1592C52.7843 70.2214 52.9355 70.2287 53.0728 70.1794L51.856 66.7912ZM54.1878 66.9031C54.9194 67.2481 55.4841 67.8696 55.7575 68.6309L52.3693 69.8477C52.4186 69.9849 52.5204 70.097 52.6524 70.1592L54.1878 66.9031ZM55.7723 68.6737C55.7178 68.5091 55.6309 68.357 55.5167 68.2265L52.8067 70.5962C52.6047 70.3652 52.451 70.0961 52.3546 69.8049L55.7723 68.6737ZM55.5167 68.2265C55.4026 68.0959 55.2634 67.9895 55.1075 67.9136L53.5306 71.1498C53.2548 71.0154 53.0086 70.8272 52.8067 70.5962L55.5167 68.2265ZM55.1075 67.9136C54.9516 67.8376 54.7821 67.7936 54.6089 67.7841L54.4128 71.3788C54.1064 71.3621 53.8065 71.2842 53.5306 71.1498L55.1075 67.9136ZM54.6089 67.7841C54.4358 67.7747 54.2624 67.8 54.0992 67.8585L55.3146 71.2472C55.0258 71.3507 54.7191 71.3955 54.4128 71.3788L54.6089 67.7841ZM54.0992 67.8585C53.936 67.9171 53.7861 68.0077 53.6584 68.1251L56.0945 70.7756C55.8685 70.9833 55.6034 71.1436 55.3146 71.2472L54.0992 67.8585ZM53.6584 68.1251C53.5307 68.2424 53.4278 68.3842 53.3557 68.5419L56.63 70.0382C56.5025 70.3172 56.3204 70.568 56.0945 70.7756L53.6584 68.1251ZM53.3557 68.5419C53.2836 68.6996 53.2438 68.8702 53.2387 69.0435L56.8371 69.1506C56.8279 69.4573 56.7575 69.7591 56.63 70.0382L53.3557 68.5419ZM53.2387 69.0435C53.2335 69.2169 53.2631 69.3895 53.3257 69.5512L56.6832 68.2524C56.7939 68.5385 56.8462 68.844 56.8371 69.1506L53.2387 69.0435ZM53.3103 69.51C53.27 69.3977 53.1867 69.306 53.0788 69.2551L54.6148 65.9993C55.5861 66.4575 56.3356 67.2827 56.6985 68.2936L53.3103 69.51ZM53.0788 69.2551C52.9708 69.2042 52.8471 69.1982 52.7348 69.2385L51.519 65.8501C52.5299 65.4874 53.6435 65.541 54.6148 65.9993L53.0788 69.2551Z" fill="#81B03F" mask="url(#path-18-inside-4_538_257)"/>
<mask id="path-20-inside-5_538_257" fill="white">
<path fill-rule="evenodd" clip-rule="evenodd" d="M52.9229 70.0875C52.411 69.9407 51.8637 69.9801 51.3781 70.1988C50.8926 70.4175 50.5004 70.8013 50.2711 71.282C50.0419 71.7626 49.9905 72.309 50.1262 72.824C50.2618 73.3389 50.5757 73.7891 51.0119 74.0945C51.1207 74.1671 51.2537 74.1942 51.3823 74.17C51.5108 74.1457 51.6248 74.072 51.6996 73.9647C51.7745 73.8574 51.8043 73.725 51.7827 73.596C51.761 73.4669 51.6897 73.3515 51.5839 73.2745C51.4463 73.1782 51.3295 73.0553 51.2405 72.9129C51.1515 72.7706 51.092 72.6117 51.0657 72.4459C51.0394 72.2801 51.0468 72.1106 51.0874 71.9477C51.1281 71.7848 51.2011 71.6317 51.3022 71.4976C51.4032 71.3636 51.5303 71.2512 51.6757 71.1673C51.8212 71.0834 51.9821 71.0297 52.1487 71.0093C52.3154 70.989 52.4844 71.0024 52.6458 71.0488C52.8072 71.0952 52.9575 71.1737 53.0879 71.2795C53.1389 71.3209 53.1975 71.3519 53.2604 71.3707C53.3234 71.3895 53.3894 71.3957 53.4547 71.3889C53.52 71.3822 53.5834 71.3627 53.6412 71.3314C53.6989 71.3002 53.75 71.2579 53.7914 71.207C53.8329 71.156 53.8638 71.0974 53.8826 71.0345C53.9014 70.9715 53.9076 70.9055 53.9009 70.8402C53.8941 70.7749 53.8746 70.7115 53.8434 70.6537C53.8122 70.596 53.7699 70.5449 53.7189 70.5035C53.4842 70.3127 53.2135 70.1712 52.9229 70.0875ZM57.1594 72.9995C57.4909 72.9995 57.8089 73.1312 58.0433 73.3656C58.2777 73.6 58.4094 73.918 58.4094 74.2495C58.4094 74.581 58.2777 74.8989 58.0433 75.1334C57.8089 75.3678 57.4909 75.4995 57.1594 75.4995C56.8279 75.4995 56.51 75.3678 56.2755 75.1334C56.0411 74.8989 55.9094 74.581 55.9094 74.2495C55.9094 73.918 56.0411 73.6 56.2755 73.3656C56.51 73.1312 56.8279 72.9995 57.1594 72.9995ZM59.4094 74.2495C59.4094 73.6527 59.1724 73.0804 58.7504 72.6585C58.3285 72.2365 57.7562 71.9995 57.1594 71.9995C56.5627 71.9995 55.9904 72.2365 55.5684 72.6585C55.1465 73.0804 54.9094 73.6527 54.9094 74.2495C54.9094 74.8462 55.1465 75.4185 55.5684 75.8405C55.9904 76.2624 56.5627 76.4995 57.1594 76.4995C57.7562 76.4995 58.3285 76.2624 58.7504 75.8405C59.1724 75.4185 59.4094 74.8462 59.4094 74.2495Z"/>
</mask>
<path fill-rule="evenodd" clip-rule="evenodd" d="M52.9229 70.0875C52.411 69.9407 51.8637 69.9801 51.3781 70.1988C50.8926 70.4175 50.5004 70.8013 50.2711 71.282C50.0419 71.7626 49.9905 72.309 50.1262 72.824C50.2618 73.3389 50.5757 73.7891 51.0119 74.0945C51.1207 74.1671 51.2537 74.1942 51.3823 74.17C51.5108 74.1457 51.6248 74.072 51.6996 73.9647C51.7745 73.8574 51.8043 73.725 51.7827 73.596C51.761 73.4669 51.6897 73.3515 51.5839 73.2745C51.4463 73.1782 51.3295 73.0553 51.2405 72.9129C51.1515 72.7706 51.092 72.6117 51.0657 72.4459C51.0394 72.2801 51.0468 72.1106 51.0874 71.9477C51.1281 71.7848 51.2011 71.6317 51.3022 71.4976C51.4032 71.3636 51.5303 71.2512 51.6757 71.1673C51.8212 71.0834 51.9821 71.0297 52.1487 71.0093C52.3154 70.989 52.4844 71.0024 52.6458 71.0488C52.8072 71.0952 52.9575 71.1737 53.0879 71.2795C53.1389 71.3209 53.1975 71.3519 53.2604 71.3707C53.3234 71.3895 53.3894 71.3957 53.4547 71.3889C53.52 71.3822 53.5834 71.3627 53.6412 71.3314C53.6989 71.3002 53.75 71.2579 53.7914 71.207C53.8329 71.156 53.8638 71.0974 53.8826 71.0345C53.9014 70.9715 53.9076 70.9055 53.9009 70.8402C53.8941 70.7749 53.8746 70.7115 53.8434 70.6537C53.8122 70.596 53.7699 70.5449 53.7189 70.5035C53.4842 70.3127 53.2135 70.1712 52.9229 70.0875ZM57.1594 72.9995C57.4909 72.9995 57.8089 73.1312 58.0433 73.3656C58.2777 73.6 58.4094 73.918 58.4094 74.2495C58.4094 74.581 58.2777 74.8989 58.0433 75.1334C57.8089 75.3678 57.4909 75.4995 57.1594 75.4995C56.8279 75.4995 56.51 75.3678 56.2755 75.1334C56.0411 74.8989 55.9094 74.581 55.9094 74.2495C55.9094 73.918 56.0411 73.6 56.2755 73.3656C56.51 73.1312 56.8279 72.9995 57.1594 72.9995ZM59.4094 74.2495C59.4094 73.6527 59.1724 73.0804 58.7504 72.6585C58.3285 72.2365 57.7562 71.9995 57.1594 71.9995C56.5627 71.9995 55.9904 72.2365 55.5684 72.6585C55.1465 73.0804 54.9094 73.6527 54.9094 74.2495C54.9094 74.8462 55.1465 75.4185 55.5684 75.8405C55.9904 76.2624 56.5627 76.4995 57.1594 76.4995C57.7562 76.4995 58.3285 76.2624 58.7504 75.8405C59.1724 75.4185 59.4094 74.8462 59.4094 74.2495Z" fill="black"/>
<path d="M52.9229 70.0875L53.4192 68.3572L53.4215 68.3579L52.9229 70.0875ZM51.0119 74.0945L50.0124 75.5915L49.996 75.5805L49.9797 75.5691L51.0119 74.0945ZM51.5839 73.2745L52.6155 71.7994L52.6297 71.8093L52.6436 71.8195L51.5839 73.2745ZM53.0879 71.2795L54.2221 69.8817L54.2235 69.8829L53.0879 71.2795ZM53.7189 70.5035L54.8543 69.1067L54.8545 69.1069L53.7189 70.5035ZM57.1594 72.9995L57.1594 71.1995L57.1594 72.9995ZM57.1594 75.4995L57.1594 73.6995L57.1594 75.4995ZM59.4094 74.2495H57.6094H59.4094ZM52.4266 71.8177C52.3242 71.7883 52.2146 71.7962 52.1174 71.84L50.6389 68.5576C51.5128 68.164 52.4979 68.093 53.4192 68.3572L52.4266 71.8177ZM52.1174 71.84C52.0202 71.8838 51.9417 71.9606 51.8958 72.0568L48.6464 70.5071C49.059 69.642 49.765 68.9513 50.6389 68.5576L52.1174 71.84ZM51.8958 72.0568C51.8499 72.153 51.8396 72.2624 51.8668 72.3655L48.3855 73.2825C48.1414 72.3556 48.2338 71.3722 48.6464 70.5071L51.8958 72.0568ZM51.8668 72.3655C51.8939 72.4686 51.9568 72.5587 52.0441 72.6198L49.9797 75.5691C49.1945 75.0195 48.6297 74.2093 48.3855 73.2825L51.8668 72.3655ZM52.0114 72.5975C51.7285 72.4086 51.3828 72.3381 51.0485 72.4012L51.7161 75.9388C51.1246 76.0504 50.513 75.9257 50.0124 75.5915L52.0114 72.5975ZM51.0485 72.4012C50.7142 72.4643 50.418 72.6559 50.2233 72.9349L53.176 74.9945C52.8316 75.4882 52.3075 75.8271 51.7161 75.9388L51.0485 72.4012ZM50.2233 72.9349C50.0287 73.2139 49.9512 73.5581 50.0075 73.8936L53.5579 73.2983C53.6574 73.8919 53.5203 74.5009 53.176 74.9945L50.2233 72.9349ZM50.0075 73.8936C50.0637 74.2291 50.2492 74.5292 50.5242 74.7295L52.6436 71.8195C53.1302 72.1738 53.4584 72.7047 53.5579 73.2983L50.0075 73.8936ZM50.5523 74.7495C50.2166 74.5147 49.9316 74.2147 49.7144 73.8674L52.7666 71.9585C52.7274 71.8959 52.6761 71.8417 52.6155 71.7994L50.5523 74.7495ZM49.7144 73.8674C49.4971 73.52 49.3521 73.1324 49.2879 72.7278L52.8435 72.164C52.8319 72.091 52.8058 72.0211 52.7666 71.9585L49.7144 73.8674ZM49.2879 72.7278C49.2238 72.3232 49.2418 71.9097 49.3409 71.5122L52.834 72.3832C52.8518 72.3115 52.8551 72.237 52.8435 72.164L49.2879 72.7278ZM49.3409 71.5122C49.44 71.1147 49.6182 70.7412 49.8649 70.4141L52.7395 72.5812C52.784 72.5222 52.8161 72.4549 52.834 72.3832L49.3409 71.5122ZM49.8649 70.4141C50.1115 70.0869 50.4215 69.8128 50.7764 69.6081L52.5751 72.7265C52.6391 72.6896 52.695 72.6402 52.7395 72.5812L49.8649 70.4141ZM50.7764 69.6081C51.1313 69.4034 51.5238 69.2723 51.9304 69.2226L52.367 72.7961C52.4403 72.7871 52.5111 72.7635 52.5751 72.7265L50.7764 69.6081ZM51.9304 69.2226C52.3371 69.1729 52.7496 69.2057 53.1433 69.3189L52.1483 72.7787C52.2193 72.7991 52.2937 72.805 52.367 72.7961L51.9304 69.2226ZM53.1433 69.3189C53.5371 69.4322 53.904 69.6236 54.2221 69.8817L51.9538 72.6772C52.0111 72.7238 52.0773 72.7583 52.1483 72.7787L53.1433 69.3189ZM54.2235 69.8829C54.0911 69.7752 53.9387 69.6947 53.7751 69.6458L52.7457 73.0955C52.4563 73.0091 52.1867 72.8666 51.9523 72.676L54.2235 69.8829ZM53.7751 69.6458C53.6116 69.597 53.44 69.5809 53.2702 69.5984L53.6392 73.1794C53.3387 73.2104 53.0351 73.1819 52.7457 73.0955L53.7751 69.6458ZM53.2702 69.5984C53.1003 69.6159 52.9357 69.6667 52.7855 69.7478L54.4968 72.915C54.2311 73.0586 53.9397 73.1485 53.6392 73.1794L53.2702 69.5984ZM52.7855 69.7478C52.6353 69.829 52.5026 69.9389 52.3949 70.0714L55.188 72.3426C54.9974 72.5769 54.7626 72.7715 54.4968 72.915L52.7855 69.7478ZM52.3949 70.0714C52.2872 70.2038 52.2066 70.3562 52.1578 70.5198L55.6075 71.5492C55.5211 71.8386 55.3786 72.1082 55.188 72.3426L52.3949 70.0714ZM52.1578 70.5198C52.109 70.6833 52.0929 70.8549 52.1104 71.0247L55.6914 70.6557C55.7224 70.9561 55.6938 71.2598 55.6075 71.5492L52.1578 70.5198ZM52.1104 71.0247C52.1279 71.1946 52.1786 71.3593 52.2598 71.5094L55.427 69.7981C55.5706 70.0638 55.6604 70.3552 55.6914 70.6557L52.1104 71.0247ZM52.2598 71.5094C52.3409 71.6596 52.4509 71.7923 52.5833 71.9L54.8545 69.1069C55.0889 69.2975 55.2834 69.5323 55.427 69.7981L52.2598 71.5094ZM52.5836 71.9003C52.5366 71.8621 52.4825 71.8338 52.4244 71.8171L53.4215 68.3579C53.9445 68.5087 54.4318 68.7633 54.8543 69.1067L52.5836 71.9003ZM57.1594 71.1995C57.9683 71.1995 58.7441 71.5208 59.3161 72.0928L56.7705 74.6384C56.8737 74.7415 57.0136 74.7995 57.1594 74.7995L57.1594 71.1995ZM59.3161 72.0928C59.8881 72.6648 60.2094 73.4406 60.2094 74.2495H56.6094C56.6094 74.3953 56.6674 74.5352 56.7705 74.6384L59.3161 72.0928ZM60.2094 74.2495C60.2094 75.0584 59.8881 75.8342 59.3161 76.4062L56.7705 73.8606C56.6674 73.9637 56.6094 74.1036 56.6094 74.2495H60.2094ZM59.3161 76.4062C58.7441 76.9781 57.9683 77.2995 57.1594 77.2995L57.1594 73.6995C57.0136 73.6995 56.8737 73.7574 56.7705 73.8606L59.3161 76.4062ZM57.1594 77.2995C56.3505 77.2995 55.5747 76.9781 55.0027 76.4062L57.5483 73.8606C57.4452 73.7574 57.3053 73.6995 57.1594 73.6995L57.1594 77.2995ZM55.0027 76.4062C54.4308 75.8342 54.1094 75.0584 54.1094 74.2495H57.7094C57.7094 74.1036 57.6515 73.9637 57.5483 73.8606L55.0027 76.4062ZM54.1094 74.2495C54.1094 73.4406 54.4308 72.6648 55.0027 72.0928L57.5483 74.6384C57.6515 74.5352 57.7094 74.3953 57.7094 74.2495H54.1094ZM55.0027 72.0928C55.5747 71.5208 56.3505 71.1995 57.1594 71.1995V74.7995C57.3053 74.7995 57.4452 74.7415 57.5483 74.6384L55.0027 72.0928ZM57.6094 74.2495C57.6094 74.1301 57.562 74.0157 57.4776 73.9313L60.0232 71.3857C60.7827 72.1452 61.2094 73.1753 61.2094 74.2495H57.6094ZM57.4776 73.9313C57.3932 73.8469 57.2788 73.7995 57.1594 73.7995V70.1995C58.2336 70.1995 59.2637 70.6262 60.0232 71.3857L57.4776 73.9313ZM57.1594 73.7995C57.0401 73.7995 56.9256 73.8469 56.8412 73.9313L54.2956 71.3857C55.0552 70.6262 56.0853 70.1995 57.1594 70.1995V73.7995ZM56.8412 73.9313C56.7568 74.0157 56.7094 74.1301 56.7094 74.2495H53.1094C53.1094 73.1753 53.5361 72.1452 54.2956 71.3857L56.8412 73.9313ZM56.7094 74.2495C56.7094 74.3688 56.7568 74.4833 56.8412 74.5677L54.2956 77.1133C53.5361 76.3537 53.1094 75.3236 53.1094 74.2495H56.7094ZM56.8412 74.5677C56.9256 74.6521 57.0401 74.6995 57.1594 74.6995V78.2995C56.0853 78.2995 55.0552 77.8728 54.2956 77.1133L56.8412 74.5677ZM57.1594 74.6995C57.2788 74.6995 57.3932 74.6521 57.4776 74.5677L60.0232 77.1133C59.2637 77.8728 58.2336 78.2995 57.1594 78.2995V74.6995ZM57.4776 74.5677C57.562 74.4833 57.6094 74.3688 57.6094 74.2495H61.2094C61.2094 75.3236 60.7827 76.3537 60.0232 77.1133L57.4776 74.5677Z" fill="#81B03F" mask="url(#path-20-inside-5_538_257)"/>
<mask id="path-22-inside-6_538_257" fill="white">
<path fill-rule="evenodd" clip-rule="evenodd" d="M53.1594 72.9993C53.4909 72.9993 53.8089 73.131 54.0433 73.3654C54.2777 73.5998 54.4094 73.9177 54.4094 74.2493C54.4094 74.5808 54.2777 74.8987 54.0433 75.1332C53.8089 75.3676 53.4909 75.4993 53.1594 75.4993C52.8279 75.4993 52.51 75.3676 52.2755 75.1332C52.0411 74.8987 51.9094 74.5808 51.9094 74.2493C51.9094 73.9177 52.0411 73.5998 52.2755 73.3654C52.51 73.131 52.8279 72.9993 53.1594 72.9993ZM55.4094 74.2493C55.4094 73.6525 55.1724 73.0802 54.7504 72.6583C54.3285 72.2363 53.7562 71.9993 53.1594 71.9993C52.5627 71.9993 51.9904 72.2363 51.5684 72.6583C51.1465 73.0802 50.9094 73.6525 50.9094 74.2493C50.9094 74.846 51.1465 75.4183 51.5684 75.8403C51.9904 76.2622 52.5627 76.4993 53.1594 76.4993C53.7562 76.4993 54.3285 76.2622 54.7504 75.8403C55.1724 75.4183 55.4094 74.846 55.4094 74.2493Z"/>
</mask>
<path fill-rule="evenodd" clip-rule="evenodd" d="M53.1594 72.9993C53.4909 72.9993 53.8089 73.131 54.0433 73.3654C54.2777 73.5998 54.4094 73.9177 54.4094 74.2493C54.4094 74.5808 54.2777 74.8987 54.0433 75.1332C53.8089 75.3676 53.4909 75.4993 53.1594 75.4993C52.8279 75.4993 52.51 75.3676 52.2755 75.1332C52.0411 74.8987 51.9094 74.5808 51.9094 74.2493C51.9094 73.9177 52.0411 73.5998 52.2755 73.3654C52.51 73.131 52.8279 72.9993 53.1594 72.9993ZM55.4094 74.2493C55.4094 73.6525 55.1724 73.0802 54.7504 72.6583C54.3285 72.2363 53.7562 71.9993 53.1594 71.9993C52.5627 71.9993 51.9904 72.2363 51.5684 72.6583C51.1465 73.0802 50.9094 73.6525 50.9094 74.2493C50.9094 74.846 51.1465 75.4183 51.5684 75.8403C51.9904 76.2622 52.5627 76.4993 53.1594 76.4993C53.7562 76.4993 54.3285 76.2622 54.7504 75.8403C55.1724 75.4183 55.4094 74.846 55.4094 74.2493Z" fill="black"/>
<path d="M53.1594 72.9993L53.1594 71.1993L53.1594 72.9993ZM53.1594 75.4993L53.1594 73.6993L53.1594 75.4993ZM53.1594 71.1993C53.9683 71.1993 54.7441 71.5206 55.3161 72.0926L52.7705 74.6382C52.8737 74.7413 53.0136 74.7993 53.1594 74.7993L53.1594 71.1993ZM55.3161 72.0926C55.8881 72.6646 56.2094 73.4404 56.2094 74.2493H52.6094C52.6094 74.3951 52.6674 74.535 52.7705 74.6382L55.3161 72.0926ZM56.2094 74.2493C56.2094 75.0582 55.8881 75.834 55.3161 76.4059L52.7705 73.8604C52.6674 73.9635 52.6094 74.1034 52.6094 74.2493H56.2094ZM55.3161 76.4059C54.7441 76.9779 53.9683 77.2993 53.1594 77.2993L53.1594 73.6993C53.0136 73.6993 52.8737 73.7572 52.7705 73.8604L55.3161 76.4059ZM53.1594 77.2993C52.3505 77.2993 51.5747 76.9779 51.0027 76.4059L53.5483 73.8604C53.4452 73.7572 53.3053 73.6993 53.1594 73.6993L53.1594 77.2993ZM51.0027 76.4059C50.4308 75.834 50.1094 75.0582 50.1094 74.2493H53.7094C53.7094 74.1034 53.6515 73.9635 53.5483 73.8604L51.0027 76.4059ZM50.1094 74.2493C50.1094 73.4404 50.4308 72.6646 51.0027 72.0926L53.5483 74.6382C53.6515 74.535 53.7094 74.3951 53.7094 74.2493H50.1094ZM51.0027 72.0926C51.5747 71.5206 52.3505 71.1993 53.1594 71.1993V74.7993C53.3053 74.7993 53.4452 74.7413 53.5483 74.6382L51.0027 72.0926ZM53.6094 74.2493C53.6094 74.1299 53.562 74.0155 53.4776 73.9311L56.0232 71.3855C56.7827 72.145 57.2094 73.1751 57.2094 74.2493H53.6094ZM53.4776 73.9311C53.3932 73.8467 53.2788 73.7993 53.1594 73.7993V70.1993C54.2336 70.1993 55.2637 70.626 56.0232 71.3855L53.4776 73.9311ZM53.1594 73.7993C53.0401 73.7993 52.9256 73.8467 52.8412 73.9311L50.2956 71.3855C51.0552 70.626 52.0853 70.1993 53.1594 70.1993V73.7993ZM52.8412 73.9311C52.7568 74.0155 52.7094 74.1299 52.7094 74.2493H49.1094C49.1094 73.1751 49.5361 72.145 50.2956 71.3855L52.8412 73.9311ZM52.7094 74.2493C52.7094 74.3686 52.7568 74.4831 52.8412 74.5675L50.2956 77.113C49.5361 76.3535 49.1094 75.3234 49.1094 74.2493H52.7094ZM52.8412 74.5675C52.9256 74.6519 53.0401 74.6993 53.1594 74.6993V78.2993C52.0853 78.2993 51.0552 77.8726 50.2956 77.113L52.8412 74.5675ZM53.1594 74.6993C53.2788 74.6993 53.3932 74.6519 53.4776 74.5675L56.0232 77.113C55.2637 77.8726 54.2336 78.2993 53.1594 78.2993V74.6993ZM53.4776 74.5675C53.562 74.4831 53.6094 74.3686 53.6094 74.2493H57.2094C57.2094 75.3234 56.7827 76.3535 56.0232 77.113L53.4776 74.5675Z" fill="#81B03F" mask="url(#path-22-inside-6_538_257)"/>
<mask id="path-24-inside-7_538_257" fill="white">
<path fill-rule="evenodd" clip-rule="evenodd" d="M55.1594 75.9993C55.4909 75.9993 55.8089 76.131 56.0433 76.3654C56.2777 76.5998 56.4094 76.9177 56.4094 77.2493C56.4094 77.5808 56.2777 77.8987 56.0433 78.1332C55.8089 78.3676 55.4909 78.4993 55.1594 78.4993C54.8279 78.4993 54.51 78.3676 54.2755 78.1332C54.0411 77.8987 53.9094 77.5808 53.9094 77.2493C53.9094 76.9177 54.0411 76.5998 54.2755 76.3654C54.51 76.131 54.8279 75.9993 55.1594 75.9993ZM57.4094 77.2493C57.4094 76.9538 57.3512 76.6612 57.2382 76.3882C57.1251 76.1152 56.9593 75.8672 56.7504 75.6583C56.5415 75.4493 56.2934 75.2836 56.0205 75.1705C55.7475 75.0575 55.4549 74.9993 55.1594 74.9993C54.8639 74.9993 54.5714 75.0575 54.2984 75.1705C54.0254 75.2836 53.7774 75.4493 53.5684 75.6583C53.3595 75.8672 53.1938 76.1152 53.0807 76.3882C52.9676 76.6612 52.9094 76.9538 52.9094 77.2493C52.9094 77.846 53.1465 78.4183 53.5684 78.8403C53.9904 79.2622 54.5627 79.4993 55.1594 79.4993C55.7562 79.4993 56.3285 79.2622 56.7504 78.8403C57.1724 78.4183 57.4094 77.846 57.4094 77.2493Z"/>
</mask>
<path fill-rule="evenodd" clip-rule="evenodd" d="M55.1594 75.9993C55.4909 75.9993 55.8089 76.131 56.0433 76.3654C56.2777 76.5998 56.4094 76.9177 56.4094 77.2493C56.4094 77.5808 56.2777 77.8987 56.0433 78.1332C55.8089 78.3676 55.4909 78.4993 55.1594 78.4993C54.8279 78.4993 54.51 78.3676 54.2755 78.1332C54.0411 77.8987 53.9094 77.5808 53.9094 77.2493C53.9094 76.9177 54.0411 76.5998 54.2755 76.3654C54.51 76.131 54.8279 75.9993 55.1594 75.9993ZM57.4094 77.2493C57.4094 76.9538 57.3512 76.6612 57.2382 76.3882C57.1251 76.1152 56.9593 75.8672 56.7504 75.6583C56.5415 75.4493 56.2934 75.2836 56.0205 75.1705C55.7475 75.0575 55.4549 74.9993 55.1594 74.9993C54.8639 74.9993 54.5714 75.0575 54.2984 75.1705C54.0254 75.2836 53.7774 75.4493 53.5684 75.6583C53.3595 75.8672 53.1938 76.1152 53.0807 76.3882C52.9676 76.6612 52.9094 76.9538 52.9094 77.2493C52.9094 77.846 53.1465 78.4183 53.5684 78.8403C53.9904 79.2622 54.5627 79.4993 55.1594 79.4993C55.7562 79.4993 56.3285 79.2622 56.7504 78.8403C57.1724 78.4183 57.4094 77.846 57.4094 77.2493Z" fill="black"/>
<path d="M57.4094 77.2493L55.6094 77.2493L57.4094 77.2493ZM52.9094 77.2493L51.1094 77.2493L52.9094 77.2493ZM55.1594 79.4993L55.1594 77.6993L55.1594 79.4993ZM55.1594 74.1993C55.9683 74.1993 56.7441 74.5206 57.3161 75.0926L54.7705 77.6382C54.8737 77.7413 55.0136 77.7993 55.1594 77.7993V74.1993ZM57.3161 75.0926C57.8881 75.6646 58.2094 76.4404 58.2094 77.2493H54.6094C54.6094 77.3951 54.6674 77.535 54.7705 77.6382L57.3161 75.0926ZM58.2094 77.2493C58.2094 78.0582 57.8881 78.834 57.3161 79.4059L54.7705 76.8604C54.6674 76.9635 54.6094 77.1034 54.6094 77.2493H58.2094ZM57.3161 79.4059C56.7441 79.9779 55.9683 80.2993 55.1594 80.2993V76.6993C55.0136 76.6993 54.8737 76.7572 54.7705 76.8604L57.3161 79.4059ZM55.1594 80.2993C54.3505 80.2993 53.5747 79.9779 53.0027 79.4059L55.5483 76.8604C55.4452 76.7572 55.3053 76.6993 55.1594 76.6993V80.2993ZM53.0027 79.4059C52.4308 78.834 52.1094 78.0582 52.1094 77.2493H55.7094C55.7094 77.1034 55.6515 76.9635 55.5483 76.8604L53.0027 79.4059ZM52.1094 77.2493C52.1094 76.4404 52.4308 75.6646 53.0027 75.0926L55.5483 77.6382C55.6515 77.535 55.7094 77.3951 55.7094 77.2493H52.1094ZM53.0027 75.0926C53.5747 74.5206 54.3505 74.1993 55.1594 74.1993V77.7993C55.3053 77.7993 55.4452 77.7413 55.5483 77.6382L53.0027 75.0926ZM55.6094 77.2493C55.6094 77.1902 55.5978 77.1317 55.5752 77.0771L58.9011 75.6994C59.1047 76.1908 59.2094 76.7174 59.2094 77.2493L55.6094 77.2493ZM55.5752 77.0771C55.5526 77.0225 55.5194 76.9729 55.4776 76.9311L58.0232 74.3855C58.3993 74.7616 58.6976 75.208 58.9011 75.6994L55.5752 77.0771ZM55.4776 76.9311C55.4358 76.8893 55.3862 76.8561 55.3316 76.8335L56.7093 73.5076C57.2007 73.7111 57.6471 74.0094 58.0232 74.3855L55.4776 76.9311ZM55.3316 76.8335C55.277 76.8109 55.2185 76.7993 55.1594 76.7993V73.1993C55.6913 73.1993 56.2179 73.304 56.7093 73.5076L55.3316 76.8335ZM55.1594 76.7993C55.1003 76.7993 55.0418 76.8109 54.9872 76.8335L53.6096 73.5076C54.1009 73.304 54.6276 73.1993 55.1594 73.1993V76.7993ZM54.9872 76.8335C54.9326 76.8561 54.883 76.8893 54.8412 76.9311L52.2956 74.3855C52.6717 74.0094 53.1182 73.7111 53.6096 73.5076L54.9872 76.8335ZM54.8412 76.9311C54.7994 76.9729 54.7663 77.0225 54.7437 77.0771L51.4177 75.6994C51.6212 75.208 51.9196 74.7616 52.2956 74.3855L54.8412 76.9311ZM54.7437 77.0771C54.7211 77.1317 54.7094 77.1902 54.7094 77.2493L51.1094 77.2493C51.1094 76.7174 51.2142 76.1908 51.4177 75.6994L54.7437 77.0771ZM54.7094 77.2493C54.7094 77.3686 54.7568 77.4831 54.8412 77.5675L52.2956 80.113C51.5361 79.3535 51.1094 78.3234 51.1094 77.2493L54.7094 77.2493ZM54.8412 77.5675C54.9256 77.6519 55.0401 77.6993 55.1594 77.6993V81.2993C54.0853 81.2993 53.0552 80.8726 52.2956 80.113L54.8412 77.5675ZM55.1594 77.6993C55.2788 77.6993 55.3932 77.6519 55.4776 77.5675L58.0232 80.113C57.2637 80.8726 56.2336 81.2993 55.1594 81.2993L55.1594 77.6993ZM55.4776 77.5675C55.562 77.4831 55.6094 77.3686 55.6094 77.2493L59.2094 77.2493C59.2094 78.3234 58.7827 79.3535 58.0232 80.113L55.4776 77.5675Z" fill="#81B03F" mask="url(#path-24-inside-7_538_257)"/>
<path d="M51.5266 75.274L51.5271 75.2738L51.5266 75.274Z" fill="black" stroke="#81B03F" stroke-width="1.8"/>
<path d="M79.7486 65.5152C79.7728 65.5052 79.7989 65.5 79.8251 65.5C79.8516 65.5 79.8776 65.5053 79.9017 65.5152C79.9257 65.5252 79.9478 65.5398 79.9665 65.5586C79.9853 65.5773 79.9999 65.5994 80.0099 65.6235C80.0199 65.6475 80.0251 65.6735 80.0251 65.7C80.0251 65.7265 80.0199 65.7525 80.0099 65.7765C79.9999 65.8006 79.9853 65.8227 79.9665 65.8414C79.9478 65.8602 79.9257 65.8748 79.9017 65.8848C79.8776 65.8947 79.8516 65.9 79.8251 65.9C79.7989 65.9 79.7728 65.8948 79.7486 65.8848C79.7243 65.8747 79.7023 65.86 79.6837 65.8414C79.6651 65.8228 79.6504 65.8008 79.6403 65.7765C79.6303 65.7523 79.6251 65.7263 79.6251 65.7C79.6251 65.6737 79.6303 65.6477 79.6403 65.6235C79.6504 65.5992 79.6651 65.5772 79.6837 65.5586C79.7023 65.54 79.7243 65.5253 79.7486 65.5152ZM79.1051 69.175C79.1051 69.179 79.1035 69.1828 79.1007 69.1856C79.0979 69.1884 79.0941 69.19 79.0901 69.19C79.0861 69.19 79.0823 69.1884 79.0795 69.1856C79.0767 69.1828 79.0751 69.179 79.0751 69.175C79.0751 69.171 79.0767 69.1672 79.0795 69.1644C79.0823 69.1616 79.0861 69.16 79.0901 69.16C79.0941 69.16 79.0979 69.1616 79.1007 69.1644C79.1035 69.1672 79.1051 69.171 79.1051 69.175ZM74.7801 71.93C74.7801 71.9141 74.7864 71.8988 74.7977 71.8876C74.8089 71.8763 74.8242 71.87 74.8401 71.87C74.856 71.87 74.8713 71.8763 74.8825 71.8876C74.8938 71.8988 74.9001 71.9141 74.9001 71.93C74.9001 71.9459 74.8938 71.9612 74.8825 71.9724C74.8713 71.9837 74.856 71.99 74.8401 71.99C74.8242 71.99 74.8089 71.9837 74.7977 71.9724C74.7864 71.9612 74.7801 71.9459 74.7801 71.93ZM75.2688 74.1387C75.3289 74.0787 75.4103 74.045 75.4951 74.045C75.58 74.045 75.6614 74.0787 75.7214 74.1387C75.7814 74.1987 75.8151 74.2801 75.8151 74.365C75.8151 74.4499 75.7814 74.5313 75.7214 74.5913C75.6614 74.6513 75.58 74.685 75.4951 74.685C75.4103 74.685 75.3289 74.6513 75.2688 74.5913C75.2088 74.5313 75.1751 74.4499 75.1751 74.365C75.1751 74.2801 75.2088 74.1987 75.2688 74.1387ZM81.7701 69.755C81.7701 69.6701 81.8038 69.5887 81.8638 69.5287C81.9239 69.4687 82.0053 69.435 82.0901 69.435C82.175 69.435 82.2564 69.4687 82.3164 69.5287C82.3764 69.5887 82.4101 69.6701 82.4101 69.755C82.4101 69.8399 82.3764 69.9213 82.3164 69.9813C82.2564 70.0413 82.175 70.075 82.0901 70.075C82.0053 70.075 81.9239 70.0413 81.8638 69.9813C81.8038 69.9213 81.7701 69.8399 81.7701 69.755Z" fill="#81B03F" stroke="#81B03F" stroke-width="1.8"/>
<path d="M85.5001 62C85.6668 58.5 88.1001 52.7 96.5001 57.5C101.5 54 108.5 58 104.5 65C107.833 66 112.8 69.7 106 76.5" stroke="#81B03F" stroke-width="1.8" stroke-linecap="round"/>
<path d="M68.5001 76.4991C68.7501 73.9158 70.8751 70.7908 74.0001 69.9991M83.5001 76.4991C81.2501 70.7491 77.1251 69.2074 74.0001 69.9991M83.0001 74.499C84.0128 73.4864 85.8621 72.3753 87.6959 72.9153M91.0001 76.499C90.0583 74.3015 88.8804 73.264 87.6959 72.9153M74.0001 69.9991C74.0001 64.4995 86.5001 60 87.6959 72.9153" stroke="#81B03F" stroke-width="1.8" stroke-linecap="round"/>
<path d="M96.0001 70.9998L99.0001 67.4998C100.667 66.6665 103.7 66.0998 102.5 70.4998L97.5001 77" stroke="#81B03F" stroke-width="1.8" stroke-linecap="round"/>
<path d="M54.7419 17.7142C23.2419 15.7144 -34.6581 119.014 61.7419 148.214" stroke="#E6EFD9" stroke-width="4" stroke-linecap="round"/>
<path d="M61.7419 148.214C177.242 168.714 213.742 -18.2857 49.7419 23.7141" stroke="#E6EFD9" stroke-width="4" stroke-linecap="round"/>
<path d="M82.742 2.21436C24.742 2.21436 -50.2581 118.714 54.242 146.214" stroke="#E6EFD9" stroke-width="4" stroke-linecap="round"/>
<path d="M82.7419 2.20026C153.242 -4.7997 229.242 174.214 55.2419 147.216" stroke="#E6EFD9" stroke-width="4" stroke-linecap="round"/>
</svg>
