<svg width="164" height="152" viewBox="0 0 164 152" fill="none" xmlns="http://www.w3.org/2000/svg">
<path d="M75 86.4999C77.4082 84.4801 81.569 82.3227 86.5 82.0935M105 91.9999C98.8068 84.0983 92.1481 81.831 86.5 82.0935M86.5 82.0935V71V65" stroke="#81B03F" stroke-width="2" stroke-linecap="round"/>
<path d="M58.5 83.5H69.5738C70.8135 83.5 72.009 83.9606 72.9284 84.7923L80.5716 91.7077C81.491 92.5394 82.6865 93 83.9262 93H95.6151C96.5213 93 97.4471 93.2096 98.0935 93.8447C98.8084 94.547 99.3635 95.4826 99.1696 96.5M71.5 95L75.1304 97.9043C76.017 98.6136 77.1185 99 78.2539 99H95.6151C96.5213 99 97.4476 98.7956 98.1182 98.1861C98.7454 97.6161 99.0655 97.0463 99.1696 96.5M58.5 102L67.3747 106.881C68.1129 107.287 68.9418 107.5 69.7843 107.5H95.2366C96.3778 107.5 97.4846 107.11 98.3733 106.394L113.808 93.9603C114.585 93.3344 115.213 92.4936 115.276 91.498C115.396 89.5962 114.622 87.4777 111.145 87.8176C110.388 87.8916 109.689 88.244 109.091 88.7136L99.1696 96.5" stroke="#81B03F" stroke-width="2" stroke-linecap="round"/>
<path d="M58 97V105C58 105.276 57.7761 105.5 57.5 105.5H51.5C51.2239 105.5 51 105.276 51 105V81.5C51 81.2239 51.2239 81 51.5 81H57.5C57.7761 81 58 81.2239 58 81.5V89M58 92V94" stroke="#81B03F" stroke-width="2" stroke-linecap="round"/>
<path d="M86.588 70.0001V81.5001M86.588 70.0001C84.9213 67.1667 80.888 61.5001 78.088 61.5001M86.588 70.0001C88.088 67.0001 91.788 61.1001 94.588 61.5001" stroke="#81B03F" stroke-width="2" stroke-linecap="round"/>
<path d="M86.088 70C80.2547 70.5 68.888 67.6 70.088 52" stroke="#81B03F" stroke-width="2" stroke-linecap="round"/>
<path d="M70.588 52.052C76.4213 51.552 87.788 54.452 86.588 70.052" stroke="#81B03F" stroke-width="2" stroke-linecap="round"/>
<path d="M102.676 52.052C96.8427 51.552 85.476 54.452 86.676 70.052" stroke="#81B03F" stroke-width="2" stroke-linecap="round"/>
<path d="M87.176 70C93.0094 70.5 104.376 67.6 103.176 52" stroke="#81B03F" stroke-width="2" stroke-linecap="round"/>
<path d="M54.7419 17.7142C23.2419 15.7144 -34.6581 119.014 61.7419 148.214" stroke="#E6EFD9" stroke-width="4" stroke-linecap="round"/>
<path d="M61.7419 148.214C177.242 168.714 213.742 -18.2857 49.7419 23.7141" stroke="#E6EFD9" stroke-width="4" stroke-linecap="round"/>
<path d="M82.742 2.21436C24.742 2.21436 -50.2581 118.714 54.242 146.214" stroke="#E6EFD9" stroke-width="4" stroke-linecap="round"/>
<path d="M82.7419 2.20026C153.242 -4.7997 229.242 174.214 55.2419 147.216" stroke="#E6EFD9" stroke-width="4" stroke-linecap="round"/>
</svg>
