<svg width="164" height="152" viewBox="0 0 164 152" fill="none" xmlns="http://www.w3.org/2000/svg">
<path d="M84.6194 51.5224C80.2855 51.5211 76.0175 52.5843 72.1906 54.6185C68.3637 56.6527 65.095 59.5956 62.6716 63.1887C60.2482 66.7818 58.7444 70.9151 58.2922 75.2254C57.84 79.5357 58.4533 83.8911 60.0783 87.9089C60.1654 88.1237 60.2093 88.3535 60.2076 88.5853C60.2059 88.817 60.1586 89.0462 60.0683 89.2596C59.978 89.4731 59.8466 89.6667 59.6815 89.8294C59.5164 89.9921 59.3209 90.1206 59.1061 90.2077C58.8914 90.2949 58.6615 90.3388 58.4298 90.3371C58.198 90.3354 57.9688 90.2881 57.7554 90.1978C57.5419 90.1075 57.3483 89.9761 57.1856 89.811C57.023 89.6459 56.8944 89.4504 56.8073 89.2356C54.2144 82.8228 53.9178 75.7108 55.9677 69.1044C58.0176 62.4979 62.2881 56.8031 68.0557 52.9844C73.8234 49.1658 80.7337 47.4582 87.6161 48.1508C94.4985 48.8433 100.93 51.8935 105.821 56.7847C110.712 61.6759 113.763 68.1074 114.455 74.9899C115.148 81.8723 113.44 88.7826 109.622 94.5502C105.803 100.318 100.108 104.588 93.5016 106.638C86.8951 108.688 79.7832 108.392 73.3703 105.799C72.9397 105.621 72.5968 105.28 72.4164 104.851C72.236 104.421 72.2328 103.938 72.4075 103.506C72.5822 103.074 72.9206 102.729 73.3489 102.546C73.7772 102.362 74.2605 102.356 74.6936 102.528C78.312 103.988 82.2086 104.63 86.1042 104.408C89.9999 104.186 93.7982 103.105 97.2272 101.243C100.656 99.3804 103.631 96.783 105.938 93.6364C108.246 90.4898 109.829 86.8719 110.574 83.0418C111.32 79.2116 111.209 75.2641 110.25 71.4818C109.291 67.6995 107.507 64.1761 105.027 61.1639C102.546 58.1518 99.4305 55.7254 95.9024 54.0585C92.3744 52.3917 88.5214 51.5256 84.6194 51.5224Z" fill="#81B03F"/>
<path d="M65.2124 77.9865C65.2124 82.7112 66.8991 87.0408 69.7043 90.407L68.0106 92.1007H62.6365C61.2333 92.1019 59.8879 92.6604 58.8963 93.6533L53.1165 99.4295C52.7468 99.7996 52.4952 100.271 52.3933 100.784C52.2913 101.297 52.3437 101.829 52.5438 102.312C52.744 102.795 53.0828 103.209 53.5176 103.499C53.9523 103.79 54.4636 103.946 54.9866 103.946H58.6563V107.616C58.6568 108.139 58.8122 108.65 59.1031 109.085C59.3939 109.52 59.807 109.858 60.2903 110.059C60.7736 110.259 61.3054 110.311 61.8184 110.209C62.3315 110.107 62.8028 109.856 63.1729 109.486L68.9491 103.706C69.9425 102.716 70.5021 101.372 70.5052 99.9694V94.5989L72.199 92.9052C75.5905 95.7302 79.8438 97.3146 84.257 97.397C88.6702 97.4795 92.9796 96.055 96.4743 93.3588C99.9691 90.6625 102.44 86.8555 103.48 82.5658C104.52 78.2761 104.067 73.76 102.195 69.7627C100.323 65.7653 97.1441 62.5255 93.1831 60.5778C89.2222 58.6301 84.7155 58.0908 80.4068 59.0489C76.0981 60.0071 72.2447 62.4054 69.4824 65.8481C66.7201 69.2909 65.214 73.5725 65.2124 77.9865ZM84.6195 62.1079C87.1557 62.1088 89.6548 62.7171 91.9077 63.8821C94.1605 65.047 96.1016 66.7347 97.5683 68.8038C99.035 70.8729 99.9847 73.2632 100.338 75.7748C100.691 78.2863 100.438 80.8458 99.5988 83.2393C98.7598 85.6327 97.3596 87.7903 95.5156 89.5316C93.6715 91.2728 91.4372 92.547 88.9996 93.2474C86.562 93.9479 83.9921 94.0542 81.505 93.5576C79.0178 93.061 76.6859 91.9758 74.7042 90.3929L81.0309 84.0662C82.5106 84.9386 84.2576 85.2414 85.9445 84.9179C87.6315 84.5944 89.1425 83.6667 90.1944 82.3088C91.2463 80.9509 91.7668 79.2559 91.6584 77.5417C91.55 75.8274 90.8201 74.2115 89.6055 72.997C88.3909 71.7824 86.775 71.0525 85.0608 70.944C83.3465 70.8356 81.6516 71.3561 80.2936 72.408C78.9357 73.4599 78.008 74.971 77.6845 76.6579C77.361 78.3448 77.6638 80.0919 78.5363 81.5715L72.2131 87.8982C70.3465 85.562 69.1775 82.7463 68.8406 79.775C68.5038 76.8038 69.0128 73.7978 70.3091 71.1031C71.6054 68.4084 73.6363 66.1345 76.168 64.5432C78.6996 62.9518 81.6292 62.1077 84.6195 62.1079ZM61.391 96.1444C61.5551 95.9807 61.7499 95.8509 61.9643 95.7625C62.1786 95.6741 62.4082 95.6289 62.6401 95.6293H66.9767V99.9659C66.9756 100.433 66.7891 100.881 66.458 101.211L62.1884 105.481V102.182C62.1884 101.714 62.0025 101.265 61.6717 100.934C61.3408 100.603 60.8921 100.418 60.4241 100.418H57.1214L61.391 96.1444Z" fill="#81B03F"/>
<circle cx="84.3228" cy="77.8363" r="9.11173" fill="#81B03F"/>
<path d="M80.1875 78.4815H82.7641C83.5694 78.4815 84.3252 78.2067 84.8673 77.7415C85.179 77.4809 85.4181 77.144 85.5613 76.7637H80.1868C80.0046 76.7637 79.8298 76.6914 79.7009 76.5625C79.5721 76.4336 79.4997 76.2589 79.4997 76.0766C79.4997 75.8944 79.5721 75.7197 79.7009 75.5908C79.8298 75.4619 80.0046 75.3895 80.1868 75.3895H85.5613C85.4181 75.0093 85.179 74.6724 84.8673 74.4118C84.3245 73.9473 83.5694 73.6718 82.7641 73.6718H80.1868C80.0046 73.6718 79.8298 73.5994 79.7009 73.4706C79.5721 73.3417 79.4997 73.1669 79.4997 72.9847C79.4997 72.8025 79.5721 72.6277 79.7009 72.4989C79.8298 72.37 80.0046 72.2976 80.1868 72.2976H82.7634L82.8871 72.299L82.9352 72.2976H87.7449C87.9271 72.2976 88.1019 72.37 88.2307 72.4989C88.3596 72.6277 88.432 72.8025 88.432 72.9847C88.432 73.1669 88.3596 73.3417 88.2307 73.4706C88.1019 73.5994 87.9271 73.6718 87.7449 73.6718H86.0787C86.5331 74.1503 86.8474 74.7445 86.987 75.3895H87.7449C87.9271 75.3895 88.1019 75.4619 88.2307 75.5908C88.3596 75.7197 88.432 75.8944 88.432 76.0766C88.432 76.2589 88.3596 76.4336 88.2307 76.5625C88.1019 76.6914 87.9271 76.7637 87.7449 76.7637H86.987C86.8248 77.5381 86.3927 78.2438 85.7619 78.7845C84.9511 79.4792 83.8717 79.8557 82.7634 79.8557H82.0502L86.2676 83.4561C86.4013 83.5758 86.4827 83.7431 86.4947 83.9221C86.5066 84.1012 86.448 84.2778 86.3314 84.4142C86.2149 84.5506 86.0495 84.636 85.8708 84.6521C85.6921 84.6683 85.5142 84.6138 85.3751 84.5005L79.7429 79.6928L79.7361 79.6867C79.6147 79.5819 79.5339 79.4378 79.508 79.2796C79.482 79.1214 79.5124 78.959 79.5938 78.8209C79.6545 78.7174 79.7413 78.6317 79.8454 78.5721C79.9496 78.5126 80.0675 78.4813 80.1875 78.4815Z" fill="white"/>
<path d="M54.7419 17.7142C23.2419 15.7144 -34.6581 119.014 61.7419 148.214" stroke="#E6EFD9" stroke-width="4" stroke-linecap="round"/>
<path d="M61.7419 148.214C177.242 168.714 213.742 -18.2857 49.7419 23.7141" stroke="#E6EFD9" stroke-width="4" stroke-linecap="round"/>
<path d="M82.742 2.21436C24.742 2.21436 -50.2581 118.714 54.242 146.214" stroke="#E6EFD9" stroke-width="4" stroke-linecap="round"/>
<path d="M82.7419 2.20026C153.242 -4.7997 229.242 174.214 55.2419 147.216" stroke="#E6EFD9" stroke-width="4" stroke-linecap="round"/>
</svg>
