<svg width="164" height="152" viewBox="0 0 164 152" fill="none" xmlns="http://www.w3.org/2000/svg">
<path d="M66.713 81.426C73.1821 81.426 78.426 76.1821 78.426 69.713C78.426 63.2439 73.1821 58 66.713 58C60.2439 58 55 63.2439 55 69.713C55 76.1821 60.2439 81.426 66.713 81.426Z" stroke="#81B03F" stroke-width="2.3426" stroke-linejoin="round"/>
<path d="M66.7178 62.6851V69.7187L71.6835 74.685" stroke="#81B03F" stroke-width="2.3426" stroke-linecap="round" stroke-linejoin="round"/>
<path d="M82.1971 107.016C80.2993 107.016 78.6834 106.35 77.3494 105.018C76.0155 103.692 75.3485 102.077 75.3485 100.173H70.9113C70.5227 100.173 70.1978 100.042 69.9369 99.7791C69.6759 99.5163 69.5445 99.1906 69.5427 98.8019C69.5409 98.4132 69.6723 98.0884 69.9369 97.8274C70.2015 97.5665 70.5263 97.436 70.9113 97.436H76.0492C76.5437 96.2188 77.3421 95.2297 78.4443 94.4688C79.5465 93.7096 80.7956 93.3301 82.1917 93.3301C83.5877 93.3301 84.8377 93.7096 85.9417 94.4688C87.0421 95.2297 87.8396 96.2188 88.3341 97.436H100.975L106.986 71.4319H78.666C78.2774 71.4319 77.9516 71.3005 77.6888 71.0377C77.4261 70.7749 77.2956 70.4492 77.2974 70.0605C77.2992 69.6718 77.4297 69.347 77.6888 69.086C77.948 68.8251 78.2737 68.6946 78.666 68.6946H107.618C108.319 68.6946 108.89 68.9756 109.332 69.5377C109.775 70.0997 109.918 70.7256 109.759 71.4154L108.19 78.275H111.669C112.37 78.275 113.033 78.432 113.659 78.7459C114.287 79.0579 114.804 79.4904 115.209 80.0433L120.128 86.6073C120.525 87.1402 120.784 87.6958 120.902 88.2743C121.023 88.851 121.032 89.4568 120.93 90.0919L119.293 98.405C119.19 98.9378 118.931 99.3658 118.515 99.6888C118.099 100.012 117.627 100.173 117.097 100.173H115.775C115.775 102.069 115.111 103.684 113.783 105.018C112.454 106.352 110.839 107.018 108.938 107.016C107.036 107.015 105.42 106.349 104.09 105.018C102.758 103.69 102.092 102.075 102.092 100.173H89.0348C89.0348 102.069 88.3706 103.684 87.0421 105.018C85.7136 106.352 84.0986 107.018 82.1971 107.016ZM105.149 91.2771H117.88L118.365 88.8409L112.512 81.0123H107.536L105.149 91.2771ZM101.637 94.6932L101.993 93.1056C102.23 92.0472 102.531 90.7515 102.896 89.2187C103.103 88.3792 103.283 87.6037 103.438 86.892C103.592 86.1803 103.714 85.5909 103.805 85.1237L104.161 83.5361C104.398 82.4777 104.699 81.182 105.064 79.6492C105.429 78.1163 105.73 76.8206 105.968 75.7622L106.323 74.1746L106.986 71.4319L100.972 97.436L101.637 94.6932ZM67.9277 90.5873C67.5536 90.5873 67.2407 90.4559 66.9888 90.1931C66.737 89.9304 66.6111 89.6055 66.6111 89.2187C66.6111 88.8318 66.7416 88.5061 67.0025 88.2415C67.2635 87.9769 67.5892 87.8464 67.9797 87.85H77.5054C77.8941 87.85 78.2199 87.9814 78.4826 88.2442C78.7454 88.507 78.8759 88.8327 78.8741 89.2214C78.8723 89.6101 78.7418 89.9349 78.4826 90.1959C78.2235 90.4568 77.8978 90.5873 77.5054 90.5873H67.9277ZM73.4023 81.0178C73.0136 81.0178 72.6878 80.8864 72.4251 80.6236C72.1623 80.3608 72.0309 80.0351 72.0309 79.6464C72.0309 79.2577 72.1623 78.9329 72.4251 78.672C72.6878 78.411 73.0127 78.2805 73.3995 78.2805H85.7173C86.106 78.2805 86.4317 78.4119 86.6945 78.6747C86.9554 78.9375 87.0859 79.2632 87.0859 79.6519C87.0859 80.0406 86.9554 80.3654 86.6945 80.6264C86.4335 80.8873 86.1078 81.0178 85.7173 81.0178H73.4023ZM82.1917 104.279C83.3176 104.279 84.2838 103.877 85.0904 103.072C85.8952 102.265 86.2976 101.299 86.2976 100.173C86.2976 99.0473 85.8952 98.0811 85.0904 97.2745C84.2857 96.4679 83.3194 96.0655 82.1917 96.0673C81.0639 96.0692 80.0976 96.4715 79.2929 97.2745C78.4881 98.0811 78.0857 99.0473 78.0857 100.173C78.0857 101.299 78.4881 102.265 79.2929 103.072C80.0995 103.877 81.0657 104.279 82.1917 104.279ZM108.935 104.279C110.061 104.279 111.026 103.877 111.831 103.072C112.636 102.265 113.038 101.299 113.038 100.173C113.038 99.0473 112.636 98.0811 111.831 97.2745C111.026 96.4679 110.06 96.0655 108.932 96.0673C107.804 96.0692 106.839 96.4715 106.036 97.2745C105.229 98.0811 104.826 99.0473 104.826 100.173C104.826 101.299 105.229 102.265 106.033 103.072C106.84 103.877 107.807 104.279 108.935 104.279Z" fill="#81B03F"/>
<path d="M54.8469 17.7142C23.3469 15.7144 -34.5531 119.014 61.8469 148.214" stroke="#E6EFD9" stroke-width="4" stroke-linecap="round"/>
<path d="M61.8469 148.214C177.347 168.714 213.847 -18.2857 49.8469 23.7141" stroke="#E6EFD9" stroke-width="4" stroke-linecap="round"/>
<path d="M82.847 2.21436C24.8469 2.21436 -50.1531 118.714 54.347 146.214" stroke="#E6EFD9" stroke-width="4" stroke-linecap="round"/>
<path d="M82.8469 2.20026C153.347 -4.7997 229.347 174.214 55.3469 147.216" stroke="#E6EFD9" stroke-width="4" stroke-linecap="round"/>
</svg>
