<?xml version="1.0" encoding="UTF-8" standalone="no"?>
<!-- Created with Inkscape (http://www.inkscape.org/) -->

<svg
   width="138.69313mm"
   height="56.204662mm"
   viewBox="0 0 138.69313 56.204662"
   version="1.1"
   id="svg1"
   xml:space="preserve"
   xmlns="http://www.w3.org/2000/svg"
   xmlns:svg="http://www.w3.org/2000/svg"><defs
     id="defs1" /><g
     id="layer1"
     transform="translate(-26.814356,-136.7046)"><path
       style="fill:#000000"
       d="m 91.820182,192.55292 c -5.870717,-1.6139 -9.219717,-6.21957 -8.848555,-12.16885 0.176615,-2.83091 0.998434,-4.64148 2.870933,-6.32502 3.263299,-2.93398 8.54848,-3.30058 13.26919,-0.9204 2.76448,1.39385 4.69101,2.84466 7.78819,5.865 1.62774,1.58736 3.06993,2.8179 3.20485,2.73451 0.46722,-0.28876 0.91801,-2.52575 0.73704,-3.65746 -0.23869,-1.49272 -1.02987,-2.70645 -2.36125,-3.62237 -1.18253,-0.81351 -3.26654,-1.61413 -4.2187,-1.62071 -1.03455,-0.007 -1.31752,-0.3466 -0.95401,-1.14441 l 0.32059,-0.70362 h 6.14947 6.14947 l 0.57105,-1.88007 c 0.31408,-1.03403 0.51701,-1.9341 0.45097,-2.00015 -0.066,-0.066 -1.53181,0.17483 -3.25726,0.53527 -10.04132,2.09758 -20.722584,2.9718 -33.424047,2.7356 -12.707421,-0.2363 -20.374859,-1.19441 -31.36105,-3.91881 -14.27408,-3.53974 -22.092708,-8.15615 -22.092708,-13.04438 0,-6.62983 13.710861,-13.42271 32.279166,-15.99233 4.596847,-0.63615 9.050884,-0.95762 7.14375,-0.51561 -10.63672,2.46526 -16.288447,4.21058 -20.769791,6.41399 -7.772916,3.82181 -9.642114,8.04024 -5.429339,12.25302 7.710615,7.71061 34.626778,13.22966 58.677809,12.03165 9.8862,-0.49245 18.96424,-1.70612 19.46586,-2.60245 1.13779,-2.03313 5.37977,-5.15703 7.71131,-5.67881 0.80639,-0.18046 1.548,-0.24627 1.64803,-0.14624 0.10003,0.10004 -0.0445,1.0908 -0.3211,2.20172 l -0.50297,2.01983 -1.86334,0.85358 c -1.02484,0.46947 -2.72649,1.12857 -3.78143,1.46467 l -1.91809,0.61108 -0.6616,2.16905 c -0.36388,1.19297 -0.6616,2.23756 -0.6616,2.32131 0,0.0838 1.47135,0.18559 3.26966,0.22632 l 3.26966,0.074 -0.58164,1.97031 c -0.62233,2.10812 -1.28565,2.89324 -1.01017,1.19565 0.11042,-0.68044 0.0471,-1.03983 -0.21224,-1.20402 -0.2033,-0.12873 -1.51562,-0.23587 -2.91626,-0.2381 l -2.54661,-0.004 -0.15852,0.79257 c -0.31781,1.58907 -2.5254,6.65862 -3.76711,8.65085 -3.19503,5.12622 -8.35221,9.07594 -13.40657,10.26766 -2.0158,0.47529 -6.222428,0.47538 -7.951038,1.7e-4 z m 10.696638,-1.77875 c 2.45705,-0.90325 3.9822,-1.85592 5.76682,-3.60216 3.09127,-3.02481 5.69075,-8.07374 7.00346,-13.60274 l 0.17275,-0.7276 h -3.86207 -3.86206 l 1.13374,0.86473 c 0.6548,0.49944 1.45665,1.47742 1.89815,2.3151 0.67737,1.28521 0.75068,1.65077 0.64382,3.21011 -0.0844,1.23174 -0.37061,2.29401 -0.95388,3.54043 l -0.83329,1.7807 -3.10652,-3.1472 c -4.58007,-4.64008 -8.43765,-7.29435 -12.216512,-8.40578 -3.209662,-0.94402 -6.445668,-0.2668 -8.398448,1.75761 -1.795796,1.86166 -2.070718,2.60846 -2.070718,5.62492 0,2.32538 0.08702,2.83156 0.71848,4.17923 1.46325,3.1229 5.027275,5.78174 8.938812,6.66854 2.56514,0.58155 6.785076,0.36844 9.027466,-0.45589 z m 22.72692,-26.92833 c 0.47977,0 1.05395,-0.87008 1.05395,-1.59709 0,-2.28039 -4.36717,-1.18505 -5.99467,1.50353 -0.33946,0.56078 -0.61782,1.0951 -0.61856,1.18737 -7.5e-4,0.0923 1.19975,-0.11608 2.66776,-0.46302 1.46802,-0.34694 2.7692,-0.63079 2.89152,-0.63079 z m 7.10667,19.54646 c -0.49533,-0.49532 -0.54753,-0.78531 -0.44077,-2.44879 0.31036,-4.83614 4.80857,-10.32198 9.48492,-11.56747 4.46884,-1.19021 3.20837,2.9507 -1.55571,5.11084 -1.6855,0.76424 -3.21641,0.90139 -3.41165,0.30562 -0.0625,-0.19083 0.46993,-0.33917 1.47958,-0.41221 1.16655,-0.0844 1.85217,-0.30458 2.63289,-0.84562 1.9127,-1.3255 2.06319,-3.07425 0.26456,-3.07425 -1.10246,0 -2.04354,0.55881 -3.42087,2.03128 -2.91603,3.11747 -4.57543,8.18312 -3.14817,9.61038 0.29104,0.29104 0.73752,0.52656 0.99218,0.52336 1.65652,-0.0208 4.31866,-2.36207 5.66059,-4.97832 0.50044,-0.97568 0.74564,-1.24418 0.8612,-0.94304 0.29461,0.76775 -0.80189,2.59792 -2.56219,4.27654 -2.79046,2.66099 -5.59716,3.65109 -6.83656,2.41168 z m 8.61318,-0.094 c -0.51188,-0.51188 -0.61724,-0.81683 -0.47992,-1.38906 0.0968,-0.40325 0.2024,-0.76646 0.23472,-0.80712 0.0323,-0.0407 0.44487,0.28676 0.9168,0.72761 0.9763,0.912 2.19008,1.0551 3.44499,0.40617 1.78523,-0.92318 2.01196,-2.39196 0.79667,-5.16089 -1.10754,-2.52343 -1.02223,-3.33287 0.56211,-5.33325 1.16002,-1.46465 2.74138,-2.31576 4.41255,-2.37491 0.75871,-0.0268 1.44755,0.0193 1.53076,0.10247 0.0832,0.0832 -0.31858,0.89031 -0.89287,1.79357 -0.57429,0.90325 -1.1117,1.533 -1.19423,1.39946 -0.0825,-0.13355 -0.0407,-0.41572 0.093,-0.62705 0.4038,-0.63833 0.28507,-1.0416 -0.39836,-1.353 -1.25528,-0.57194 -3.31922,0.88879 -3.31922,2.34915 0,0.35616 0.35719,1.46139 0.79375,2.45606 1.26011,2.87103 0.96991,4.61842 -1.07361,6.46462 -2.21876,2.00451 -4.26199,2.51133 -5.42715,1.34617 z m -18.01911,0.0187 c 1.66498,-4.33887 3.40577,-9.462 3.53469,-10.40257 l 0.16638,-1.21383 -0.83539,0.16707 c -1.22916,0.24584 -1.02257,-0.24229 0.42138,-0.9956 0.69122,-0.36061 1.64372,-0.91009 2.11667,-1.22106 0.63838,-0.41976 0.85989,-0.4708 0.85989,-0.19814 0,0.41097 -0.64671,2.96911 -0.95705,3.78573 -0.11061,0.29104 0.70931,-0.31809 1.82205,-1.35363 1.96024,-1.82425 3.39441,-2.74741 4.26822,-2.74741 0.45095,0 0.51236,0.30116 0.25627,1.25677 -0.13116,0.48941 -0.34466,0.59532 -1.20015,0.59532 -1.38964,0 -2.29773,0.51004 -3.71537,2.0868 -1.47511,1.64068 -2.81697,4.18031 -3.93009,7.43819 -0.47235,1.38245 -0.92975,2.5871 -1.01645,2.67699 -0.0867,0.0899 -0.55715,0.23827 -1.04544,0.3297 -0.69658,0.13044 -0.85718,0.0864 -0.74561,-0.20433 z m 34.74356,-0.47046 c 0.22766,-1.22442 1.75953,-5.31077 3.01192,-8.03446 1.67506,-3.64288 1.36593,-4.39595 -1.02779,-2.50382 -2.17929,1.72263 -5.89662,6.57633 -7.31243,9.5478 -0.34795,0.73028 -0.68415,1.00703 -1.48209,1.22001 -0.56762,0.15151 -1.03205,0.23388 -1.03205,0.18304 0,-0.0508 0.40665,-1.0761 0.90366,-2.27835 2.42584,-5.86802 6.72396,-17.07796 6.77276,-17.66403 0.11111,-1.33448 0.0674,-1.38141 -1.10165,-1.1839 -0.91302,0.15426 -1.07254,0.11881 -0.94627,-0.21024 0.57347,-1.49444 1.21139,-3.95661 1.10019,-4.24639 -0.0734,-0.19139 -0.75424,-0.69721 -1.51288,-1.12404 -1.24552,-0.70076 -1.48545,-0.99425 -2.47291,-3.02501 -0.60146,-1.23693 -0.99078,-2.28786 -0.86514,-2.33541 0.12563,-0.0476 0.85759,0.0965 1.62658,0.32002 1.62988,0.47381 3.05495,1.78401 3.38887,3.11569 0.14358,0.5726 0.17616,-0.002 0.0925,-1.62947 -0.12075,-2.34913 -0.10283,-2.46764 0.27394,-1.81175 l 0.40313,0.70179 0.97692,-0.89483 c 1.04009,-0.95268 2.3891,-1.52737 3.25733,-1.38765 0.49863,0.0803 0.48233,0.15681 -0.28294,1.32906 -0.44663,0.68416 -1.40057,1.62157 -2.11987,2.08314 -1.59464,1.02328 -2.08587,1.68536 -2.08587,2.81132 v 0.86126 l 1.08302,-1.17494 c 1.6325,-1.77105 4.58142,-2.6775 6.78735,-2.08631 0.57722,0.15469 0.56378,0.19576 -0.4666,1.42644 -1.47728,1.76445 -4.51445,3.6131 -6.33216,3.85422 -1.30799,0.17351 -1.40839,0.14969 -1.23819,-0.29386 0.10187,-0.26547 0.10036,-1.02755 -0.003,-1.69351 -0.16007,-1.02775 -0.21428,-1.11082 -0.35852,-0.54938 -0.0935,0.3638 -0.067,0.73131 0.0588,0.81669 0.27958,0.18971 0.12021,1.695 -0.28592,2.70071 -0.44227,1.09518 -0.64888,2.03885 -0.4464,2.03885 0.0981,0 1.07962,-0.41643 2.18122,-0.9254 l 2.00291,-0.9254 -0.1647,1.20166 c -0.22576,1.64707 -1.16014,4.27122 -3.80121,10.67541 -1.23657,2.99852 -2.3187,5.63045 -2.40473,5.84873 -0.086,0.21828 0.60567,-0.48776 1.53711,-1.56898 3.78987,-4.39929 6.26843,-6.42805 7.90944,-6.47407 0.77433,-0.0217 0.96814,0.0765 1.03198,0.52316 0.0432,0.30244 -0.80382,2.56463 -1.88233,5.02708 -1.0785,2.46245 -2.10899,4.93463 -2.28996,5.49373 -0.40305,1.24518 -0.12659,1.62983 0.89283,1.24224 0.90425,-0.34379 1.41203,-0.36009 1.07097,-0.0344 -0.25578,0.24427 -2.94174,1.40011 -4.01841,1.72923 -0.54948,0.16797 -0.58034,0.11793 -0.42905,-0.69571 z m -44.03493,-24.68721 c -3.50453,-0.9853 -6.59582,-3.24223 -7.94226,-5.79859 -0.62498,-1.18658 -0.70973,-1.64686 -0.71085,-3.86074 -0.001,-2.35791 0.0544,-2.61623 0.89807,-4.17204 1.42682,-2.63121 3.75485,-4.42358 6.76302,-5.20691 2.01578,-0.5249 5.66786,-0.52659 7.69403,-0.004 1.82273,0.47053 4.88423,1.83698 4.88423,2.18001 0,0.1285 -0.54445,0.62463 -1.2099,1.10252 l -1.2099,0.86888 -1.89895,-0.88674 c -1.71628,-0.80144 -2.12803,-0.88631 -4.2802,-0.88229 -2.81019,0.005 -4.18305,0.51233 -6.05259,2.23562 -1.56877,1.44604 -2.28339,2.94748 -2.27598,4.7819 0.007,1.84317 0.66948,3.28368 2.10326,4.57649 1.87292,1.68875 3.18127,2.14541 6.09301,2.12667 2.91238,-0.0187 4.56493,-0.41351 5.45438,-1.30295 0.52582,-0.52583 0.63104,-0.89775 0.63104,-2.23057 v -1.59949 h -1.57189 c -0.86453,0 -1.6228,0.0893 -1.68504,0.19844 -0.0622,0.10914 -0.19496,0.65156 -0.29495,1.20538 l -0.1818,1.00695 1.00694,-0.17652 c 0.55382,-0.0971 1.15455,-0.36293 1.33494,-0.59076 0.1804,-0.22783 0.38723,-0.355 0.45962,-0.28261 0.0724,0.0724 -0.25143,0.6525 -0.71961,1.28913 -0.46818,0.63663 -0.67501,1.08614 -0.45962,0.99892 1.34976,-0.54657 1.40043,-0.55732 1.21534,-0.25784 -0.10402,0.1683 -1.0279,0.56078 -2.05307,0.87217 -6.41702,1.9491 -12.09576,-3.55044 -8.93949,-8.65739 0.28487,-0.46092 0.72021,-1.00026 0.96743,-1.19852 0.33513,-0.26876 0.3102,-0.15853 -0.098,0.43328 -0.3011,0.43656 -0.68156,1.05037 -0.84547,1.36402 -0.55565,1.06331 2.44943,-0.96182 3.10375,-2.09163 0.65905,-1.13797 0.52722,-1.21288 -0.75685,-0.4301 -0.60573,0.36926 -0.80147,0.41874 -0.57447,0.14523 0.3679,-0.44329 2.61451,-1.39405 2.81659,-1.19197 0.0665,0.0665 -0.22897,0.53017 -0.6566,1.03039 -0.42763,0.50021 -0.78235,0.98611 -0.78827,1.07978 -0.006,0.0937 0.45826,0.0513 1.0315,-0.0942 0.8146,-0.20677 1.10354,-0.4404 1.32291,-1.06968 0.35104,-1.00699 0.36452,-0.92603 -0.18235,-1.09513 -0.25466,-0.0787 0.41756,-0.093 1.49383,-0.0316 2.46219,0.14044 4.3581,1.01925 5.84629,2.70991 1.21667,1.38222 1.09337,1.96364 -0.26722,1.26005 -0.69605,-0.35994 -0.90012,-0.37824 -1.07435,-0.0963 -0.1183,0.19141 -0.25133,0.29193 -0.29562,0.22338 -0.0443,-0.0686 -0.21143,-0.36094 -0.37141,-0.64977 -0.15999,-0.28883 -0.79758,-0.67185 -1.41687,-0.85115 l -1.12599,-0.326 0.17421,0.98344 c 0.36153,2.04097 0.10623,1.90948 3.70738,1.90948 2.72967,0 3.28733,0.0682 3.42176,0.41852 0.0883,0.23018 0.1606,1.88548 0.1606,3.67843 v 3.25993 l -1.51737,1.00717 c -3.24491,2.15385 -7.83295,3.01521 -11.12721,2.08902 z m 2.85499,-3.95834 c 0,-0.0659 -0.13019,-0.40558 -0.28932,-0.75483 -0.20437,-0.44856 -0.63163,-0.71332 -1.45521,-0.90179 -0.71286,-0.16312 -1.16588,-0.17033 -1.16588,-0.0186 0,0.53104 1.5693,1.79503 2.2286,1.79503 0.375,0 0.68181,-0.0539 0.68181,-0.11984 z m 1.28045,-0.55406 c 0.41583,-0.91266 0.41534,-0.91359 -0.4867,-0.91359 -0.84271,0 -0.96269,0.24827 -0.51985,1.07572 0.36817,0.68795 0.63911,0.6443 1.00655,-0.16213 z m 2.0242,-0.11708 c 0.87917,-0.91766 0.83585,-1.04474 -0.29723,-0.87194 -0.70868,0.10807 -1.41992,0.88101 -1.41992,1.54308 0,0.41525 1.08118,-0.007 1.71715,-0.67114 z m -6.22095,-0.2012 c -0.0123,-0.4154 -0.95454,-1.34922 -1.78005,-1.76417 -1.19217,-0.59925 -1.07481,-0.11467 0.24606,1.01595 1.07811,0.92282 1.54594,1.15101 1.53399,0.74822 z m 2.02066,-1.32292 c -0.0757,-0.25466 -0.21565,-0.79044 -0.3111,-1.19062 -0.16004,-0.67101 -0.27427,-0.72761 -1.46853,-0.72761 h -1.29499 l 0.34947,0.85647 c 0.26399,0.64696 0.60396,0.93323 1.38982,1.17029 1.41749,0.42759 1.49278,0.42148 1.33533,-0.10853 z m 2.94143,-0.66146 0.22485,-1.12447 -0.88862,-0.1323 -0.88861,-0.13229 0.94392,-0.9118 c 0.51916,-0.50149 0.94392,-1.05155 0.94392,-1.22236 0,-0.32728 -2.22654,-0.68672 -2.82686,-0.45636 -0.42748,0.16404 -0.46993,2.67052 -0.0696,4.11188 0.25813,0.92949 0.34064,0.99218 1.30587,0.99218 1.00049,0 1.03684,-0.0326 1.25517,-1.12448 z m -6.14999,-0.77829 c -0.11825,-0.47114 -0.43895,-0.71644 -1.2035,-0.9205 -0.57326,-0.15302 -1.0423,-0.19644 -1.0423,-0.0965 0,0.39684 2.0988,1.96751 2.32578,1.74053 0.0447,-0.0447 0.009,-0.37027 -0.08,-0.72353 z m 2.78129,-1.93368 c 0,-1.12336 -0.0411,-1.19043 -0.72761,-1.18702 -1.57771,0.008 -1.91823,0.24751 -1.91823,1.35017 v 1.02747 h 1.32292 1.32292 z m -2.91042,0.13229 c 0,-0.86053 -0.29481,-0.97035 -1.43798,-0.53572 -0.83618,0.31791 -0.86211,0.63097 -0.0834,1.00654 1.09456,0.52789 1.52135,0.39581 1.52135,-0.47082 z m -0.0405,-1.43015 c 0.34147,-0.21104 0.56996,-1.21569 0.27648,-1.21569 -0.13404,0 -0.68844,0.41348 -1.232,0.91883 l -0.9883,0.91883 0.85127,-0.23643 c 0.46821,-0.13004 0.95985,-0.30353 1.09255,-0.38554 z m 2.74336,-0.48808 c 0.23249,-0.1819 0.50543,-0.72954 0.60655,-1.21697 0.19932,-0.96087 0.18307,-0.96355 -1.66046,-0.2738 -0.48482,0.18139 -1.11973,1.14897 -1.11973,1.70643 0,0.2653 1.78533,0.0882 2.17364,-0.21566 z m 3.79328,-0.26459 c -0.056,-0.1819 -0.17364,-0.65815 -0.26132,-1.05833 -0.14082,-0.64264 -0.28034,-0.7276 -1.1949,-0.7276 -1.07071,0 -1.0346,-0.0396 -1.50682,1.65364 -0.11269,0.4041 0.0741,0.46302 1.4679,0.46302 1.15557,0 1.56886,-0.0914 1.49514,-0.33073 z m 4.45283,-0.84602 c -0.15868,-0.41351 -1.43371,-1.44614 -2.45086,-1.98491 -0.61201,-0.32417 -0.60883,-0.3059 0.1109,0.63772 0.59591,0.78128 1.33261,1.29947 2.42909,1.70861 0.0318,0.0119 -0.008,-0.15077 -0.0891,-0.36142 z m -3.33916,-1.88711 c -1.26769,-1.16175 -1.86966,-1.21544 -1.49236,-0.13311 0.20272,0.58151 0.50916,0.83147 1.24301,1.01392 0.53568,0.13318 1.03309,0.19308 1.10536,0.13311 0.0723,-0.06 -0.31294,-0.51623 -0.85601,-1.01392 z m -1.91126,-0.045 c -0.22839,-0.92477 -0.59136,-1.31215 -0.91728,-0.97896 -0.13522,0.13825 -0.32672,0.57878 -0.42556,0.97896 -0.16798,0.6802 -0.12424,0.72761 0.67142,0.72761 0.79567,0 0.83941,-0.0474 0.67142,-0.72761 z m -66.147181,12.2262 c -0.15454,-1.44308 -0.258558,-1.70914 -0.626135,-1.6016 -0.242444,0.0709 -0.887292,0.20809 -1.432995,0.3048 l -0.992187,0.17585 v -1.44256 -1.44255 l 1.42248,-0.31833 c 1.358005,-0.30391 1.429828,-0.36278 1.584588,-1.29888 0.08916,-0.53929 0.163418,-1.9628 0.16502,-3.16335 l 0.0029,-2.18281 h 2.248959 2.248958 v 2.53137 c 0,2.28543 0.04499,2.51837 0.463021,2.39753 0.254661,-0.0736 2.427552,-0.63857 4.828646,-1.25546 2.401093,-0.61689 4.453098,-1.2493 4.56001,-1.40535 0.106913,-0.15604 0.19621,-0.7302 0.198438,-1.2759 l 0.0041,-0.99219 h 2.248959 2.248958 v 2.10196 2.10197 l -3.108854,0.95452 c -1.70987,0.52498 -3.287448,1.01767 -3.505729,1.09485 -0.281846,0.0997 0.139925,0.6285 1.455208,1.82459 l 1.852083,1.68426 1.852084,0.0799 1.852083,0.0799 v 1.32291 1.32292 l -2.910417,-0.0938 -2.910416,-0.0938 -1.322917,-1.03619 c -0.727604,-0.56991 -2.157873,-1.68341 -3.178376,-2.47446 l -1.85546,-1.43826 -1.31954,0.33595 -1.31954,0.33595 -0.07645,2.29849 -0.07645,2.29848 h -2.207916 -2.207834 z m 31.873632,-3.4288 v -5.15938 h -1.455209 -1.455208 v -1.05833 -1.05834 h 10.944245 10.944241 l 0.16826,1.22756 c 0.0925,0.67515 0.16825,2.01743 0.16825,2.98285 v 1.7553 l -6.945309,1.13542 c -3.819921,0.62448 -7.153671,1.19522 -7.408333,1.26831 -0.305504,0.0877 -0.463021,0.39685 -0.463021,0.90881 v 0.77592 h 4.990393 4.99039 l -0.12644,-0.66146 -0.12645,-0.66146 h 2.54439 2.54438 v 1.85209 1.85208 h -9.657288 -9.657291 z m 8.863541,-2.24716 c 5.926698,-1.1058 5.423958,-0.92123 5.423958,-1.99122 v -0.921 h -4.894791 -4.894792 v 1.85208 c 0,1.01865 0.02977,1.85161 0.06615,1.85104 0.03638,-5.8e-4 1.971146,-0.35648 4.299479,-0.7909 z m 50.821298,5.81903 -0.71243,-1.5875 h -4.05548 -4.05547 l -0.59063,1.45521 -0.59062,1.45521 h -2.59785 -2.59785 l 1.27131,-2.71567 c 0.69921,-1.49362 1.76301,-3.69363 2.36399,-4.88892 0.60098,-1.19529 1.09269,-2.23899 1.09269,-2.31933 0,-0.0803 -0.62508,-0.11276 -1.38906,-0.072 l -1.38907,0.0741 -0.0808,-1.26127 -0.0808,-1.26127 6.81755,0.0706 6.81754,0.0706 2.7162,6.08542 c 1.49391,3.34698 2.71887,6.17471 2.72214,6.28385 0.003,0.10914 -1.1089,0.19844 -2.47148,0.19844 h -2.47741 z m -2.07849,-4.56406 c -0.0712,-0.1819 -0.51933,-1.20008 -0.99588,-2.26263 -0.82179,-1.83229 -0.90763,-1.92778 -1.66498,-1.85208 -0.72088,0.0721 -0.89565,0.29205 -1.79747,2.26262 l -0.99896,2.18282 h 2.79336 c 2.12733,0 2.7625,-0.0789 2.66393,-0.33073 z m -66.602182,0.85989 v -5.02708 h -1.455209 -1.455208 v -1.19062 -1.19063 h 3.704167 3.704166 v 6.21771 6.21771 h -2.248958 -2.248958 z"
       id="path1" /></g></svg>
