<svg width="168" height="169" viewBox="0 0 168 169" fill="none" xmlns="http://www.w3.org/2000/svg">
<path d="M166.879 79.903C166.879 123.595 131.344 159.019 87.504 159.019C65.7418 159.019 45.3819 143.63 30.4116 122.568C15.4544 101.524 6.02739 75.0146 6.02739 53.1448C6.02739 42.2276 8.37606 33.5366 12.5422 26.6305C16.7078 19.7253 22.721 14.5537 30.1315 10.7232C44.9857 3.04501 65.3888 0.787156 87.504 0.787156C131.344 0.787156 166.879 36.2109 166.879 79.903Z" stroke="#74A528" stroke-width="1.57431"/>
<path d="M166.854 86.4524C166.854 131.333 130.176 167.727 84.9175 167.727C62.4509 167.727 41.4339 151.917 25.9814 130.28C10.5419 108.661 0.811403 81.4287 0.811403 58.9631C0.811403 47.7487 3.23557 38.8213 7.53562 31.7272C11.8352 24.6339 18.0422 19.321 25.6923 15.3856C41.0264 7.49717 62.0886 5.17761 84.9175 5.17761C130.176 5.17761 166.854 41.5717 166.854 86.4524Z" stroke="#74A528" stroke-opacity="0.4" stroke-width="1.62281"/>
</svg>
