<svg width="793" height="793" viewBox="0 0 793 793" fill="none" xmlns="http://www.w3.org/2000/svg">
<path d="M324.806 721.076C407.566 739.285 494.155 725.216 566.892 681.742C639.629 638.269 693.029 568.669 716.186 487.156C739.343 405.643 730.512 318.364 691.495 243.142C652.479 167.919 586.22 110.428 506.248 82.4059C426.276 54.3841 338.624 57.946 261.19 92.3643C183.756 126.783 122.38 189.461 89.5953 267.601C56.8107 345.741 55.0903 433.449 84.7853 512.814C114.48 592.18 173.351 657.217 249.376 694.645L293.054 605.927C239.634 579.627 198.268 533.928 177.402 478.161C156.537 422.394 157.746 360.765 180.782 305.86C203.819 250.954 246.945 206.912 301.355 182.728C355.765 158.543 417.355 156.04 473.547 175.73C529.74 195.42 576.298 235.817 603.714 288.673C631.129 341.529 637.334 402.856 621.063 460.132C604.791 517.408 567.269 566.313 516.16 596.86C465.05 627.408 404.207 637.293 346.056 624.498L324.806 721.076Z" fill="#DFEFB2"/>
</svg>
