<svg width="793" height="793" viewBox="0 0 793 793" fill="none" xmlns="http://www.w3.org/2000/svg">
<path d="M324.806 721.076C407.566 739.285 494.155 725.216 566.892 681.742C639.629 638.269 693.029 568.669 716.186 487.156C739.343 405.643 730.512 318.364 691.495 243.142C652.479 167.919 586.22 110.428 506.248 82.4059C426.276 54.3841 338.624 57.946 261.19 92.3643C183.756 126.783 122.38 189.461 89.5953 267.601C56.8107 345.741 55.0903 433.449 84.7853 512.814C114.48 592.18 173.351 657.217 249.376 694.645L293.054 605.927C239.634 579.627 198.268 533.928 177.402 478.161C156.537 422.394 157.746 360.765 180.782 305.86C203.819 250.954 246.945 206.912 301.355 182.728C355.765 158.543 417.355 156.04 473.547 175.73C529.74 195.42 576.298 235.817 603.714 288.673C631.129 341.529 637.334 402.856 621.063 460.132C604.791 517.408 567.269 566.313 516.16 596.86C465.05 627.408 404.207 637.293 346.056 624.498L324.806 721.076Z" fill="#DFEFB2"/>
<path d="M360.819 116.464C363.474 115.919 365.785 116.367 367.752 117.807C369.714 119.22 371.01 121.461 371.64 124.53L374.417 138.052L367.366 139.5L364.785 126.932C364.467 125.384 363.818 124.263 362.841 123.571C361.863 122.878 360.696 122.671 359.341 122.949C357.986 123.228 356.996 123.878 356.37 124.9C355.744 125.922 355.59 127.207 355.908 128.755L358.489 141.324L351.397 142.78L345.092 112.086L352.185 110.629L354.375 121.289C354.884 120.119 355.698 119.101 356.817 118.237C357.936 117.373 359.27 116.782 360.819 116.464Z" fill="#18492B"/>
<path d="M389.358 137.422C387.071 137.78 384.931 137.615 382.938 136.927C380.972 136.235 379.317 135.065 377.974 133.418C376.658 131.767 375.81 129.728 375.43 127.302C375.055 124.903 375.255 122.714 376.031 120.736C376.803 118.729 378.033 117.094 379.721 115.829C381.409 114.565 383.396 113.754 385.683 113.396C387.97 113.038 390.11 113.203 392.104 113.891C394.097 114.579 395.768 115.76 397.116 117.435C398.46 119.082 399.319 121.105 399.695 123.503C400.07 125.902 399.858 128.107 399.058 130.118C398.282 132.096 397.037 133.72 395.321 134.989C393.633 136.253 391.645 137.064 389.358 137.422ZM388.389 131.231C389.756 131.017 390.835 130.334 391.626 129.181C392.445 128.024 392.708 126.512 392.415 124.643C392.123 122.774 391.424 121.412 390.318 120.557C389.241 119.697 388.019 119.374 386.652 119.587C385.258 119.806 384.179 120.489 383.416 121.637C382.648 122.757 382.413 124.266 382.71 126.162C383.002 128.031 383.673 129.397 384.723 130.262C385.8 131.122 387.022 131.445 388.389 131.231Z" fill="#18492B"/>
<path d="M652.62 310.027C652.004 307.796 651.925 305.651 652.382 303.592C652.846 301.56 653.82 299.783 655.304 298.261C656.795 296.766 658.724 295.692 661.092 295.039C663.432 294.393 665.629 294.343 667.683 294.889C669.765 295.428 671.529 296.464 672.977 297.997C674.425 299.53 675.457 301.413 676.073 303.644C676.689 305.875 676.768 308.021 676.311 310.079C675.854 312.138 674.87 313.933 673.36 315.462C671.876 316.984 669.964 318.068 667.624 318.714C665.284 319.36 663.069 319.4 660.98 318.834C658.926 318.288 657.171 317.235 655.716 315.674C654.268 314.141 653.236 312.259 652.62 310.027ZM658.661 308.36C659.029 309.694 659.831 310.688 661.066 311.343C662.308 312.025 663.841 312.115 665.664 311.611C667.487 311.108 668.761 310.259 669.486 309.064C670.218 307.895 670.4 306.644 670.032 305.311C669.656 303.95 668.855 302.956 667.627 302.328C666.427 301.693 664.902 301.631 663.051 302.141C661.228 302.644 659.947 303.467 659.207 304.608C658.475 305.776 658.293 307.027 658.661 308.36Z" fill="#18492B"/>
<path d="M414.216 135.204C411.901 135.211 409.811 134.724 407.945 133.742C406.107 132.76 404.648 131.353 403.57 129.521C402.519 127.69 401.99 125.546 401.982 123.09C401.975 120.662 402.504 118.529 403.571 116.691C404.638 114.824 406.101 113.394 407.961 112.4C409.821 111.406 411.909 110.906 414.224 110.898C416.539 110.891 418.629 111.378 420.495 112.36C422.362 113.342 423.834 114.763 424.913 116.623C425.991 118.455 426.534 120.584 426.542 123.012C426.55 125.44 426.006 127.587 424.911 129.454C423.844 131.292 422.367 132.708 420.478 133.702C418.618 134.696 416.531 135.197 414.216 135.204ZM414.196 128.937C415.58 128.933 416.749 128.421 417.706 127.402C418.691 126.382 419.18 124.927 419.174 123.035C419.168 121.144 418.684 119.692 417.721 118.679C416.786 117.665 415.627 117.161 414.244 117.165C412.832 117.17 411.662 117.682 410.734 118.701C409.805 119.692 409.344 121.147 409.35 123.067C409.356 124.958 409.813 126.41 410.719 127.424C411.654 128.437 412.813 128.942 414.196 128.937Z" fill="#18492B"/>
<path d="M658.111 334.507C657.84 332.208 658.087 330.076 658.85 328.11C659.617 326.172 660.849 324.563 662.546 323.284C664.246 322.032 666.316 321.262 668.755 320.975C671.166 320.692 673.346 320.975 675.293 321.826C677.269 322.674 678.857 323.965 680.056 325.7C681.255 327.435 681.989 329.452 682.26 331.751C682.53 334.05 682.284 336.182 681.52 338.148C680.757 340.114 679.512 341.739 677.787 343.022C676.09 344.302 674.036 345.083 671.625 345.367C669.214 345.651 667.019 345.355 665.04 344.479C663.092 343.628 661.517 342.321 660.315 340.558C659.116 338.823 658.381 336.806 658.111 334.507ZM664.335 333.775C664.496 335.149 665.138 336.253 666.259 337.087C667.384 337.95 668.886 338.271 670.764 338.05C672.643 337.828 674.03 337.182 674.928 336.11C675.828 335.066 676.197 333.857 676.036 332.483C675.871 331.082 675.229 329.977 674.111 329.171C673.021 328.361 671.523 328.069 669.616 328.293C667.738 328.514 666.347 329.132 665.443 330.148C664.542 331.192 664.173 332.401 664.335 333.775Z" fill="#18492B"/>
<path d="M674.018 348.278C676.441 348.117 678.597 348.427 680.488 349.206C682.381 350.014 683.873 351.174 684.963 352.686C686.054 354.198 686.664 355.925 686.793 357.869C686.896 359.418 686.666 360.848 686.102 362.159C685.54 363.497 684.735 364.569 683.685 365.375L694.628 364.647L695.108 371.872L663.842 373.951L663.362 366.726L666.742 366.501C665.57 365.9 664.604 364.988 663.844 363.765C663.086 362.571 662.651 361.143 662.541 359.481C662.412 357.537 662.788 355.744 663.669 354.101C664.578 352.456 665.917 351.108 667.686 350.057C669.485 349.032 671.596 348.439 674.018 348.278ZM675.15 365.942C676.953 365.822 678.342 365.221 679.316 364.137C680.293 363.082 680.734 361.836 680.638 360.4C680.543 358.963 679.94 357.773 678.83 356.828C677.751 355.909 676.31 355.51 674.507 355.63C672.704 355.75 671.301 356.338 670.296 357.395C669.321 358.479 668.881 359.738 668.977 361.175C669.072 362.612 669.674 363.788 670.782 364.705C671.891 365.649 673.347 366.062 675.15 365.942Z" fill="#18492B"/>
<path d="M438.485 137.1C436.441 136.84 434.665 136.258 433.158 135.355C431.651 134.452 430.512 133.339 429.741 132.018C428.973 130.668 428.63 129.23 428.71 127.703L435.809 128.606C435.79 129.429 436.084 130.135 436.692 130.725C437.3 131.314 438.094 131.671 439.074 131.796C439.97 131.91 440.678 131.829 441.197 131.554C441.747 131.254 442.058 130.824 442.129 130.264C442.215 129.592 441.927 129.057 441.266 128.66C440.609 128.235 439.521 127.727 438.002 127.135C436.372 126.529 435.024 125.945 433.957 125.383C432.894 124.792 432.015 123.983 431.32 122.956C430.629 121.9 430.385 120.574 430.588 118.978C430.759 117.634 431.278 116.462 432.145 115.463C433.044 114.439 434.248 113.695 435.758 113.233C437.296 112.774 439.06 112.671 441.048 112.924C443.988 113.298 446.206 114.32 447.701 115.99C449.224 117.663 449.959 119.72 449.904 122.161L443.267 121.317C443.259 120.49 442.976 119.8 442.421 119.245C441.893 118.694 441.14 118.357 440.159 118.232C439.319 118.125 438.654 118.211 438.163 118.49C437.676 118.741 437.396 119.147 437.325 119.707C437.24 120.379 437.526 120.928 438.183 121.353C438.868 121.781 439.946 122.26 441.415 122.788C443.095 123.457 444.452 124.085 445.487 124.672C446.526 125.231 447.389 126.052 448.076 127.136C448.795 128.195 449.065 129.538 448.887 131.166C448.712 132.538 448.163 133.721 447.24 134.713C446.349 135.681 445.136 136.38 443.601 136.811C442.095 137.246 440.389 137.342 438.485 137.1Z" fill="#18492B"/>
<path d="M476.676 132.515C476.49 133.166 476.256 133.833 475.973 134.516L460.214 130.02C459.92 131.463 460.058 132.677 460.629 133.661C461.234 134.627 462.12 135.276 463.288 135.609C465.025 136.104 466.442 135.716 467.539 134.444L474.95 136.558C474.144 137.942 473.068 139.089 471.723 139.997C470.405 140.912 468.903 141.496 467.216 141.749C465.53 142.002 463.763 141.865 461.917 141.338C459.691 140.703 457.845 139.663 456.379 138.217C454.912 136.772 453.942 135.027 453.468 132.984C452.994 130.94 453.094 128.738 453.768 126.376C454.442 124.014 455.505 122.087 456.959 120.593C458.439 119.107 460.184 118.137 462.192 117.683C464.201 117.228 466.332 117.322 468.585 117.965C470.784 118.592 472.607 119.611 474.054 121.022C475.501 122.433 476.455 124.129 476.917 126.11C477.407 128.1 477.326 130.234 476.676 132.515ZM470.072 128.649C470.413 127.455 470.277 126.389 469.664 125.45C469.051 124.512 468.134 123.869 466.912 123.521C465.745 123.188 464.657 123.244 463.649 123.691C462.668 124.145 461.905 124.969 461.358 126.164L470.072 128.649Z" fill="#18492B"/>
<path d="M315.171 137.54C314.452 134.693 314.427 132.006 315.099 129.478C315.763 126.922 317.034 124.752 318.912 122.967C320.811 121.148 323.156 119.885 325.948 119.179C329.369 118.315 332.525 118.477 335.418 119.668C338.31 120.859 340.561 122.91 342.171 125.823L334.453 127.774C333.574 126.715 332.521 126.005 331.295 125.646C330.096 125.279 328.825 125.265 327.484 125.604C325.322 126.151 323.761 127.346 322.8 129.191C321.84 131.035 321.678 133.216 322.314 135.734C322.951 138.252 324.13 140.094 325.851 141.26C327.573 142.427 329.515 142.736 331.677 142.19C333.018 141.851 334.129 141.235 335.01 140.343C335.918 139.443 336.507 138.319 336.778 136.97L344.496 135.019C344.463 138.346 343.458 141.221 341.478 143.643C339.492 146.038 336.789 147.668 333.368 148.532C330.576 149.238 327.916 149.255 325.388 148.584C322.88 147.879 320.73 146.573 318.938 144.668C317.146 142.762 315.891 140.386 315.171 137.54Z" fill="#18492B"/>
<path d="M510.08 158.893C507.568 157.668 505.543 155.959 504.006 153.765C502.494 151.583 501.624 149.149 501.395 146.462C501.204 143.762 501.745 141.105 503.02 138.492C504.294 135.878 506.047 133.828 508.279 132.341C510.537 130.866 512.991 130.053 515.641 129.9C518.316 129.759 520.909 130.301 523.422 131.526C525.934 132.751 527.946 134.454 529.457 136.636C530.994 138.83 531.852 141.258 532.03 143.92C532.234 146.594 531.698 149.238 530.424 151.852C529.15 154.466 527.391 156.529 525.146 158.041C522.914 159.528 520.472 160.348 517.823 160.501C515.173 160.653 512.592 160.117 510.08 158.893ZM512.975 152.955C515.106 153.994 517.153 154.113 519.114 153.31C521.101 152.52 522.663 150.958 523.801 148.623C524.952 146.263 525.22 144.07 524.607 142.044C524.031 140.004 522.677 138.465 520.545 137.426C518.389 136.374 516.323 136.231 514.348 136.996C512.399 137.773 510.843 139.354 509.68 141.739C508.53 144.099 508.243 146.299 508.819 148.338C509.432 150.365 510.818 151.904 512.975 152.955Z" fill="#18492B"/>
<path d="M543.372 153.433C544.767 152.757 546.198 152.432 547.665 152.458C549.146 152.46 550.552 152.862 551.882 153.662L547.931 160.229L546.225 159.203C544.677 158.271 543.313 157.911 542.131 158.123C540.964 158.31 539.878 159.238 538.874 160.907L533.219 170.304L527.015 166.571L539.198 146.325L545.402 150.059L543.372 153.433Z" fill="#18492B"/>
<path d="M563.655 162.256C564.955 163.296 565.879 164.469 566.425 165.774C566.994 167.097 567.198 168.399 567.04 169.682L569.13 167.07L574.783 171.594L560.047 190.01C558.689 191.707 557.122 192.966 555.345 193.786C553.573 194.645 551.666 194.927 549.625 194.632C547.605 194.354 545.571 193.395 543.521 191.754C540.788 189.567 539.093 187.144 538.436 184.486C537.762 181.849 538.186 179.332 539.707 176.934L545.294 181.405C544.906 182.251 544.884 183.138 545.228 184.063C545.554 185.011 546.202 185.873 547.172 186.649C548.34 187.584 549.539 187.983 550.769 187.847C552.004 187.75 553.212 186.963 554.394 185.486L556.484 182.874C555.245 183.293 553.92 183.39 552.509 183.165C551.116 182.918 549.769 182.274 548.469 181.233C546.948 180.016 545.879 178.528 545.262 176.769C544.663 174.988 544.572 173.09 544.991 171.075C545.45 169.056 546.438 167.099 547.955 165.203C549.472 163.308 551.156 161.926 553.008 161.057C554.881 160.207 556.744 159.889 558.596 160.106C560.447 160.322 562.134 161.039 563.655 162.256ZM561.748 176.295C562.877 174.884 563.371 173.454 563.23 172.003C563.111 170.57 562.49 169.404 561.366 168.505C560.242 167.605 558.957 167.246 557.51 167.426C556.104 167.602 554.836 168.396 553.708 169.807C552.579 171.217 552.065 172.65 552.166 174.105C552.307 175.555 552.94 176.73 554.064 177.63C555.188 178.529 556.462 178.88 557.886 178.682C559.332 178.501 560.62 177.706 561.748 176.295Z" fill="#18492B"/>
<path d="M571.982 182.639C573.645 180.87 575.433 179.626 577.348 178.907C579.284 178.208 581.166 178.04 582.994 178.402C584.823 178.765 586.447 179.613 587.866 180.947C589.08 182.088 589.908 183.33 590.349 184.674C590.81 186.038 590.911 187.353 590.651 188.619L592.942 186.182L598.218 191.14L582.038 208.359L576.761 203.4L579.052 200.962C577.784 201.281 576.455 201.253 575.065 200.876C573.696 200.52 572.404 199.771 571.191 198.63C569.792 197.316 568.855 195.757 568.379 193.954C567.923 192.131 567.984 190.232 568.562 188.257C569.179 186.281 570.32 184.408 571.982 182.639ZM584.851 194.791C586.089 193.474 586.695 192.087 586.669 190.63C586.665 189.193 586.138 187.981 585.089 186.995C584.039 186.009 582.787 185.548 581.331 185.614C579.915 185.678 578.589 186.368 577.351 187.684C576.114 189.001 575.488 190.388 575.473 191.847C575.499 193.304 576.036 194.525 577.085 195.511C578.134 196.497 579.376 196.948 580.812 196.863C582.268 196.798 583.614 196.107 584.851 194.791Z" fill="#18492B"/>
<path d="M613.187 205.747C615.066 207.777 615.899 210.007 615.685 212.436C615.51 214.866 614.273 217.146 611.974 219.274L601.842 228.649L596.953 223.366L606.37 214.652C607.53 213.578 608.153 212.444 608.239 211.248C608.326 210.053 607.899 208.948 606.96 207.933C606.02 206.917 604.951 206.406 603.753 206.4C602.555 206.393 601.375 206.927 600.215 208.001L590.798 216.715L585.88 211.4L603.222 195.352L608.14 200.667L605.84 202.795C607.106 202.625 608.377 202.794 609.656 203.303C610.956 203.793 612.133 204.607 613.187 205.747Z" fill="#18492B"/>
<path d="M630.04 221.26C629.319 220.213 629.029 219.145 629.169 218.054C629.349 216.971 629.892 216.117 630.799 215.493C631.729 214.853 632.72 214.65 633.773 214.885C634.865 215.127 635.771 215.771 636.492 216.817C637.196 217.84 637.459 218.893 637.279 219.976C637.139 221.067 636.604 221.932 635.674 222.573C634.767 223.197 633.767 223.388 632.675 223.146C631.623 222.912 630.744 222.283 630.04 221.26ZM630.058 225.617L610.597 239.017L606.491 233.053L625.951 219.653L630.058 225.617Z" fill="#18492B"/>
<path d="M623.27 236.508C625.371 235.237 627.463 234.55 629.544 234.446C631.64 234.366 633.571 234.831 635.337 235.842C637.117 236.876 638.606 238.384 639.804 240.365C641.338 242.901 641.952 245.417 641.646 247.911C641.355 250.429 640.162 252.685 638.068 254.677L634.08 248.082C635.29 246.592 635.413 245.05 634.448 243.455C633.762 242.32 632.767 241.684 631.464 241.548C630.186 241.398 628.725 241.819 627.082 242.813C625.44 243.806 624.376 244.911 623.891 246.128C623.431 247.33 623.544 248.499 624.23 249.634C625.195 251.229 626.618 251.836 628.5 251.457L632.488 258.052C629.799 258.952 627.26 258.953 624.87 258.056C622.48 257.159 620.525 255.455 619.006 252.942C617.808 250.962 617.164 248.942 617.075 246.885C617 244.852 617.485 242.926 618.529 241.107C619.588 239.312 621.168 237.779 623.27 236.508Z" fill="#18492B"/>
<path d="M677.337 288.884L671.853 290.775L667.905 279.326L661.981 281.369L664.935 289.936L659.61 291.772L656.657 283.205L645.288 287.125L642.927 280.279L671.03 270.59L677.337 288.884Z" fill="#18492B"/>
</svg>
