<svg width="525" height="640" viewBox="0 0 525 640" fill="none" xmlns="http://www.w3.org/2000/svg">
<path d="M-33.3326 258.746C24.2127 163.623 135.01 50.1302 240.178 113.752C345.345 177.375 461.698 364.011 404.153 459.133C346.608 554.256 135.813 543.218 99.4277 521.205C-5.73977 457.583 -90.8779 353.868 -33.3326 258.746Z" fill="#E7F3C6"/>
<path d="M-22.0642 227.532C6.68783 180.005 48.7289 127.916 96.6864 95.6601C144.634 63.4107 198.411 51.0294 250.771 82.7054C303.262 114.46 358.586 176.95 393.595 243.392C411.098 276.609 423.51 310.789 427.959 342.585C432.408 374.382 428.889 403.758 414.58 427.411C400.265 451.073 376.401 468.163 348.036 480.137C319.672 492.109 286.843 498.951 254.655 502.138C222.468 505.324 190.943 504.853 165.197 502.213C152.324 500.892 140.902 499.03 131.569 496.813C122.226 494.594 115.012 492.028 110.53 489.317C57.9872 457.53 10.4825 415.748 -16.6995 370.069C-43.8717 324.406 -50.7178 274.897 -22.0642 227.532Z" stroke="url(#paint0_linear_404_51)" stroke-width="0.983406"/>
<defs>
<linearGradient id="paint0_linear_404_51" x1="97.9536" y1="510.388" x2="305.452" y2="67.8549" gradientUnits="userSpaceOnUse">
<stop stop-color="#3E6039"/>
<stop offset="1" stop-color="#75A529"/>
</linearGradient>
</defs>
</svg>
