<?xml version="1.0" encoding="UTF-8" standalone="no"?>
<!-- Created with Inkscape (http://www.inkscape.org/) -->

<svg
   width="43.581799mm"
   height="41.747955mm"
   viewBox="0 0 43.581799 41.747955"
   version="1.1"
   id="svg1"
   xml:space="preserve"
   xmlns="http://www.w3.org/2000/svg"
   xmlns:svg="http://www.w3.org/2000/svg"><defs
     id="defs1" /><g
     id="layer1"
     transform="translate(-31.713921,-144.98798)"><path
       style="fill:#dfefb2"
       d="m 48.753867,186.35696 c -9.417991,-1.56725 -11.132105,-2.62182 -15.254494,-9.385 -0.221749,-0.3638 -0.672856,-1.43536 -1.002458,-2.38125 -0.807221,-2.31654 -1.043294,-7.72988 -0.457323,-10.48677 1.473459,-6.93238 6.357964,-13.47664 12.295966,-16.47413 7.372498,-3.72162 13.666843,-3.51315 19.256015,0.63777 0.716033,0.53177 2.256489,1.93929 3.423237,3.12781 1.166748,1.18852 2.853466,2.85624 3.748261,3.70604 1.143175,1.08569 1.898216,2.10838 2.539406,3.43958 1.277766,2.65283 1.22599,2.33781 1.953946,11.88843 0.353287,4.63504 -1.693905,9.1437 -5.39235,11.8759 -4.743577,3.50429 -13.87158,5.2562 -21.110206,4.05162 z m 12.038542,-1.13913 c 8.273061,-2.01719 12.876291,-6.12136 13.744218,-12.25413 0.189349,-1.33793 0.221392,-2.45512 0.08123,-2.83228 -0.214708,-0.57777 -0.256108,-0.53949 -0.572251,0.52917 -0.573696,1.93926 -2.343599,5.0782 -3.758429,6.6656 -3.669165,4.11671 -10.510495,7.10855 -18.228302,7.97158 -0.801617,0.0896 -1.635055,0.28468 -1.852083,0.43343 -0.768085,0.52643 8.081199,0.0973 10.585612,-0.51337 z m -6.647826,-0.98398 c 7.306816,-1.47779 12.156804,-3.72252 15.245405,-7.05607 2.595832,-2.80171 4.631587,-7.27716 4.631587,-10.1822 0,-2.23864 -3.131145,-9.35679 -5.491144,-12.48324 -0.849552,-1.12546 -3.711362,-2.48011 -7.177401,-3.39744 -2.296399,-0.60777 -3.061891,-0.67627 -7.836663,-0.70118 -4.787559,-0.025 -5.502276,0.0312 -7.50246,0.59026 -1.600802,0.44738 -2.290676,0.53797 -2.500312,0.32834 -0.466635,-0.46664 0.02892,-0.7036 2.859022,-1.36715 2.231578,-0.52322 3.329356,-0.61828 7.011459,-0.60716 4.570132,0.0138 7.447665,0.4506 10.916124,1.657 1.380353,0.48011 1.500677,0.48738 1.281277,0.0774 -0.460933,-0.86126 -3.167835,-2.83475 -5.085349,-3.70752 -4.347434,-1.97877 -9.953775,-1.76886 -14.711281,0.55081 -1.490564,0.72677 -1.650072,0.87334 -1.260481,1.15821 0.634032,0.46362 0.324352,0.77845 -1.123813,1.14252 -3.15453,0.79306 -5.65559,3.25279 -7.965312,7.8337 -1.738915,3.44882 -2.285525,6.10488 -2.28365,11.0966 0.0024,6.30211 0.720805,8.44646 3.777017,11.27342 1.780441,1.64689 3.841288,2.87999 6.533593,3.90935 2.057053,0.78649 6.457271,0.73884 10.682382,-0.11568 z M 32.583165,168.53396 c 0.07609,-4.03503 -0.180938,-4.96694 -0.474975,-1.72213 -0.169395,1.86934 0.03788,5.82172 0.291977,5.56761 0.06193,-0.0619 0.144283,-1.79239 0.182998,-3.84548 z m 0.344152,-4.84081 c -0.08446,-0.21107 -0.147157,-0.14837 -0.159853,0.15985 -0.01149,0.27892 0.05105,0.43519 0.138965,0.34727 0.08792,-0.0879 0.09732,-0.31613 0.02089,-0.50712 z m 41.094258,-1.35423 c 0,-0.73408 -1.113177,-3.54 -1.796404,-4.52808 -1.302941,-1.88431 -1.422374,-1.30253 -0.221128,1.07717 0.650001,1.28766 1.263699,2.66863 1.363775,3.06881 0.184843,0.73915 0.653757,1.01322 0.653757,0.3821 z"
       id="path2" /></g></svg>
