<svg width="364" height="511" viewBox="0 0 364 511" fill="none" xmlns="http://www.w3.org/2000/svg">
<path d="M92.4964 1C20 25 -45.8594 147.6 46.5406 218M46.5406 218C55.0397 217.167 69.9379 213.8 61.5379 207C51.0379 198.5 49.0433 212 46.5406 218ZM46.5406 218C44.5611 270.762 45.5194 349.784 152.038 362.123M155.538 362.5C154.359 362.382 153.192 362.256 152.038 362.123M152.038 362.123C162.563 369.589 176.411 385.318 166.038 399.089M166.038 399.089C158.999 409.5 159.499 412.5 153.499 410.5C148.665 408.059 143.238 401.561 166.038 399.089ZM166.038 399.089C206.371 405.393 283.838 428.3 271.038 469.5C258.238 510.7 329.371 512 366.538 507.5" stroke="#18492B" stroke-width="1.5" stroke-dasharray="3 3"/>
</svg>
