<svg width="365" height="510" viewBox="0 0 365 510" fill="none" xmlns="http://www.w3.org/2000/svg">
<path d="M66.0418 1C21.3751 43.6667 -44.8582 146.6 47.5418 217M47.5418 217C56.0409 216.167 70.9391 212.8 62.5391 206C52.0391 197.5 50.0445 211 47.5418 217ZM47.5418 217C45.5623 269.762 46.5207 348.784 153.039 361.123M156.539 361.5C155.36 361.382 154.193 361.256 153.039 361.123M153.039 361.123C163.564 368.589 177.412 384.318 167.039 398.089M167.039 398.089C160 408.5 160.5 411.5 154.5 409.5C149.667 407.059 144.239 400.561 167.039 398.089ZM167.039 398.089C207.372 404.393 284.839 427.3 272.039 468.5C259.239 509.7 330.372 511 367.539 506.5" stroke="#18492B" stroke-width="1.5" stroke-dasharray="3 3"/>
</svg>
