<svg width="1468" height="1146" viewBox="0 0 1468 1146" fill="none" xmlns="http://www.w3.org/2000/svg">
<path d="M657.994 2C362.994 39.8333 -189.504 211 68.9928 467.5" stroke="#18492B" stroke-width="3" stroke-dasharray="6 6"/>
<path d="M69.5 468.5C124.325 502.785 246.094 567.293 323.5 570.848M323.5 570.848C329.63 571.129 335.482 571.028 341 570.5C435 561.5 342.5 464.195 323.5 570.848ZM323.5 570.848C303.167 650.065 304.8 806.1 474 796.5C666.146 785.598 749.345 880.755 765.212 947M765.212 947C766.81 953.673 767.725 960.052 768 966C771 1031 688.424 973 765.212 947ZM765.212 947C826.975 933 967.3 933.1 1034.5 1045.5C1118.5 1186 1459 1167 1473.5 1045.5" stroke="#18492B" stroke-width="3" stroke-dasharray="6 6"/>
</svg>
