<?xml version="1.0" encoding="UTF-8" standalone="no"?>
<svg
   width="1468"
   height="1181"
   viewBox="0 0 1468 1181"
   fill="none"
   version="1.1"
   id="svg2"
   sodipodi:docname="content_line.svg"
   inkscape:version="1.4 (86a8ad7, 2024-10-11)"
   xml:space="preserve"
   xmlns:inkscape="http://www.inkscape.org/namespaces/inkscape"
   xmlns:sodipodi="http://sodipodi.sourceforge.net/DTD/sodipodi-0.dtd"
   xmlns="http://www.w3.org/2000/svg"
   xmlns:svg="http://www.w3.org/2000/svg"><defs
     id="defs2" /><sodipodi:namedview
     id="namedview2"
     pagecolor="#ffffff"
     bordercolor="#000000"
     borderopacity="0.25"
     inkscape:showpageshadow="2"
     inkscape:pageopacity="0.0"
     inkscape:pagecheckerboard="0"
     inkscape:deskcolor="#d1d1d1"
     inkscape:zoom="0.25575546"
     inkscape:cx="48.874811"
     inkscape:cy="-177.90431"
     inkscape:window-width="1920"
     inkscape:window-height="1009"
     inkscape:window-x="-8"
     inkscape:window-y="-8"
     inkscape:window-maximized="1"
     inkscape:current-layer="svg2" /><path
     d="m 657.994,28 c -295,37.8333 -847.498,209 -589.0012,465.5"
     stroke="#18492b"
     stroke-width="3"
     stroke-dasharray="6, 6"
     id="path1" /><path
     d="m 69.5,494.5 c 54.825,34.285 176.594,98.793 254,102.348 m 0,0 c 6.13,0.281 11.982,0.18 17.5,-0.348 94,-9 1.5,-106.305 -17.5,0.348 z m 0,0 C 303.167,676.065 304.8,832.1 474,822.5 666.146,811.598 749.345,906.755 765.212,973 m 0,0 c 1.598,6.673 2.513,13.052 2.788,19 3,65 -79.576,7 -2.788,-19 z m 0,0 c 61.763,-14 202.088,-13.9 269.288,98.5 84,140.5 424.5,121.5 439,0"
     stroke="#18492b"
     stroke-width="3"
     stroke-dasharray="6, 6"
     id="path2" /><g
     id="g6"
     transform="matrix(0.12511659,0.04370315,-0.04370315,0.12511659,1273.4976,-682.98071)"
     style="stroke-width:7.54548;fill:#18492b;fill-opacity:1"><path
       style="fill:#18492b;fill-opacity:1;stroke-width:7.54548"
       d="m -2479.4571,6811.2028 c -25.5671,-47.7372 -48.1091,-89.8599 -50.0934,-93.6064 l -3.6078,-6.8116 -42.0418,33.8836 c -23.1229,18.6361 -42.3077,33.8706 -42.6327,33.8546 -0.325,-0.016 -14.5115,-44.881 -31.5257,-99.6999 l -30.9349,-99.6709 -8.0451,-4.4734 c -4.4249,-2.4604 -48.018,-26.3441 -96.8734,-53.0751 -48.8556,-26.731 -88.7476,-48.6586 -88.6489,-48.728 0.6344,-0.4467 780.3187,-116.3494 780.5584,-116.0326 0.2957,0.3907 -338.1067,539.9723 -339.1354,540.7506 -0.2936,0.2221 -21.4523,-38.6539 -47.0193,-86.3909 z"
       id="path4"
       sodipodi:nodetypes="sscscscssssss" /><path
       style="fill:#37a662;fill-opacity:1;stroke:none;stroke-width:25.6665;stroke-dasharray:51.333, 51.333"
       d="m -2680.7579,6578.9863 63.4376,197.8138 37.8602,-149.279 486.1155,-270.6076 z"
       id="path5"
       sodipodi:nodetypes="ccccc" /><path
       style="fill:#18492b;fill-opacity:1;stroke:none;stroke-width:25.6665;stroke-dasharray:51.333, 51.333"
       d="m -2579.4601,6627.5211 46.3018,83.2637 -84.6745,67.7382 0.5125,-1.7229 v 0 z"
       id="path6" /></g><rect
     style="fill:#18492b;fill-opacity:1;stroke:none;stroke-width:3.40157;stroke-dasharray:6.80315, 6.80315"
     id="rect6"
     width="52.296047"
     height="6.3537254"
     x="578.7439"
     y="131.92239"
     rx="4.2489061"
     ry="4.1220012"
     transform="rotate(-8.1314403)" /><rect
     style="fill:#18492b;fill-opacity:1;stroke:none;stroke-width:3.40157;stroke-dasharray:6.80315, 6.80315"
     id="rect7"
     width="82.10968"
     height="8.3087177"
     x="554.76764"
     y="114.346"
     rx="4.2489061"
     ry="4.1220012"
     transform="rotate(-7.8566914)" /><rect
     style="fill:#18492b;fill-opacity:1;stroke:none;stroke-width:3.40157;stroke-dasharray:6.80315, 6.80315"
     id="rect8"
     width="65.003502"
     height="4.8874812"
     x="493.79773"
     y="105.85404"
     rx="4.2489061"
     ry="4.1220012"
     transform="rotate(-8.6173907)" /><rect
     style="fill:#18492b;fill-opacity:1;stroke:none;stroke-width:3.40157;stroke-dasharray:6.80315, 6.80315"
     id="rect9"
     width="65.003502"
     height="4.8874812"
     x="537.36121"
     y="161.70885"
     rx="2.5030737"
     ry="4.1220012"
     transform="rotate(-9.1328397)" /><rect
     style="fill:#18492b;fill-opacity:1;stroke:none;stroke-width:3.40347;stroke-dasharray:6.80696, 6.80696"
     id="rect10"
     width="62.820442"
     height="5.4977441"
     x="597.10327"
     y="94.333023"
     rx="4.242487"
     ry="4.1186047"
     transform="matrix(0.99245636,-0.12259841,0.07553926,0.99714283,0,0)" /></svg>
