<?xml version="1.0" encoding="UTF-8" standalone="no"?>
<!-- Created with Inkscape (http://www.inkscape.org/) -->

<svg
   width="371.8353mm"
   height="54.175213mm"
   viewBox="0 0 371.8353 54.175213"
   version="1.1"
   id="svg1"
   xml:space="preserve"
   xmlns="http://www.w3.org/2000/svg"
   xmlns:svg="http://www.w3.org/2000/svg"><defs
     id="defs1" /><g
     id="layer1"
     transform="translate(88.369243,98.795419)"><path
       style="fill:#2e5848;fill-opacity:1;stroke-width:1"
       d="m -88.27425,-65.555756 v -7.762202 l 0.79155,1.045206 0.79155,1.045206 -0.79883,-1.994705 c -0.78925,-1.970767 -0.79796,-2.048686 -0.72541,-6.49059 l 0.0734,-4.495873 1.29034,2.225288 c 0.70968,1.223908 1.92338,3.737113 2.6971,5.584916 0.77372,1.847802 1.41346,3.198702 1.42164,3.002018 0.008,-0.196696 -0.1674,-1.346279 -0.39017,-2.554624 -1.05168,-5.7044 -1.46553,-11.053108 -0.92997,-12.019186 0.20894,-0.376915 0.3243,-0.358294 0.7956,0.128362 0.70754,0.730588 1.68553,4.342364 2.60087,9.605132 l 0.72363,4.160581 0.0167,-5.217185 c 0.016,-5.002542 0.33762,-7.783231 0.90012,-7.783231 0.56102,0 0.85372,2.663235 0.98706,8.981158 0.078,3.694338 0.22254,6.716997 0.32127,6.716997 0.0987,0 0.41105,-0.825873 0.69404,-1.835274 0.28298,-1.00939 0.63332,-1.858448 0.77854,-1.88679 0.14522,-0.0283 0.37329,0.593749 0.50682,1.382426 0.14736,0.87036 0.38394,1.433975 0.60192,1.433975 0.19752,0 1.15983,-0.45788 2.13847,-1.017491 0.97863,-0.559622 2.4937,-1.249466 3.36683,-1.532991 1.12889,-0.366589 1.90169,-0.863776 2.67511,-1.721072 0.97957,-1.085813 1.18104,-1.18557 2.02811,-1.004255 0.51728,0.110676 1.21566,0.535501 1.55196,0.943954 0.56362,0.684526 0.7383,0.72712 2.23287,0.544504 1.23372,-0.150748 1.81727,-0.08261 2.44052,0.285179 1.14709,0.676814 2.40618,0.603197 4.41122,-0.257898 1.16668,-0.501055 1.72715,-0.623312 1.72988,-0.37736 0.0102,0.914299 0.41474,1.123843 1.65804,0.858824 1.60249,-0.34159 2.30666,0.15764 2.30666,1.635338 0,0.820351 0.10608,1.03949 0.50321,1.03949 0.46505,0 0.51019,-0.307931 0.59531,-4.060733 0.061,-2.689741 0.20228,-4.186323 0.41843,-4.43272 0.48294,-0.550517 0.6302,-0.20725 0.79372,1.850267 0.0812,1.021553 0.21957,1.735586 0.30753,1.586743 0.088,-0.148842 0.3559,-0.35292 0.59542,-0.453498 0.23952,-0.100522 0.6405,-0.905765 0.89107,-1.789304 0.88208,-3.110344 1.78696,-3.140078 1.68895,-0.05545 -0.0539,1.696187 0.0113,2.002167 0.51188,2.402221 0.31551,0.252137 0.57365,0.677715 0.57365,0.945711 0,0.268008 0.45028,-0.248108 1.00061,-1.146913 1.14995,-1.878073 1.76622,-2.177674 2.20731,-1.073103 0.39451,0.987951 -0.23354,3.945607 -1.50415,7.083415 -0.50051,1.236025 -0.91002,2.275434 -0.91002,2.309801 0,0.03434 0.64697,-0.675696 1.43771,-1.577935 1.53168,-1.747623 2.20411,-1.938876 2.65992,-0.7565 0.16224,0.420832 0.49297,0.677475 0.87304,0.677475 0.33652,0 0.96313,0.207261 1.39247,0.460584 l 0.78061,0.460584 0.004,-1.743606 c 0.004,-1.91916 0.20793,-3.102095 0.53484,-3.102095 0.22342,0 1.13404,2.933091 1.54647,4.981137 0.17368,0.862476 0.25121,-0.77665 0.27128,-5.735857 0.0363,-8.957996 0.47229,-12.220001 1.38639,-10.37205 0.24752,0.500404 0.38141,2.414327 0.45103,6.447517 l 0.099,5.735857 0.72431,-4.075475 c 1.1069,-6.228207 2.20607,-9.962285 2.93249,-9.962285 1.00635,0 0.85014,4.735618 -0.38837,11.77361 -0.62085,3.528061 -0.66483,4.405906 -0.14199,2.834327 0.15957,-0.479639 0.93998,-2.366406 1.73426,-4.192826 1.5516,-3.56787 2.95467,-5.967502 3.78605,-6.475175 1.26016,-0.769508 1.77288,1.913729 0.95412,4.993232 -0.67989,2.557168 -0.58318,2.937791 0.93913,3.69622 1.02826,0.512294 1.42806,0.910603 1.72334,1.716953 0.21146,0.577456 0.50194,1.049918 0.64551,1.049918 0.38887,0 0.32703,-0.223098 -0.40043,-1.444587 -1.27143,-2.134887 -0.65054,-2.491903 1.33115,-0.765423 l 1.27496,1.110756 0.38286,-0.65793 c 0.37822,-0.649932 1.11207,-0.908116 1.11207,-0.391246 0,0.146674 0.24012,0.338327 0.5336,0.425898 0.3132,0.09345 0.75546,0.731467 1.07072,1.54464 0.29541,0.761989 0.595349,1.385438 0.666528,1.385438 0.07118,0 0.04972,-1.204602 -0.04769,-2.676904 -0.209495,-3.166412 0.02605,-5.474057 0.558746,-5.474057 0.5697544,0 0.9191704,1.976141 0.9207904,5.207556 8.12e-4,1.618873 0.09761,2.943405 0.215116,2.943405 0.117501,0 0.448924,-0.839256 0.736494,-1.865019 0.71786,-2.560603 1.304236,-2.758942 1.066435,-0.360714 -0.152012,1.533049 -0.106014,1.846787 0.333746,2.276405 0.486463,0.475257 0.550958,0.429914 1.394232,-0.980067 0.486297,-0.813116 1.033338,-1.543693 1.215647,-1.623506 0.590769,-0.258662 0.362592,1.170818 -0.41011,2.569275 -1.275828,2.309002 -1.241388,2.207625 -0.688853,2.027702 0.277416,-0.09037 0.733423,-0.271168 1.013349,-0.401857 0.396466,-0.185092 0.474119,-0.134021 0.35134,0.231039 -0.122315,0.363691 0.08847,0.506315 0.941189,0.63681 1.322575,0.202412 1.414397,0.125989 1.023818,-0.852104 l -0.303364,-0.759684 1.036183,0.603152 c 0.56990096,0.331732 1.11081996,0.740948 1.20204196,0.909359 0.245691,0.453578 0.928378,0.37129 0.928378,-0.111932 0,-0.527161 0.98968504,-1.277431 2.12966804,-1.61448 l 0.875745,-0.258926 -0.97354,-0.655385 -0.973539,-0.655386 v 0.865944 c 0,0.699873 -0.159808,0.929509 -0.833232,1.197369 -1.10565604,0.439772 -1.28343504,0.419634 -1.28343504,-0.145397 0,-0.372739 0.173251,-0.433406 0.79375,-0.2779 0.90791904,0.227525 0.98925904,0.01027 0.330729,-0.881895 -0.462553,-0.626907 -0.46242,-0.626964 0.13229204,-0.05249 0.585415,0.565533 0.595214,0.565533 0.589429,0 -0.0032,-0.316294 -0.238713,-0.914711 -0.523283,-1.329803 -1.06702804,-1.55645 -0.37147904,-2.084627 1.612505,-1.22449 0.73095,0.316899 1.292239,0.484317 1.24731,0.372032 -0.04493,-0.112274 -0.521337,-0.951325 -1.058682,-1.864529 -2.04644604,-3.477903 -1.327485,-4.562827 1.150322,-1.73586 0.764034,0.871707 1.292017,1.313213 1.173295,0.981139 -0.851076,-2.380531 -1.7435,-5.398192 -1.7435,-5.895505 0,-1.551566 1.239778,0.01141 2.643019,3.332073 l 1.083259,2.563432 -0.15897,-1.811324 c -0.268572,-3.060152 -0.229149,-6.797505 0.07537,-7.144949 0.425112,-0.485058 1.050205,2.214038 1.436357,6.202056 l 0.325148,3.357984 0.313641,-3.365298 c 0.364208,-3.907875 0.589853,-5.238488 0.8883366,-5.238488 0.412678,0 0.561492,2.154786 0.412031,5.966087 l -0.150793,3.845257 0.512734,-2.078465 c 1.24399,-5.042728 2.022763,-6.210339 1.885689,-2.827207 -0.02591,0.63948 0.07806,1.132081 0.238947,1.132081 0.156648,0 0.284816,0.347637 0.284816,0.772531 0,0.438152 0.114522,0.691772 0.264583,0.585956 0.145521,-0.102575 0.268802,-0.0091 0.273959,0.208597 0.01282,0.540522 0.765623,-1.000331 0.765623,-1.567084 0,-0.271294 -0.162679,-0.150258 -0.405774,0.301883 -0.223176,0.415093 -0.338019,0.505871 -0.255208,0.201728 0.08281,-0.304154 0.150566,-0.751617 0.150566,-0.994375 0,-0.252889 0.197728,-0.403489 0.463021,-0.352669 0.328542,0.06298 0.45733,-0.104172 0.443426,-0.575528 -0.01078,-0.365334 0.06604,-0.603847 0.170714,-0.530036 0.104669,0.07382 0.260951,-0.07588 0.347293,-0.332576 0.08989,-0.267289 0.04521,-0.387949 -0.104568,-0.282339 -0.155857,0.109878 -0.27759,-0.371735 -0.30124,-1.191868 -0.02183,-0.756969 -0.05159,-1.512157 -0.06615,-1.678194 -0.01455,-0.166037 0.0926,-0.294604 0.238125,-0.285693 0.145521,0.0091 0.231157,0.443458 0.190302,0.965644 -0.04086,0.522186 -0.0086,1.144712 0.07166,1.383384 0.125015,0.371713 0.211554,0.36716 0.603449,-0.03172 0.392377,-0.399416 0.50607,-0.405269 0.798665,-0.04108 0.279918,0.348391 0.27333,0.424609 -0.0367,0.424609 -0.227934,0 -0.449989,0.449185 -0.559644,1.132081 -0.09998,0.622639 -0.410887,1.935647 -0.690904,2.91779 -0.703696,2.46817 -0.652483,2.456943 0.571659,-0.125327 1.132098,-2.388107 2.358968,-4.111907 2.358594,-3.313908 -1.15e-4,0.24529 -0.357302,1.307234 -0.79375,2.359879 -0.436447,1.052645 -0.793541,1.975342 -0.793541,2.050454 0,0.07508 0.473698,-0.431626 1.052662,-1.126056 0.84803,-1.017149 1.125605,-1.193524 1.427894,-0.907272 0.22203,0.210251 0.313638,0.628116 0.224372,1.02347 -0.132009,0.584656 -0.0976,0.618326 0.27538,0.269468 0.295888,-0.276759 0.792476,-0.336022 1.623797,-0.193786 0.924651,0.15821 1.346075,0.427085 1.849278,1.179831 0.52992,0.792716 0.796154,0.950732 1.42455,0.845498 0.50902,-0.08523 1.307124,0.178314 2.338045,0.772098 1.00984,0.581643 2.197624,0.978789 3.347535,1.119302 1.698753,0.207569 1.78232,0.187818 1.78232,-0.421163 0,-0.755132 0.286127,-0.784375 1.98081,-0.202446 1.555666,0.534201 2.78169,0.325182 2.78169,-0.474231 0,-0.511073 0.228728,-0.566046 2.355275,-0.566046 h 2.355276 l 4.003956,-2.104411 c 2.202176,-1.157422 4.505818,-2.250926 5.119204,-2.430005 0.613385,-0.179067 1.249094,-0.37598 1.412685,-0.437582 0.216266,-0.08147 0.203138,-0.526784 -0.0481,-1.631903 -0.960505,-4.224911 1.432225,-5.239652 4.021403,-1.705441 0.544406,0.743105 1.024878,1.311114 1.067716,1.262234 0.04284,-0.04883 -0.397428,-1.317846 -0.978367,-2.819939 -1.819924,-4.705633 -2.506945,-8.952416 -1.556677,-9.622521 1.027886,-0.724838 3.100688,2.135161 5.01278,6.91651 0.503283,1.258503 1.063887,2.292846 1.245788,2.29854 0.181901,0.0057 0.330334,-0.02362 0.329849,-0.06515 -4.84e-4,-0.04153 -0.237584,-1.433975 -0.526889,-3.094347 -0.626567,-3.595996 -0.946943,-9.163568 -0.563886,-9.79934 0.774118,-1.284837 2.10984,2.302978 3.233535,8.685413 0.32711,1.857945 0.663614,3.377507 0.747787,3.376799 0.08417,-6.96e-4 0.177294,-2.004471 0.206936,-4.452835 0.05663,-4.677758 0.277373,-6.262893 0.872147,-6.262893 0.579349,0 0.806949,1.517862 0.975209,6.50362 0.157181,4.657472 0.163365,4.694999 0.83323,5.055689 0.527969,0.284301 0.718262,0.283297 0.874193,-0.0046 0.222148,-0.410118 0.421317,0.0046 0.569907,1.186575 0.04603,0.36619 0.281275,0.914893 0.522759,1.219355 0.42035,0.529968 0.588863,0.533357 3.954277,0.07941 l 3.515216,-0.474207 1.932888,0.9907 c 1.742714,0.893225 2.177831,0.9907 4.422453,0.9907 2.29155,0 2.79636,-0.119313 6.346772,-1.500142 2.696634,-1.048765 3.887526,-1.389385 3.957971,-1.132069 0.05542,0.202435 0.238104,0.877491 0.405964,1.500131 0.167859,0.62265 0.470954,1.13208 0.673545,1.13208 0.20259,0 1.621793,-0.212475 3.153784,-0.472153 l 2.785436,-0.472166 1.18048,0.967288 1.18048,0.967275 0.077,2.1464 0.077,2.146389 1.52135,0.09059 1.52136,0.09048 v -3.165762 -3.16575 l 0.82697,-0.09459 c 0.77515,-0.08865 0.87272,-0.242826 1.55682,-2.459602 0.40141,-1.300742 0.83295,-2.474743 0.95896,-2.608878 0.12602,-0.134135 1.03839,-0.450349 2.02749,-0.702702 l 1.79837,-0.458827 2.71727,1.0382 2.71726,1.038211 0.71264,5.199317 c 0.39196,2.859623 0.71141,5.408507 0.70989,5.664192 -0.002,0.287302 -1.01549,1.033408 -2.65409,1.95331 -2.87044,1.611446 -2.80734,1.520931 -3.31602,4.757354 l -0.17883,1.137786 0.75799,-0.374223 c 0.41689,-0.205823 2.18674,-0.446127 3.93299,-0.534007 2.26258,-0.113871 3.1845,-0.268235 3.20807,-0.537156 0.0182,-0.207546 0.048,-0.716976 0.0662,-1.132081 0.0473,-1.079013 0.52453,-0.931414 0.97616,0.301896 0.46634,1.273449 0.714,1.32468 1.09436,0.226407 l 0.28751,-0.830186 0.0281,0.830186 c 0.0361,1.065344 0.82189,1.154535 0.82189,0.09333 0,-0.405292 0.1195,-0.821161 0.26556,-0.924158 0.14605,-0.103032 0.18837,-0.538149 0.094,-0.967014 -0.1559,-0.708704 -0.10989,-0.766313 0.50488,-0.632223 0.64347,0.140342 0.66931,0.0947 0.53071,-0.937599 -0.20476,-1.525061 -0.49902,-1.869333 -1.30061,-1.521604 -0.89555,0.388496 -1.1529,0.359413 -1.1529,-0.130335 0,-0.738564 0.77499,-1.252182 1.312,-0.869516 0.38183,0.272069 0.46865,0.247036 0.44154,-0.127335 -0.0506,-0.698652 0.79456,-1.234644 1.2062,-0.764966 0.25922,0.295756 0.26087,0.579156 0.008,1.343974 -0.27833,0.841356 -0.25639,1.042467 0.16629,1.524742 0.47281,0.539484 0.5035,0.503611 1.06059,-1.239688 0.56316,-1.762262 0.60324,-1.807856 2.18142,-2.481269 l 1.60772,-0.686022 3.08579,0.531132 c 1.69719,0.292128 3.80018,0.500473 4.6733,0.463003 0.87313,-0.03742 2.29688,-0.08569 3.16389,-0.107139 l 1.5764,-0.03902 0.96631,2.498692 c 0.53148,1.374291 1.04195,2.584997 1.1344,2.690471 0.0924,0.105427 0.30481,-0.255776 0.47194,-0.802802 l 0.30387,-0.99458 0.33885,0.719213 0.33884,0.719213 0.27797,-0.830198 c 0.15289,-0.456602 0.47509,-0.830185 0.71602,-0.830185 0.35192,0 0.40882,0.205435 0.28943,1.044886 -0.14395,1.012094 -0.12529,1.039558 0.59475,0.875243 0.84191,-0.19212 1.27593,0.303847 0.81747,0.934153 -0.20822,0.286264 -0.21452,0.473158 -0.0205,0.60994 0.15382,0.108509 0.38087,-0.114943 0.50457,-0.496468 l 0.2249,-0.693689 0.18042,0.64862 c 0.0992,0.356742 0.10318,0.999794 0.009,1.429012 -0.18225,0.828543 0.1011,1.01764 0.62654,0.418128 0.24694,-0.281768 0.3175,-0.26835 0.3175,0.06036 0,1.079663 0.54749,-0.403489 1.14572,-3.103761 0.5618,-2.535866 0.80841,-3.143729 1.74648,-4.304917 0.60078,-0.743652 1.48695,-2.340163 1.96929,-3.5478 l 0.87697,-2.195713 2.94091,-1.423924 c 2.81575,-1.363325 3.04833,-1.423924 5.46514,-1.423924 h 2.52424 v 1.008386 c 0,0.976758 0.0472,1.021314 1.50444,1.420182 1.25316,0.343016 1.83896,0.756991 3.50729,2.478519 1.9618,2.024348 2.03528,2.153075 3.58348,6.277943 1.49064,3.971485 1.6225,4.21123 2.31624,4.21123 h 0.73562 l -0.97411,-1.673972 c -0.72591,-1.247435 -1.00343,-2.077358 -1.08918,-3.257144 -0.20384,-2.804729 1.03805,-3.023343 3.06107,-0.538856 l 1.13547,1.394486 -0.7041,-1.811325 c -1.69633,-4.363883 -2.23408,-7.784737 -1.2888,-8.19862 0.72084,-0.315621 1.69849,1.137455 3.44803,5.124811 0.93384,2.128281 1.69752,3.758473 1.69708,3.622649 -4.4e-4,-0.135824 -0.23429,-1.619079 -0.51967,-3.296132 -0.94078,-5.528527 -0.94899,-9.465212 -0.0175,-8.402412 0.48293,0.551019 1.30908,3.613133 1.9262,7.139403 l 0.59616,3.406534 0.13878,-4.586035 c 0.0763,-2.522322 0.22714,-4.686852 0.33514,-4.810079 0.10799,-0.123216 0.3432,-0.05671 0.52267,0.147895 0.22877,0.26074 0.37073,2.330396 0.47488,6.923288 0.0817,3.603241 0.171,6.32793 0.19844,6.054845 0.0274,-0.273074 0.29999,-1.420432 0.60568,-2.549684 0.466,-1.721448 0.59993,-1.963202 0.82896,-1.496262 0.26261,0.535433 0.16408,3.226987 -0.2243,6.127366 -0.13993,1.044977 -0.0952,1.283023 0.24101,1.283023 0.22705,0 0.79887,1.205119 1.05378,1.495695 0.4414,0.503155 0.0642,6.04e-4 -6.21925,-0.05844 l -6.68704,-0.06283 7.18816,0.06755 7.18817,0.06755 0.71919,-2.490569 c 0.39556,-1.369818 0.75916,-2.543339 0.808,-2.607828 0.0489,-0.06447 0.95538,-0.350296 2.01452,-0.635133 1.76303,-0.47414 2.02013,-0.478099 3.04342,-0.04689 1.05781,0.445728 1.13457,0.560683 1.43212,2.144574 0.51027,2.716188 0.31983,2.581962 4.22558,2.978308 1.92483,0.195327 3.54192,0.306973 3.59352,0.248098 0.0516,-0.05888 -0.0857,-0.975742 -0.30501,-2.037481 -0.46267,-2.23955 -0.52754,-5.184063 -0.13274,-6.025761 0.66953,-1.427415 1.74635,-0.203678 3.16902,3.601404 0.40819,1.091758 0.84232,2.02307 0.96473,2.069588 0.12241,0.04655 0.22511,-3.617286 0.22821,-8.141787 0.005,-7.426226 0.0566,-8.387854 0.52917,-9.88674 0.44474,-1.410529 0.62306,-1.660383 1.18498,-1.660383 0.50712,0 0.78493,0.281756 1.19062,1.207546 0.47793,1.090617 0.52917,1.811324 0.52917,7.442462 0,3.429194 0.0893,6.172127 0.19844,6.095407 0.10914,-0.07667 0.19843,-0.334494 0.19843,-0.572813 0,-0.942447 2.40751,-8.707981 3.46633,-11.180819 1.7025,-3.976106 3.66554,-5.765968 4.46186,-4.068241 0.78144,1.665985 -0.0169,7.059945 -2.0694,13.982149 -0.57847,1.950947 -1.01944,3.547172 -0.97993,3.547172 0.0395,0 1.13041,-1.592083 2.42422,-3.537976 4.14484,-6.233821 8.25781,-10.348842 10.34366,-10.348842 1.03759,0 1.66785,1.017845 1.66785,2.693505 0,2.375557 -1.77768,5.916739 -6.18019,12.311097 -0.27619,0.401139 0.41954,-0.03663 1.5875,-0.998995 2.78393,-2.293782 4.64453,-3.25153 6.35677,-3.272148 1.09484,-0.01312 1.50334,0.129343 2.05052,0.715413 0.84576,0.905857 0.91468,2.55613 0.17483,4.185832 -0.49034,1.080097 -2.81352,3.830173 -4.32321,5.117634 l -0.73065,0.623095 2.84732,0.194117 c 1.56602,0.106797 3.85111,0.321806 5.07797,0.477859 1.22685,0.156042 2.25727,0.25168 2.2898,0.212521 0.0325,-0.03914 0.26296,-2.242859 0.51205,-4.897103 l 0.4529,-4.825893 3.8597,-4.633511 c 3.36862,-4.043984 3.9454,-4.614491 4.53334,-4.484019 0.3705,0.08227 1.80473,0.314252 3.18718,0.515637 l 2.51354,0.366145 1.98438,-1.543249 1.98437,-1.54326 2.64583,0.48394 c 2.86174,0.523419 2.59375,0.337163 5.09296,3.539654 l 0.90743,1.162796 1.18251,-0.515272 1.1825,-0.515272 3.35793,1.652864 c 1.84686,0.909074 3.56628,1.734182 3.82094,1.833574 0.42915,0.16752 0.46302,0.954439 0.46302,10.756279 l -0.0317,23.717037 -186.34553,0.03167 H -88.369249 Z m 54.68491,-4.068012 c -0.0845,-0.240829 -0.14716,-0.169301 -0.15985,0.182387 -0.0115,0.318234 0.051,0.496537 0.13896,0.396221 0.0879,-0.100293 0.0973,-0.36069 0.0209,-0.578608 z m 18.80096,-1.370012 c 0.0502,-0.171788 -0.2711,-0.373025 -0.71397,-0.447189 -0.82498,-0.138151 -0.91975,-0.02556 -0.65102,0.773524 0.1679,0.49923 1.19559,0.25354 1.36499,-0.326335 z m 2.6083,-0.867736 c -0.0942,-0.279976 -0.23074,-0.44113 -0.3035,-0.358112 -0.0728,0.08307 -0.0553,0.380019 0.0389,0.660007 0.0942,0.279977 0.23074,0.441131 0.3035,0.358112 0.0728,-0.08306 0.0553,-0.380019 -0.0389,-0.660007 z m 24.971201,-2.98868 c 0.0075,-0.166037 0.12397,-0.102689 0.258907,0.140707 0.196415,0.354347 0.301133,0.275173 0.525115,-0.397008 0.341953,-1.026208 0.357935,-1.494836 0.04342,-1.273039 -0.129998,0.09162 -0.31086,-0.172016 -0.401916,-0.585967 -0.218938,-0.995299 -0.633979,-0.95695 -0.839441,0.07759 -0.09069,0.456614 -0.331078,1.500142 -0.534208,2.318952 -0.203129,0.818821 -0.368734,1.565988 -0.368012,1.660383 0.0023,0.294421 1.301809,-1.622708 1.316139,-1.941592 z m -14.7400206,2.356833 c 0.257431,-0.07656 0.614619,-0.07154 0.79375,0.01141 0.17913196,0.08272 -0.03149,0.145317 -0.468056,0.139167 -0.436563,-0.0057 -0.583125,-0.07382 -0.325694,-0.150349 z m 1.12893396,-0.731456 c -1.30018696,-1.114829 -1.57036196,-1.461633 -0.59732996,-0.766746 0.404293,0.288728 0.83336696,0.455644 0.95349896,0.370925 0.120131,-0.08478 0.35234,0.181338 0.51602,0.591228 0.163681,0.40989 0.270388,0.735951 0.237127,0.724587 -0.03326,-0.01141 -0.532452,-0.425374 -1.109316,-0.919994 z m -2.65532396,-1.474435 c -0.190654,-0.351985 0.05583,-0.905662 0.403181,-0.905662 0.131813,0 0.3671,0.271693 0.522861,0.603778 0.238793,0.509088 0.201213,0.603768 -0.239659,0.603768 -0.287574,0 -0.596446,-0.135847 -0.686383,-0.301884 z m 2.57968796,0.101891 c -0.46524396,-0.214199 -0.41315896,-1.007622 0.06615,-1.007622 0.220486,0 0.396875,0.26835 0.396875,0.603779 0,0.332074 -0.02977,0.593053 -0.06615,0.579943 -0.03638,-0.01312 -0.214974,-0.09231 -0.396875,-0.1761 z M 148.95243,-76.688003 c -0.25347,-0.753671 -0.18989,-1.030179 0.23686,-1.030179 0.21828,0 0.39687,0.263672 0.39687,0.585957 0,0.759273 -0.42709,1.058646 -0.63373,0.444222 z m -24.92686,-0.300161 c 0.0883,-0.262633 0.1606,-0.534326 0.1606,-0.603767 0,-0.06949 0.17859,-0.126251 0.39687,-0.126251 0.52688,0 0.51016,0.791461 -0.0216,1.024303 -0.62799,0.274956 -0.7118,0.228929 -0.53583,-0.294285 z m 3.35037,-0.558766 c -0.26868,-0.369385 -0.28558,-0.586801 -0.0652,-0.83831 0.22042,-0.251509 0.34064,-0.211619 0.46353,0.153783 0.27055,0.804445 0.012,1.248713 -0.39839,0.684527 z m 23.13068,0.01232 c -0.43136,-0.359892 -0.45215,-0.490912 -0.14493,-0.913285 0.33149,-0.455735 0.39592,-0.454662 0.84991,0.01415 0.98086,1.012824 0.36806,1.794415 -0.70498,0.899158 z m -3.2924,-1.975092 c -0.38882,-0.828964 -0.35177,-0.925515 0.35517,-0.925515 0.81491,0 1.33066,0.662095 0.89923,1.154364 -0.45765,0.522175 -0.94372,0.433497 -1.2544,-0.228849 z m 2.25559,0.106113 c -0.55307,-0.63106 -0.29635,-1.031674 0.66114,-1.031674 0.90437,0 1.06312,0.710393 0.26734,1.19633 -0.38595,0.235672 -0.61288,0.195429 -0.92848,-0.164656 z M 13.458043,-80.737143 c -0.105609,-0.194973 -0.07296,-0.490353 0.07257,-0.65639 0.176389,-0.20126 0.328589,-0.183723 0.456601,0.0526 0.105609,0.194973 0.07296,0.490353 -0.07257,0.65639 -0.176389,0.20126 -0.328589,0.183723 -0.456601,-0.0526 z m 3.020188,-2.703296 c 0.256068,-0.422623 0.544547,-1.017445 0.641064,-1.321816 0.188443,-0.594274 0.732987,-0.556199 0.91415,0.0639 0.06081,0.208139 -0.140112,0.453225 -0.446485,0.544641 -0.574784,0.171502 -0.778902,0.699565 -0.27041,0.699565 0.628317,0 0.01976,0.755644 -0.618838,0.768412 -0.679853,0.01358 -0.681521,0.008 -0.219481,-0.75472 z"
       id="path4" /><path
       style="fill:#2e5848;fill-opacity:1;stroke-width:1"
       d="m -88.27425,-65.555756 v -7.762202 l 0.79155,1.045206 0.79155,1.045206 -0.79883,-1.994705 c -0.78925,-1.970767 -0.79796,-2.048686 -0.72541,-6.49059 l 0.0734,-4.495873 1.29034,2.225288 c 0.70968,1.223908 1.92338,3.737113 2.6971,5.584916 0.77372,1.847802 1.41346,3.198702 1.42164,3.002018 0.008,-0.196696 -0.1674,-1.346279 -0.39017,-2.554624 -1.05168,-5.7044 -1.46553,-11.053108 -0.92997,-12.019186 0.20894,-0.376915 0.3243,-0.358294 0.7956,0.128362 0.70754,0.730588 1.68553,4.342364 2.60087,9.605132 l 0.72363,4.160581 0.0167,-5.217185 c 0.016,-5.002542 0.33762,-7.783231 0.90012,-7.783231 0.56102,0 0.85372,2.663235 0.98706,8.981158 0.078,3.694338 0.22254,6.716997 0.32127,6.716997 0.0987,0 0.41105,-0.825873 0.69404,-1.835274 0.28298,-1.00939 0.63332,-1.858448 0.77854,-1.88679 0.14522,-0.0283 0.37329,0.593749 0.50682,1.382426 0.14736,0.87036 0.38394,1.433975 0.60192,1.433975 0.19752,0 1.15983,-0.45788 2.13847,-1.017491 0.97863,-0.559622 2.4937,-1.249466 3.36683,-1.532991 1.12889,-0.366589 1.90169,-0.863776 2.67511,-1.721072 0.97957,-1.085813 1.18104,-1.18557 2.02811,-1.004255 0.51728,0.110676 1.21566,0.535501 1.55196,0.943954 0.56362,0.684526 0.7383,0.72712 2.23287,0.544504 1.23372,-0.150748 1.81727,-0.08261 2.44052,0.285179 1.14709,0.676814 2.40618,0.603197 4.41122,-0.257898 1.16668,-0.501055 1.72715,-0.623312 1.72988,-0.37736 0.0102,0.914299 0.41474,1.123843 1.65804,0.858824 1.60249,-0.34159 2.30666,0.15764 2.30666,1.635338 0,0.820351 0.10608,1.03949 0.50321,1.03949 0.46505,0 0.51019,-0.307931 0.59531,-4.060733 0.061,-2.689741 0.20228,-4.186323 0.41843,-4.43272 0.48294,-0.550517 0.6302,-0.20725 0.79372,1.850267 0.0812,1.021553 0.21957,1.735586 0.30753,1.586743 0.088,-0.148842 0.3559,-0.35292 0.59542,-0.453498 0.23952,-0.100522 0.6405,-0.905765 0.89107,-1.789304 0.88208,-3.110344 1.78696,-3.140078 1.68895,-0.05545 -0.0539,1.696187 0.0113,2.002167 0.51188,2.402221 0.31551,0.252137 0.57365,0.677715 0.57365,0.945711 0,0.268008 0.45028,-0.248108 1.00061,-1.146913 1.14995,-1.878073 1.76622,-2.177674 2.20731,-1.073103 0.39451,0.987951 -0.23354,3.945607 -1.50415,7.083415 -0.50051,1.236025 -0.91002,2.275434 -0.91002,2.309801 0,0.03434 0.64697,-0.675696 1.43771,-1.577935 1.53168,-1.747623 2.20411,-1.938876 2.65992,-0.7565 0.16224,0.420832 0.49297,0.677475 0.87304,0.677475 0.33652,0 0.96313,0.207261 1.39247,0.460584 l 0.78061,0.460584 0.004,-1.743606 c 0.004,-1.91916 0.20793,-3.102095 0.53484,-3.102095 0.22342,0 1.13404,2.933091 1.54647,4.981137 0.17368,0.862476 0.25121,-0.77665 0.27128,-5.735857 0.0363,-8.957996 0.47229,-12.220001 1.38639,-10.37205 0.24752,0.500404 0.38141,2.414327 0.45103,6.447517 l 0.099,5.735857 0.72431,-4.075475 c 1.1069,-6.228207 2.20607,-9.962285 2.93249,-9.962285 1.00635,0 0.85014,4.735618 -0.38837,11.77361 -0.62085,3.528061 -0.66483,4.405906 -0.14199,2.834327 0.15957,-0.479639 0.93998,-2.366406 1.73426,-4.192826 1.5516,-3.56787 2.95467,-5.967502 3.78605,-6.475175 1.26016,-0.769508 1.77288,1.913729 0.95412,4.993232 -0.67989,2.557168 -0.58318,2.937791 0.93913,3.69622 1.02826,0.512294 1.42806,0.910603 1.72334,1.716953 0.21146,0.577456 0.50194,1.049918 0.64551,1.049918 0.38887,0 0.32703,-0.223098 -0.40043,-1.444587 -1.27143,-2.134887 -0.65054,-2.491903 1.33115,-0.765423 l 1.27496,1.110756 0.38286,-0.65793 c 0.37822,-0.649932 1.11207,-0.908116 1.11207,-0.391246 0,0.146674 0.24012,0.338327 0.5336,0.425898 0.3132,0.09345 0.75546,0.731467 1.07072,1.54464 0.29541,0.761989 0.595349,1.385438 0.666528,1.385438 0.07118,0 0.04972,-1.204602 -0.04769,-2.676904 -0.209495,-3.166412 0.02605,-5.474057 0.558746,-5.474057 0.5697544,0 0.9191704,1.976141 0.9207904,5.207556 8.12e-4,1.618873 0.09761,2.943405 0.215116,2.943405 0.117501,0 0.448924,-0.839256 0.736494,-1.865019 0.71786,-2.560603 1.304236,-2.758942 1.066435,-0.360714 -0.152012,1.533049 -0.106014,1.846787 0.333746,2.276405 0.486463,0.475257 0.550958,0.429914 1.394232,-0.980067 0.486297,-0.813116 1.033338,-1.543693 1.215647,-1.623506 0.590769,-0.258662 0.362592,1.170818 -0.41011,2.569275 -1.275828,2.309002 -1.241388,2.207625 -0.688853,2.027702 0.277416,-0.09037 0.733423,-0.271168 1.013349,-0.401857 0.396466,-0.185092 0.474119,-0.134021 0.35134,0.231039 -0.122315,0.363691 0.08847,0.506315 0.941189,0.63681 1.322575,0.202412 1.414397,0.125989 1.023818,-0.852104 l -0.303364,-0.759684 1.036183,0.603152 c 0.56990096,0.331732 1.11081996,0.740948 1.20204196,0.909359 0.245691,0.453578 0.928378,0.37129 0.928378,-0.111932 0,-0.527161 0.98968504,-1.277431 2.12966804,-1.61448 l 0.875745,-0.258926 -0.97354,-0.655385 -0.973539,-0.655386 v 0.865944 c 0,0.699873 -0.159808,0.929509 -0.833232,1.197369 -1.10565604,0.439772 -1.28343504,0.419634 -1.28343504,-0.145397 0,-0.372739 0.173251,-0.433406 0.79375,-0.2779 0.90791904,0.227525 0.98925904,0.01027 0.330729,-0.881895 -0.462553,-0.626907 -0.46242,-0.626964 0.13229204,-0.05249 0.585415,0.565533 0.595214,0.565533 0.589429,0 -0.0032,-0.316294 -0.238713,-0.914711 -0.523283,-1.329803 -1.06702804,-1.55645 -0.37147904,-2.084627 1.612505,-1.22449 0.73095,0.316899 1.292239,0.484317 1.24731,0.372032 -0.04493,-0.112274 -0.521337,-0.951325 -1.058682,-1.864529 -2.04644604,-3.477903 -1.327485,-4.562827 1.150322,-1.73586 0.764034,0.871707 1.292017,1.313213 1.173295,0.981139 -0.851076,-2.380531 -1.7435,-5.398192 -1.7435,-5.895505 0,-1.551566 1.239778,0.01141 2.643019,3.332073 l 1.083259,2.563432 -0.15897,-1.811324 c -0.268572,-3.060152 -0.229149,-6.797505 0.07537,-7.144949 0.425112,-0.485058 1.050205,2.214038 1.436357,6.202056 l 0.325148,3.357984 0.313641,-3.365298 c 0.364208,-3.907875 0.589853,-5.238488 0.8883366,-5.238488 0.412678,0 0.561492,2.154786 0.412031,5.966087 l -0.150793,3.845257 0.512734,-2.078465 c 1.24399,-5.042728 2.022763,-6.210339 1.885689,-2.827207 -0.02591,0.63948 0.07806,1.132081 0.238947,1.132081 0.156648,0 0.284816,0.347637 0.284816,0.772531 0,0.438152 0.114522,0.691772 0.264583,0.585956 0.145521,-0.102575 0.268802,-0.0091 0.273959,0.208597 0.01282,0.540522 0.765623,-1.000331 0.765623,-1.567084 0,-0.271294 -0.162679,-0.150258 -0.405774,0.301883 -0.223176,0.415093 -0.338019,0.505871 -0.255208,0.201728 0.08281,-0.304154 0.150566,-0.751617 0.150566,-0.994375 0,-0.252889 0.197728,-0.403489 0.463021,-0.352669 0.328542,0.06298 0.45733,-0.104172 0.443426,-0.575528 -0.01078,-0.365334 0.06604,-0.603847 0.170714,-0.530036 0.104669,0.07382 0.260951,-0.07588 0.347293,-0.332576 0.08989,-0.267289 0.04521,-0.387949 -0.104568,-0.282339 -0.155857,0.109878 -0.27759,-0.371735 -0.30124,-1.191868 -0.02183,-0.756969 -0.05159,-1.512157 -0.06615,-1.678194 -0.01455,-0.166037 0.0926,-0.294604 0.238125,-0.285693 0.145521,0.0091 0.231157,0.443458 0.190302,0.965644 -0.04086,0.522186 -0.0086,1.144712 0.07166,1.383384 0.125015,0.371713 0.211554,0.36716 0.603449,-0.03172 0.392377,-0.399416 0.50607,-0.405269 0.798665,-0.04108 0.279918,0.348391 0.27333,0.424609 -0.0367,0.424609 -0.227934,0 -0.449989,0.449185 -0.559644,1.132081 -0.09998,0.622639 -0.410887,1.935647 -0.690904,2.91779 -0.703696,2.46817 -0.652483,2.456943 0.571659,-0.125327 1.132098,-2.388107 2.358968,-4.111907 2.358594,-3.313908 -1.15e-4,0.24529 -0.357302,1.307234 -0.79375,2.359879 -0.436447,1.052645 -0.793541,1.975342 -0.793541,2.050454 0,0.07508 0.473698,-0.431626 1.052662,-1.126056 0.84803,-1.017149 1.125605,-1.193524 1.427894,-0.907272 0.22203,0.210251 0.313638,0.628116 0.224372,1.02347 -0.132009,0.584656 -0.0976,0.618326 0.27538,0.269468 0.295888,-0.276759 0.792476,-0.336022 1.623797,-0.193786 0.924651,0.15821 1.346075,0.427085 1.849278,1.179831 0.52992,0.792716 0.796154,0.950732 1.42455,0.845498 0.50902,-0.08523 1.307124,0.178314 2.338045,0.772098 1.00984,0.581643 2.197624,0.978789 3.347535,1.119302 1.698753,0.207569 1.78232,0.187818 1.78232,-0.421163 0,-0.755132 0.286127,-0.784375 1.98081,-0.202446 1.555666,0.534201 2.78169,0.325182 2.78169,-0.474231 0,-0.511073 0.228728,-0.566046 2.355275,-0.566046 h 2.355276 l 4.003956,-2.104411 c 2.202176,-1.157422 4.505818,-2.250926 5.119204,-2.430005 0.613385,-0.179067 1.249094,-0.37598 1.412685,-0.437582 0.216266,-0.08147 0.203138,-0.526784 -0.0481,-1.631903 -0.960505,-4.224911 1.432225,-5.239652 4.021403,-1.705441 0.544406,0.743105 1.024878,1.311114 1.067716,1.262234 0.04284,-0.04883 -0.397428,-1.317846 -0.978367,-2.819939 -1.819924,-4.705633 -2.506945,-8.952416 -1.556677,-9.622521 1.027886,-0.724838 3.100688,2.135161 5.01278,6.91651 0.503283,1.258503 1.063887,2.292846 1.245788,2.29854 0.181901,0.0057 0.330334,-0.02362 0.329849,-0.06515 -4.84e-4,-0.04153 -0.237584,-1.433975 -0.526889,-3.094347 -0.626567,-3.595996 -0.946943,-9.163568 -0.563886,-9.79934 0.774118,-1.284837 2.10984,2.302978 3.233535,8.685413 0.32711,1.857945 0.663614,3.377507 0.747787,3.376799 0.08417,-6.96e-4 0.177294,-2.004471 0.206936,-4.452835 0.05663,-4.677758 0.277373,-6.262893 0.872147,-6.262893 0.579349,0 0.806949,1.517862 0.975209,6.50362 0.157181,4.657472 0.163365,4.694999 0.83323,5.055689 0.527969,0.284301 0.718262,0.283297 0.874193,-0.0046 0.222148,-0.410118 0.421317,0.0046 0.569907,1.186575 0.04603,0.36619 0.281275,0.914893 0.522759,1.219355 0.42035,0.529968 0.588863,0.533357 3.954277,0.07941 l 3.515216,-0.474207 1.932888,0.9907 c 1.742714,0.893225 2.177831,0.9907 4.422453,0.9907 2.29155,0 2.79636,-0.119313 6.346772,-1.500142 2.696634,-1.048765 3.887526,-1.389385 3.957971,-1.132069 0.05542,0.202435 0.238104,0.877491 0.405964,1.500131 0.167859,0.62265 0.470954,1.13208 0.673545,1.13208 0.20259,0 1.621793,-0.212475 3.153784,-0.472153 l 2.785436,-0.472166 1.18048,0.967288 1.18048,0.967275 0.077,2.1464 0.077,2.146389 1.52135,0.09059 1.52136,0.09048 v -3.165762 -3.16575 l 0.82697,-0.09459 c 0.77515,-0.08865 0.87272,-0.242826 1.55682,-2.459602 0.40141,-1.300742 0.83295,-2.474743 0.95896,-2.608878 0.12602,-0.134135 1.03839,-0.450349 2.02749,-0.702702 l 1.79837,-0.458827 2.71727,1.0382 2.71726,1.038211 0.71264,5.199317 c 0.39196,2.859623 0.71141,5.408507 0.70989,5.664192 -0.002,0.287302 -1.01549,1.033408 -2.65409,1.95331 -2.87044,1.611446 -2.80734,1.520931 -3.31602,4.757354 l -0.17883,1.137786 0.75799,-0.374223 c 0.41689,-0.205823 2.18674,-0.446127 3.93299,-0.534007 2.26258,-0.113871 3.1845,-0.268235 3.20807,-0.537156 0.0182,-0.207546 0.048,-0.716976 0.0662,-1.132081 0.0473,-1.079013 0.52453,-0.931414 0.97616,0.301896 0.46634,1.273449 0.714,1.32468 1.09436,0.226407 l 0.28751,-0.830186 0.0281,0.830186 c 0.0361,1.065344 0.82189,1.154535 0.82189,0.09333 0,-0.405292 0.1195,-0.821161 0.26556,-0.924158 0.14605,-0.103032 0.18837,-0.538149 0.094,-0.967014 -0.1559,-0.708704 -0.10989,-0.766313 0.50488,-0.632223 0.64347,0.140342 0.66931,0.0947 0.53071,-0.937599 -0.20476,-1.525061 -0.49902,-1.869333 -1.30061,-1.521604 -0.89555,0.388496 -1.1529,0.359413 -1.1529,-0.130335 0,-0.738564 0.77499,-1.252182 1.312,-0.869516 0.38183,0.272069 0.46865,0.247036 0.44154,-0.127335 -0.0506,-0.698652 0.79456,-1.234644 1.2062,-0.764966 0.25922,0.295756 0.26087,0.579156 0.008,1.343974 -0.27833,0.841356 -0.25639,1.042467 0.16629,1.524742 0.47281,0.539484 0.5035,0.503611 1.06059,-1.239688 0.56316,-1.762262 0.60324,-1.807856 2.18142,-2.481269 l 1.60772,-0.686022 3.08579,0.531132 c 1.69719,0.292128 3.80018,0.500473 4.6733,0.463003 0.87313,-0.03742 2.29688,-0.08569 3.16389,-0.107139 l 1.5764,-0.03902 0.96631,2.498692 c 0.53148,1.374291 1.04195,2.584997 1.1344,2.690471 0.0924,0.105427 0.30481,-0.255776 0.47194,-0.802802 l 0.30387,-0.99458 0.33885,0.719213 0.33884,0.719213 0.27797,-0.830198 c 0.15289,-0.456602 0.47509,-0.830185 0.71602,-0.830185 0.35192,0 0.40882,0.205435 0.28943,1.044886 -0.14395,1.012094 -0.12529,1.039558 0.59475,0.875243 0.84191,-0.19212 1.27593,0.303847 0.81747,0.934153 -0.20822,0.286264 -0.21452,0.473158 -0.0205,0.60994 0.15382,0.108509 0.38087,-0.114943 0.50457,-0.496468 l 0.2249,-0.693689 0.18042,0.64862 c 0.0992,0.356742 0.10318,0.999794 0.009,1.429012 -0.18225,0.828543 0.1011,1.01764 0.62654,0.418128 0.24694,-0.281768 0.3175,-0.26835 0.3175,0.06036 0,1.079663 0.54749,-0.403489 1.14572,-3.103761 0.5618,-2.535866 0.80841,-3.143729 1.74648,-4.304917 0.60078,-0.743652 1.48695,-2.340163 1.96929,-3.5478 l 0.87697,-2.195713 2.94091,-1.423924 c 2.81575,-1.363325 3.04833,-1.423924 5.46514,-1.423924 h 2.52424 v 1.008386 c 0,0.976758 0.0472,1.021314 1.50444,1.420182 1.25316,0.343016 1.83896,0.756991 3.50729,2.478519 1.9618,2.024348 2.03528,2.153075 3.58348,6.277943 1.49064,3.971485 1.6225,4.21123 2.31624,4.21123 h 0.73562 l -0.97411,-1.673972 c -0.72591,-1.247435 -1.00343,-2.077358 -1.08918,-3.257144 -0.20384,-2.804729 1.03805,-3.023343 3.06107,-0.538856 l 1.13547,1.394486 -0.7041,-1.811325 c -1.69633,-4.363883 -2.23408,-7.784737 -1.2888,-8.19862 0.72084,-0.315621 1.69849,1.137455 3.44803,5.124811 0.93384,2.128281 1.69752,3.758473 1.69708,3.622649 -4.4e-4,-0.135824 -0.23429,-1.619079 -0.51967,-3.296132 -0.94078,-5.528527 -0.94899,-9.465212 -0.0175,-8.402412 0.48293,0.551019 1.30908,3.613133 1.9262,7.139403 l 0.59616,3.406534 0.13878,-4.586035 c 0.0763,-2.522322 0.22714,-4.686852 0.33514,-4.810079 0.10799,-0.123216 0.3432,-0.05671 0.52267,0.147895 0.22877,0.26074 0.37073,2.330396 0.47488,6.923288 0.0817,3.603241 0.171,6.32793 0.19844,6.054845 0.0274,-0.273074 0.29999,-1.420432 0.60568,-2.549684 0.466,-1.721448 0.59993,-1.963202 0.82896,-1.496262 0.26261,0.535433 0.16408,3.226987 -0.2243,6.127366 -0.13993,1.044977 -0.0952,1.283023 0.24101,1.283023 0.22705,0 0.79887,1.205119 1.05378,1.495695 0.4414,0.503155 0.0642,6.04e-4 -6.21925,-0.05844 l -6.68704,-0.06283 7.18816,0.06755 7.18817,0.06755 0.71919,-2.490569 c 0.39556,-1.369818 0.75916,-2.543339 0.808,-2.607828 0.0489,-0.06447 0.95538,-0.350296 2.01452,-0.635133 1.76303,-0.47414 2.02013,-0.478099 3.04342,-0.04689 1.05781,0.445728 1.13457,0.560683 1.43212,2.144574 0.51027,2.716188 0.31983,2.581962 4.22558,2.978308 1.92483,0.195327 3.54192,0.306973 3.59352,0.248098 0.0516,-0.05888 -0.0857,-0.975742 -0.30501,-2.037481 -0.46267,-2.23955 -0.52754,-5.184063 -0.13274,-6.025761 0.66953,-1.427415 1.74635,-0.203678 3.16902,3.601404 0.40819,1.091758 0.84232,2.02307 0.96473,2.069588 0.12241,0.04655 0.22511,-3.617286 0.22821,-8.141787 0.005,-7.426226 0.0566,-8.387854 0.52917,-9.88674 0.44474,-1.410529 0.62306,-1.660383 1.18498,-1.660383 0.50712,0 0.78493,0.281756 1.19062,1.207546 0.47793,1.090617 0.52917,1.811324 0.52917,7.442462 0,3.429194 0.0893,6.172127 0.19844,6.095407 0.10914,-0.07667 0.19843,-0.334494 0.19843,-0.572813 0,-0.942447 2.40751,-8.707981 3.46633,-11.180819 1.7025,-3.976106 3.66554,-5.765968 4.46186,-4.068241 0.78144,1.665985 -0.0169,7.059945 -2.0694,13.982149 -0.57847,1.950947 -1.01944,3.547172 -0.97993,3.547172 0.0395,0 1.13041,-1.592083 2.42422,-3.537976 4.14484,-6.233821 8.25781,-10.348842 10.34366,-10.348842 1.03759,0 1.66785,1.017845 1.66785,2.693505 0,2.375557 -1.77768,5.916739 -6.18019,12.311097 -0.27619,0.401139 0.41954,-0.03663 1.5875,-0.998995 2.78393,-2.293782 4.64453,-3.25153 6.35677,-3.272148 1.09484,-0.01312 1.50334,0.129343 2.05052,0.715413 0.84576,0.905857 0.91468,2.55613 0.17483,4.185832 -0.49034,1.080097 -2.81352,3.830173 -4.32321,5.117634 l -0.73065,0.623095 2.84732,0.194117 c 1.56602,0.106797 3.85111,0.321806 5.07797,0.477859 1.22685,0.156042 2.25727,0.25168 2.2898,0.212521 0.0325,-0.03914 0.26296,-2.242859 0.51205,-4.897103 l 0.4529,-4.825893 3.8597,-4.633511 c 3.36862,-4.043984 3.9454,-4.614491 4.53334,-4.484019 0.3705,0.08227 1.80473,0.314252 3.18718,0.515637 l 2.51354,0.366145 1.98438,-1.543249 1.98437,-1.54326 2.64583,0.48394 c 2.86174,0.523419 2.59375,0.337163 5.09296,3.539654 l 0.90743,1.162796 1.18251,-0.515272 1.1825,-0.515272 3.35793,1.652864 c 1.84686,0.909074 3.56628,1.734182 3.82094,1.833574 0.42915,0.16752 0.46302,0.954439 0.46302,10.756279 l -0.0317,23.717037 -186.34553,0.03167 H -88.369249 Z m 54.68491,-4.068012 c -0.0845,-0.240829 -0.14716,-0.169301 -0.15985,0.182387 -0.0115,0.318234 0.051,0.496537 0.13896,0.396221 0.0879,-0.100293 0.0973,-0.36069 0.0209,-0.578608 z m 18.80096,-1.370012 c 0.0502,-0.171788 -0.2711,-0.373025 -0.71397,-0.447189 -0.82498,-0.138151 -0.91975,-0.02556 -0.65102,0.773524 0.1679,0.49923 1.19559,0.25354 1.36499,-0.326335 z m 2.6083,-0.867736 c -0.0942,-0.279976 -0.23074,-0.44113 -0.3035,-0.358112 -0.0728,0.08307 -0.0553,0.380019 0.0389,0.660007 0.0942,0.279977 0.23074,0.441131 0.3035,0.358112 0.0728,-0.08306 0.0553,-0.380019 -0.0389,-0.660007 z m 24.971201,-2.98868 c 0.0075,-0.166037 0.12397,-0.102689 0.258907,0.140707 0.196415,0.354347 0.301133,0.275173 0.525115,-0.397008 0.341953,-1.026208 0.357935,-1.494836 0.04342,-1.273039 -0.129998,0.09162 -0.31086,-0.172016 -0.401916,-0.585967 -0.218938,-0.995299 -0.633979,-0.95695 -0.839441,0.07759 -0.09069,0.456614 -0.331078,1.500142 -0.534208,2.318952 -0.203129,0.818821 -0.368734,1.565988 -0.368012,1.660383 0.0023,0.294421 1.301809,-1.622708 1.316139,-1.941592 z m -14.7400206,2.356833 c 0.257431,-0.07656 0.614619,-0.07154 0.79375,0.01141 0.17913196,0.08272 -0.03149,0.145317 -0.468056,0.139167 -0.436563,-0.0057 -0.583125,-0.07382 -0.325694,-0.150349 z m 1.12893396,-0.731456 c -1.30018696,-1.114829 -1.57036196,-1.461633 -0.59732996,-0.766746 0.404293,0.288728 0.83336696,0.455644 0.95349896,0.370925 0.120131,-0.08478 0.35234,0.181338 0.51602,0.591228 0.163681,0.40989 0.270388,0.735951 0.237127,0.724587 -0.03326,-0.01141 -0.532452,-0.425374 -1.109316,-0.919994 z m -2.65532396,-1.474435 c -0.190654,-0.351985 0.05583,-0.905662 0.403181,-0.905662 0.131813,0 0.3671,0.271693 0.522861,0.603778 0.238793,0.509088 0.201213,0.603768 -0.239659,0.603768 -0.287574,0 -0.596446,-0.135847 -0.686383,-0.301884 z m 2.57968796,0.101891 c -0.46524396,-0.214199 -0.41315896,-1.007622 0.06615,-1.007622 0.220486,0 0.396875,0.26835 0.396875,0.603779 0,0.332074 -0.02977,0.593053 -0.06615,0.579943 -0.03638,-0.01312 -0.214974,-0.09231 -0.396875,-0.1761 z M 148.95243,-76.688003 c -0.25347,-0.753671 -0.18989,-1.030179 0.23686,-1.030179 0.21828,0 0.39687,0.263672 0.39687,0.585957 0,0.759273 -0.42709,1.058646 -0.63373,0.444222 z m -24.92686,-0.300161 c 0.0883,-0.262633 0.1606,-0.534326 0.1606,-0.603767 0,-0.06949 0.17859,-0.126251 0.39687,-0.126251 0.52688,0 0.51016,0.791461 -0.0216,1.024303 -0.62799,0.274956 -0.7118,0.228929 -0.53583,-0.294285 z m 3.35037,-0.558766 c -0.26868,-0.369385 -0.28558,-0.586801 -0.0652,-0.83831 0.22042,-0.251509 0.34064,-0.211619 0.46353,0.153783 0.27055,0.804445 0.012,1.248713 -0.39839,0.684527 z m 23.13068,0.01232 c -0.43136,-0.359892 -0.45215,-0.490912 -0.14493,-0.913285 0.33149,-0.455735 0.39592,-0.454662 0.84991,0.01415 0.98086,1.012824 0.36806,1.794415 -0.70498,0.899158 z m -3.2924,-1.975092 c -0.38882,-0.828964 -0.35177,-0.925515 0.35517,-0.925515 0.81491,0 1.33066,0.662095 0.89923,1.154364 -0.45765,0.522175 -0.94372,0.433497 -1.2544,-0.228849 z m 2.25559,0.106113 c -0.55307,-0.63106 -0.29635,-1.031674 0.66114,-1.031674 0.90437,0 1.06312,0.710393 0.26734,1.19633 -0.38595,0.235672 -0.61288,0.195429 -0.92848,-0.164656 z M 13.458043,-80.737143 c -0.105609,-0.194973 -0.07296,-0.490353 0.07257,-0.65639 0.176389,-0.20126 0.328589,-0.183723 0.456601,0.0526 0.105609,0.194973 0.07296,0.490353 -0.07257,0.65639 -0.176389,0.20126 -0.328589,0.183723 -0.456601,-0.0526 z m 3.020188,-2.703296 c 0.256068,-0.422623 0.544547,-1.017445 0.641064,-1.321816 0.188443,-0.594274 0.732987,-0.556199 0.91415,0.0639 0.06081,0.208139 -0.140112,0.453225 -0.446485,0.544641 -0.574784,0.171502 -0.778902,0.699565 -0.27041,0.699565 0.628317,0 0.01976,0.755644 -0.618838,0.768412 -0.679853,0.01358 -0.681521,0.008 -0.219481,-0.75472 z"
       id="path3" /></g></svg>
