<svg width="35" height="35" viewBox="0 0 35 35" fill="none" xmlns="http://www.w3.org/2000/svg">
<path d="M5.96171 4.73956C5.69674 4.73685 5.4398 4.83043 5.23863 5.0029C5.03746 5.17536 4.90575 5.415 4.86796 5.67727C4.78355 6.27637 4.74067 6.88059 4.73962 7.4856C4.73962 14.1181 9.87879 19.546 16.4063 20.0958V29.1666C16.4063 29.4567 16.5215 29.7349 16.7266 29.94C16.9318 30.1452 17.21 30.2604 17.5 30.2604C17.7901 30.2604 18.0683 30.1452 18.2734 29.94C18.4786 29.7349 18.5938 29.4567 18.5938 29.1666V20.0958C25.1213 19.546 30.2605 14.1166 30.2605 7.48414C30.2605 6.87164 30.2172 6.26887 30.1307 5.67581C30.0926 5.41381 29.9607 5.17452 29.7596 5.00235C29.5584 4.83017 29.3017 4.7368 29.0369 4.73956C26.5964 4.76014 24.2129 5.47938 22.1683 6.81218C20.1238 8.14497 18.5038 10.0355 17.5 12.2602C16.4962 10.0353 14.876 8.1446 12.8312 6.81179C10.7863 5.47898 8.40247 4.75987 5.96171 4.73956Z" fill="#3F654B"/>
</svg>
