<svg width="1507" height="1088" viewBox="0 0 1507 1088" fill="none" xmlns="http://www.w3.org/2000/svg">
<path d="M1478.98 820.05L1444.27 826.609L1413.71 852.618L1420.05 888.153L1392.01 910.968L1362.46 910.34L1342.56 942.681L1309.42 955.742L1299.77 985.174L1296.75 1031.6L1249.81 1080.77L1219.93 1066.91L1191.16 1080.03L1168.74 1051.22L1129.88 1059.38L1095.84 1077.06L1026.43 1065.65L993.291 1072.67L965.648 1028.86L920.791 1027.55L891.859 1016.43L870.608 1032.74L839.096 1027.55L833.489 1043.87L812.967 1052.25L799.678 1076.26L759.868 1073.18L697.742 1077.29L617.785 1069.36L554.761 1079.23L480.187 1074.04L417.836 1084.48L342.87 1075.06L328.067 1087.5L284.556 1074.04L261.735 1061.43C253.434 1062.24 245.42 1064.95 238.297 1069.36C221.028 1082.59 199.048 1064.57 199.048 1064.57L193.889 1036.05L157.331 1019.8L134.903 971.542L92.177 972.397L67.9544 960.419L22.481 983.234L-2.58265 970.059L-28.0949 986.143L-48 992.075V739H1536V801.285L1499.22 794.839L1478.98 820.05Z" fill="#F3F3F3"/>
<path d="M-19.9758 267.449L14.7318 260.89L45.2904 234.881L38.9543 199.346L66.9897 176.531L96.5392 177.159L116.444 144.818L149.582 131.757L159.226 102.325L162.254 55.8968L209.185 6.73043L239.071 20.5905L267.835 7.47192L290.264 36.2759L329.121 28.1195L363.156 10.4379L432.571 21.8454L465.709 14.8298L493.352 58.6346L538.209 59.9464L567.141 71.0688L588.392 54.756L619.904 59.9464L625.511 43.6337L646.033 35.2492L659.322 11.2364L699.132 14.3164L761.258 10.2097L841.215 18.1379L904.239 8.27044L978.813 13.4609L1041.16 3.02299L1116.13 12.4342L1130.93 0L1174.44 13.4609L1197.26 26.0662C1205.57 25.261 1213.58 22.5502 1220.7 18.1379C1237.97 4.90523 1259.95 22.9291 1259.95 22.9291L1265.11 51.4479L1301.67 67.7036L1324.1 115.957L1366.82 115.102L1391.05 127.08L1436.52 104.265L1461.58 117.44L1487.09 101.356L1507 95.4238V348.499H-77V286.214L-40.2175 292.66L-19.9758 267.449Z" fill="#F3F3F3"/>
</svg>
