<svg width="630" height="507" viewBox="0 0 630 507" fill="none" xmlns="http://www.w3.org/2000/svg">
<path d="M-106 2.04858C-62.9022 30.1522 22.7302 96.0828 44.6997 149.291M44.6997 149.291C46.4395 153.505 47.7801 157.639 48.6687 161.668C63.8048 230.299 -43.1146 194.786 44.6997 149.291ZM44.6997 149.291C108.407 111.137 244.063 65.2153 277.029 186.761C314.466 324.79 417.253 354.429 478.55 345.573M478.55 345.573C484.724 344.681 490.477 343.398 495.7 341.797C552.777 324.294 482.35 283.883 478.55 345.573ZM478.55 345.573C481.485 393.106 515.814 491.478 629.645 504.696" stroke="#044690" stroke-width="3" stroke-dasharray="6 6"/>
</svg>
